<svg xmlns="http://www.w3.org/2000/svg" width="100" height="100" viewBox="0 0 100 100"><path fill-rule="evenodd" clip-rule="evenodd" fill="#FFF" d="M58.721 57.439l-.045-.291c0-.023.01-.061.033-.109a.078.078 0 0 0 .057-.023l-.034-.104c0-.133.037-.248.111-.346s.115-.164.123-.197.063-.146.164-.334c.101-.189.176-.311.226-.363l.034-.074.046-.012c.088-.141.211-.27.371-.385.055-.084.119-.152.195-.205s.129-.09.153-.113a.262.262 0 0 1 .121-.045l.023-.012c.111-.111.205-.166.285-.166a.566.566 0 0 1 .162-.092h.063c.022 0 .044-.008.067-.023s.047-.023.068-.023c.017 0 .057.016.121.047.061-.061.111-.092.148-.092.08 0 .161.031.244.092a.4.4 0 0 1 .157.223c.021.088.041.137.057.152s.031.037.047.059c.029 0 .07-.072.119-.211l.067-.092c.106-.133.177-.289.215-.469a.277.277 0 0 0 .035-.094c.016-.055.058-.15.121-.283.113-.16.191-.322.238-.49l.068-.102c.047-.031.071-.064.076-.102a.25.25 0 0 1 .035-.1l.063-.111a.398.398 0 0 1 .062-.088.554.554 0 0 0 .067-.158c.031-.09.068-.141.112-.15a.442.442 0 0 0 .134-.064l.012-.039-.023-.08c0-.045.051-.125.152-.238.102-.115.174-.209.216-.283.045-.074.12-.189.223-.344.105-.154.182-.248.227-.281l.133-.139a.292.292 0 0 1 .255-.129c.084 0 .172.045.264.133.092.09.137.178.137.266a.827.827 0 0 1-.063.211l-.012.07c0 .061-.02.133-.063.217a.823.823 0 0 0-.074.193l-.32.783c-.038.016-.061.025-.068.033-.099.219-.177.336-.233.355v.115c0 .041-.027.072-.08.09l-.023.012a.805.805 0 0 1-.131.314.61.61 0 0 0-.117.195c-.025.068-.063.105-.116.113-.055.008-.08.082-.08.223-.016.076-.055.113-.116.113-.056 0-.093.051-.108.15-.016.098-.09.152-.222.16-.039.021-.062.049-.069.08l.045.143c0 .023-.069.109-.211.268l-.046.148c-.072.025-.131.223-.176.588l-.07.395.012.154-.021.08.068.234-.012.131c0 .061.023.092.068.092.023 0 .073-.035.154-.104l.08-.035c.237-.121.384-.24.44-.355.016-.014.043-.029.082-.045s.068-.035.088-.063a.917.917 0 0 1 .045-.059c.229-.15.38-.285.446-.398.068-.115.138-.184.21-.207l.045-.047c.045-.037.083-.057.114-.057.063 0 .095.02.095.057l-.045.162c.037.102.057.162.057.176 0 .135-.059.217-.176.248a.502.502 0 0 0-.117.17c-.028.064-.09.105-.185.119a.6.6 0 0 1-.176.182c-.055.029-.08.059-.08.088v.053a.373.373 0 0 1-.08.092l-.108-.023a.819.819 0 0 1-.103.189c-.019-.016-.036-.023-.05-.023-.055 0-.098.033-.131.098-.035.064-.061.098-.074.098h-.129a.528.528 0 0 0-.091.074c-.044.039-.112.057-.211.057l-.178.035a.746.746 0 0 1-.46-.162c-.141-.109-.215-.209-.225-.299a1.206 1.206 0 0 0-.094-.322l-.012-.234c-.041-.242-.089-.363-.142-.363l-.013.074-.045.023c-.022.115-.063.176-.114.176a.214.214 0 0 0-.074.057l-.035.023c-.016.006-.037.039-.066.096-.029.059-.107.139-.238.24-.052.143-.093.213-.12.213l-.069-.047h-.011c-.03 0-.055.045-.075.135-.019.09-.056.135-.114.135-.016 0-.029.025-.043.078a.132.132 0 0 1-.1.098c-.055.012-.102.064-.144.156-.041.09-.071.135-.086.135a.054.054 0 0 1-.034-.012l-.096.024a1.175 1.175 0 0 0-.083.131.322.322 0 0 0-.091.045.642.642 0 0 1-.471.172.538.538 0 0 1-.325-.088c-.082-.061-.129-.111-.145-.152a.722.722 0 0 0-.086-.156.536.536 0 0 1-.078-.234zm4.27-3.617l-.057.166c.049-.008.094-.059.131-.154a2.44 2.44 0 0 1 .234-.301c.051 0 .087-.033.11-.096a.541.541 0 0 1 .135-.186c0-.025.029-.078.086-.154s.096-.131.111-.162a.655.655 0 0 1 .105-.129.752.752 0 0 0 .152-.275c.048-.129.09-.207.123-.234.035-.027.053-.078.053-.158 0-.111-.009-.166-.024-.166-.034 0-.06.021-.077.066a.705.705 0 0 1-.112.166l-.194.326c-.076.129-.125.232-.15.309s-.052.121-.086.135a.347.347 0 0 0-.117.111l-.08.08a.875.875 0 0 0-.046.166l-.051.047v.105c0 .053-.029.098-.086.135-.057.043-.086.066-.086.078l-.074.125zm-1.987 2.321l.039-.074c.064-.023.107-.08.125-.172.031-.023.109-.121.234-.297.126-.176.188-.273.188-.291a.174.174 0 0 0-.13-.061.349.349 0 0 0-.071.023.57.57 0 0 1-.116.033.474.474 0 0 0-.127.047l-.143-.023c-.042 0-.137.055-.28.166l-.131-.023c-.024 0-.061.051-.115.148l-.291.234h-.035c-.052 0-.087.049-.106.145a.62.62 0 0 1-.184.174.262.262 0 0 0-.119.139v.074c-.107.117-.16.207-.16.27a.566.566 0 0 0-.158.246.91.91 0 0 1-.087.223c.015.053.027.119.035.197.007.078.045.117.113.117.111 0 .231-.066.364-.199a1.509 1.509 0 0 0 .336-.265c.099-.102.155-.154.167-.158.037-.037.061-.057.068-.057l.044-.047c0-.014.019-.031.05-.051a.67.67 0 0 0 .129-.117.424.424 0 0 1 .122-.105.116.116 0 0 0 .062-.049.174.174 0 0 1 .056-.061c.027-.018.041-.037.041-.063l.011-.066.069-.057zm-17.683 1.252l-.269.234c-.016-.016-.029-.023-.045-.023-.039 0-.086.033-.14.102-.055.068-.094.104-.117.104l-.057-.012a.797.797 0 0 1-.207.127.684.684 0 0 0-.152.063.454.454 0 0 1-.16.051.189.189 0 0 0-.117.049c-.029.029-.104.043-.222.043l-.092-.012a.317.317 0 0 1-.098.035c-.029 0-.063-.018-.098-.049a.179.179 0 0 0-.111-.055c-.039-.004-.08-.031-.123-.08a.428.428 0 0 0-.117-.104.216.216 0 0 1-.087-.08l-.08-.066a.654.654 0 0 1-.189-.252.703.703 0 0 1-.092-.285v-.025l.012-.109-.012-.125a.34.34 0 0 0 .056-.098v-.184l.139-.455c.008-.02-.008-.045-.046-.074-.037.057-.077.092-.113.104-.039.01-.064.037-.076.08-.014.039-.035.061-.066.061l-.068-.021a.76.76 0 0 0-.051.115c-.025.07-.07.105-.134.105-.068 0-.102-.025-.102-.08l.01-.102-.033-.143c0-.029.031-.09.092-.18s.117-.141.167-.154a.221.221 0 0 0 .131-.109.854.854 0 0 1 .238-.215c.068-.014.127-.064.178-.148a.702.702 0 0 1 .207-.104.389.389 0 0 0 .195-.117c.043-.051.173-.131.388-.238.214-.107.372-.162.47-.162.031 0 .072-.01.127-.025.052-.018.102-.033.148-.047.045-.014.094-.033.143-.063s.09-.043.119-.043l.166.057c.123.035.197.061.222.074a.504.504 0 0 0 .117.049c.07.025.143.059.218.102.074.041.111.119.111.232a.985.985 0 0 0-.097.154c0 .016.042.037.13.068.031.057.076.131.136.223l.064.201.01.469-.01.045c-.042.037-.064.064-.064.074l.018.113-.045.16c-.012.051-.031.082-.059.098a.12.12 0 0 0-.051.057l-.035.047-.049.1a.398.398 0 0 1-.082.129.193.193 0 0 0-.057.109.129.129 0 0 1-.059.092.218.218 0 0 0-.064.059.168.168 0 0 1-.066.054zm-1.781.146l.023.131.01.01h.091l.029.012a.894.894 0 0 0 .171.023.412.412 0 0 0 .281-.088c.072-.059.126-.088.169-.088.041 0 .076-.029.105-.086s.047-.086.055-.086h.08l.021-.012c0-.088.039-.15.117-.189a.342.342 0 0 0 .166-.15.433.433 0 0 1 .111-.143.245.245 0 0 0 .086-.129l.047-.07c.014-.014.021-.043.021-.086l.109-.205a.978.978 0 0 0 .033-.223c0-.078-.041-.141-.123-.188-.08-.045-.121-.135-.121-.27 0-.088.043-.168.133-.242.089-.074.134-.119.134-.135 0-.023-.012-.035-.033-.035a.727.727 0 0 0-.132.047c-.025.053-.162.123-.406.211a.94.94 0 0 0-.131-.057c-.021 0-.045.023-.068.068a.29.29 0 0 1-.068.098h-.074c-.008 0-.033.025-.074.074a.204.204 0 0 1-.16.074l-.068.068c.004.063-.035.125-.115.189l-.063.074c-.037.045-.087.1-.148.158l-.104.258a.678.678 0 0 0-.063.223.204.204 0 0 1-.076.072c-.041.023-.06.057-.06.094 0 .008.014.027.039.057.028.031.041.055.041.07l-.023.074-.021.211.059.186zm16.273-1.031l.09-.08c.056 0 .092-.025.101-.076.013-.051.054-.092.123-.123.07-.029.135-.092.195-.186s.123-.141.188-.141c.023 0 .049.02.08.057.029.039.045.068.045.092a.782.782 0 0 1-.115.389l-.022.158-.041.076a.247.247 0 0 0-.111.096.438.438 0 0 1-.135.127l-.056.08c-.084.027-.142.07-.169.131-.028.063-.067.096-.121.104-.05.008-.106.045-.167.115a1.051 1.051 0 0 1-.137.051l-.012.057a.419.419 0 0 1-.181.092c-.08.023-.143.045-.182.066a.213.213 0 0 1-.084.029.452.452 0 0 1-.199-.041.61.61 0 0 0-.189-.055.134.134 0 0 1-.039-.074.253.253 0 0 0-.059-.105.298.298 0 0 1-.05-.18l.022-.109c0-.014-.009-.033-.028-.057-.021-.021-.029-.041-.029-.057s.004-.027.012-.035c.008-.006.011-.018.011-.033a.182.182 0 0 0-.011-.063.187.187 0 0 1-.012-.057l.035-.281c0-.023-.009-.033-.023-.033s-.043.018-.082.057a.199.199 0 0 1-.141.057c-.031.023-.055.072-.074.145a.557.557 0 0 1-.115.104l-.023.033c-.008.027-.035.049-.085.066-.049.018-.084.039-.102.066l-.059.057-.109-.012a2.22 2.22 0 0 0-.063.1.42.42 0 0 1-.131.146l-.435.355a2.708 2.708 0 0 1-.201.115l-.035.031c-.304.203-.521.305-.646.305-.104 0-.224-.029-.36-.086s-.211-.125-.223-.207l-.059-.232a.42.42 0 0 1-.051-.223c0-.047.004-.076.012-.092v-.035l-.012-.188c0-.047.038-.07.109-.07l-.012-.154c0-.016.033-.074.1-.18s.111-.166.135-.182l.057-.074c-.004-.043.023-.094.08-.145a.747.747 0 0 0 .159-.185.451.451 0 0 1-.044.043c-.073.063-.125.109-.152.141s-.087.057-.183.08c-.008.002-.07.08-.188.232l-.115.068-.056.074c-.009.016-.062.031-.155.047-.004 0-.014.018-.027.057-.014.037-.054.064-.122.08a1.553 1.553 0 0 0-.211.211l-.121.023c-.021.072-.04.117-.057.131-.092.023-.142.063-.153.115a.205.205 0 0 1-.059.023l-.022.018a.605.605 0 0 1-.257.125l-.133.035-.045.068c0 .016-.047.043-.14.074a.517.517 0 0 0-.209.111l-.098.074c-.117.047-.191.088-.223.127h-.079c-.053 0-.137.039-.252.117s-.207.117-.275.117c-.221 0-.372-.027-.454-.082-.082-.057-.15-.125-.203-.207s-.099-.145-.144-.195c-.043-.047-.064-.09-.064-.119 0-.027.018-.051.053-.078a.488.488 0 0 0 .119-.164c.041-.08.148-.133.32-.156a.432.432 0 0 0 .084-.035.304.304 0 0 1 .116-.033c.037 0 .086.033.143.104 0 .006.009.01.023.01l.092-.01c.042.029.07.045.086.045.092 0 .189-.045.29-.137l.024-.012h.046c.013 0 .029-.033.058-.098l.097-.201.201-.256v-.059c0-.012.01-.045.033-.104v-.082c0-.035.023-.059.068-.066.047-.01.069-.035.069-.072l-.011-.045c-.031-.043-.047-.074-.047-.098l.058-.115-.011-.119.023-.047a.462.462 0 0 1-.023-.092l.023-.143c0-.004-.013-.039-.033-.109-.02-.068-.037-.102-.049-.102-.021 0-.094.059-.217.178a1.139 1.139 0 0 0-.217.252.315.315 0 0 1-.146.133.353.353 0 0 0-.15.135c-.027.051-.061.078-.098.086l-.384.307-.066.051c-.025.045-.051.074-.072.084l-.037-.004-.24.18c-.031.033-.051.051-.059.051H50.1c-.078.094-.148.17-.209.23l-.023.035a.243.243 0 0 1-.085.045l-.102.086c-.039-.021-.061-.033-.068-.033s-.023.016-.049.045a.656.656 0 0 1-.147.117.55.55 0 0 0-.168.164l-.092.09-.119.016c-.012 0-.031.02-.059.055l-.102.129c-.051.064-.127.098-.234.098-.023 0-.053-.02-.088-.061a1.092 1.092 0 0 0-.103-.102 3.037 3.037 0 0 1-.217-.256 2.031 2.031 0 0 1-.167-.227l.033-.199-.013-.139c0-.025.021-.066.056-.123a.706.706 0 0 0 .054-.088l-.012-.223a.125.125 0 0 0 .023-.035l.08-.129a.631.631 0 0 1-.012-.125l.023-.189a.417.417 0 0 0-.181.186c-.051.094-.119.141-.203.141-.072.127-.127.191-.166.188a.173.173 0 0 0-.033.045l-.08.045-.098-.01-.035.143a.48.48 0 0 0-.162.123.527.527 0 0 1-.117.111l-.098.092h-.087a.373.373 0 0 1-.178.258l-.044.057-.104-.012c-.037.123-.086.197-.143.223-.065 0-.154.061-.266.176-.113.119-.191.178-.238.178-.332 0-.599-.207-.806-.621a.868.868 0 0 0-.055-.084.368.368 0 0 1-.043-.195c0-.148.022-.248.061-.303a1.54 1.54 0 0 0 .154-.299c.062-.145.109-.209.141-.189a.168.168 0 0 0 .011-.068c.061-.072.092-.127.092-.166 0-.016-.008-.021-.023-.021a.209.209 0 0 0-.068.033l-.08.035c-.035.008-.061.021-.074.045a.231.231 0 0 1-.082.066 1.595 1.595 0 0 0-.092.055h-.015c-.024-.023-.039-.035-.047-.035a.416.416 0 0 1-.057.115l-.07.008c-.084.088-.137.133-.16.133a.361.361 0 0 1-.104-.041c-.052-.025-.08-.051-.08-.078l.041-.223v-.104c0-.008.014-.021.045-.045a.527.527 0 0 0 .091-.123c.053-.082.115-.123.189-.123l.08.035a.23.23 0 0 1 .107-.166h.046c.037 0 .088-.053.148-.156l.097-.057a.15.15 0 0 0 .068.012c.023 0 .045-.016.066-.045.02-.031.072-.09.156-.178h.023c.024 0 .051-.018.082-.051a.17.17 0 0 1 .129-.053l.195-.049c.061-.016.096-.025.104-.025.033-.01.117.059.252.209.133.15.198.295.198.436 0 .08-.04.129-.124.143l-.029.023v.115l-.098.211c-.026.057-.059.092-.098.107a1.367 1.367 0 0 1-.074.125l-.08.012-.033.033v.139a1.567 1.567 0 0 0-.148.301c-.066.152-.098.252-.098.293 0 .072.016.109.045.109.023 0 .047-.01.068-.029a.715.715 0 0 1 .095-.066.324.324 0 0 0 .088-.076c.02-.027.059-.051.121-.072a.451.451 0 0 0 .172-.117c.053-.057.092-.096.113-.115a.492.492 0 0 0 .076-.076c.025-.033.043-.049.051-.049a.442.442 0 0 0 .108-.023c.008-.041.016-.072.021-.092l.139-.068.331-.295.047-.057a.716.716 0 0 0 .113-.035.375.375 0 0 1 .154-.223c0-.016.02-.027.059-.035a.395.395 0 0 1 .117-.145.476.476 0 0 0 .117-.135l.132-.109a.16.16 0 0 0 .08-.068c.196-.176.32-.273.368-.301.047-.025.125-.035.232-.035s.193.039.26.121a.735.735 0 0 0 .219.186c.078.043.116.123.116.24 0 .111-.085.322-.257.635-.111.326-.168.527-.172.602s-.021.117-.051.129c-.031.012-.047.025-.047.039v.023c0 .092.016.137.047.137.021 0 .055-.018.094-.057a.806.806 0 0 1 .242-.125l.051.01c.111-.168.185-.258.222-.271s.076-.047.113-.102c.039-.057.084-.086.141-.09a.31.31 0 0 0 .077-.012c.015-.045.037-.102.064-.166l.045-.025.026-.031-.003-.002.005.002c.031-.033.068-.066.112-.102.146-.113.23-.172.254-.172.02 0 .037.008.053.023l.01-.02.24-.172c.06-.045.153-.129.278-.252.125-.121.204-.211.24-.268l.08-.145a.903.903 0 0 1 .087-.104c.038-.037.076-.129.117-.279s.088-.256.141-.313c.051-.057.125-.086.225-.086a.49.49 0 0 1 .226.082c.093.057.184.223.273.502.09.275.133.473.133.586 0 .047.014.105.041.176s.042.125.051.162a.734.734 0 0 0-.045.109l.012.234-.069.188v.137a.441.441 0 0 0-.069.143c0 .023.008.047.023.068.18-.076.288-.137.325-.186a.26.26 0 0 1 .113-.088.648.648 0 0 0 .18-.146l.109-.059c.039-.045.07-.086.098-.123.027-.035.059-.061.095-.076s.078-.043.13-.08c.048-.039.122-.082.216-.133l.059-.068a.678.678 0 0 1 .202-.154.985.985 0 0 1 .129-.057c.027 0 .055.035.084.105s.043.141.043.209a.213.213 0 0 1-.051.131.836.836 0 0 1 .158-.131l.172-.172c.134-.135.281-.24.437-.32a.621.621 0 0 0 .141-.115.675.675 0 0 1 .242-.152c.09-.031.177-.072.263-.121s.154-.074.203-.074h.047c.015 0 .117-.047.305-.143h.032c.016 0 .053.016.109.045h.012l.092-.045a.13.13 0 0 1 .059-.012c.236 0 .366.164.39.488.008.068.027.104.057.104.039 0 .094-.07.164-.209s.22-.207.448-.207c.164 0 .246.104.246.313 0 .248-.109.484-.329.705a.354.354 0 0 0-.035.104l-.08.234v.01c0 .023-.016.055-.05.094-.032.041-.048.076-.048.105l.012.145-.023.16c0 .072.014.119.041.143.121-.031.208-.082.263-.152s.094-.109.115-.117l.057-.023a.682.682 0 0 1 .124-.144zm-1.897.002a.255.255 0 0 1 .139-.189c.077-.043.124-.088.14-.135.072-.053.176-.148.311-.285s.201-.221.201-.252c0-.01-.009-.016-.022-.016h-.012l-.046.027-.103-.012-.108.012-.078-.039-.074.012-.114-.023a.3.3 0 0 0-.156.037 1.06 1.06 0 0 1-.25.082c-.125.031-.235.084-.334.158s-.173.111-.218.111c-.027.057-.115.139-.268.246-.091.029-.149.094-.177.197-.098.08-.148.125-.148.137l-.039.098a.354.354 0 0 1-.115.066c-.045.016-.072.057-.08.119s-.033.119-.076.172c-.045.051-.066.092-.066.123 0 .186.037.279.109.279.029 0 .094-.02.191-.061a.663.663 0 0 0 .167-.082.254.254 0 0 1 .092-.047l.107-.057a.098.098 0 0 1 .051-.027.129.129 0 0 0 .059-.037.35.35 0 0 1 .102-.07.257.257 0 0 0 .115-.1c.063-.037.167-.096.312-.176l.119-.092c.084-.039.135-.07.154-.098s.056-.051.115-.078zM48.21 72.877c-.66.533-1.372 1-2.135 1.402a8.309 8.309 0 0 1-2.713.875c-1.03 1.441-2.197 2.621-3.502 3.537s-2.655 1.373-4.052 1.373a5.764 5.764 0 0 1-2.215-.445c-.721-.299-1.362-.738-1.923-1.322s-1.013-1.311-1.356-2.182c-.343-.869-.515-1.889-.515-3.057 0-1.098.212-2.225.635-3.381a19.94 19.94 0 0 1 1.477-3.178c.561-.961 1.133-1.75 1.716-2.369.584-.617 1.036-.928 1.357-.928.229 0 .48.023.755.07.274.045.538.102.79.17.412-.549.853-1.063 1.322-1.545.469-.48.973-.898 1.511-1.252.538-.355 1.093-.643 1.665-.859s1.156-.326 1.751-.326c.87 0 1.585.098 2.146.291.561.195 1.007.471 1.339.824.332.355.561.779.687 1.271s.188 1.023.188 1.596c0 3-.675 5.873-2.026 8.619a11.51 11.51 0 0 0 2.353-1.75 24.154 24.154 0 0 0 1.482-1.541c.125-.318.266-.633.423-.949a15.64 15.64 0 0 1 3.072-4.223 15.922 15.922 0 0 1 4.311-3.023c1.603-.766 3.228-1.148 4.876-1.148 1.122 0 1.883.314 2.283.938.401.629.602 1.367.602 2.221 0 .732-.098 1.436-.292 2.111l-.43 1.494c0 .023-.005.035-.017.035s-.018.01-.018.033v.035c-.068.184-.229.297-.48.344a2.07 2.07 0 0 1-.79-.018 1.722 1.722 0 0 1-.687-.291c-.183-.139-.24-.299-.172-.482v.035c.114-.367.218-.756.31-1.168.091-.344.171-.715.24-1.115.068-.402.103-.773.103-1.117 0-.229-.011-.418-.034-.566-.022-.148-.08-.223-.172-.223-.525 0-1.093.229-1.699.688-.607.457-1.202 1.059-1.786 1.814-.584.754-1.145 1.613-1.683 2.586s-1.019 1.951-1.442 2.947c-.423.99-.756 1.963-.995 2.912-.241.945-.361 1.787-.361 2.52 0 .52.092.949.275 1.281.183.332.48.498.893.498 1.053 0 2.071-.258 3.056-.771.985-.516 1.924-1.18 2.816-1.992s1.729-1.705 2.507-2.678c.446-.561.864-1.111 1.251-1.656.189-.664.447-1.326.774-1.984a15.406 15.406 0 0 1 3.073-4.207 16.202 16.202 0 0 1 4.293-3.004c1.591-.768 3.211-1.15 4.858-1.15 1.076 0 1.849.24 2.318.721s.704 1.121.704 1.922c0 .596-.154 1.277-.464 2.043-.309.768-.727 1.564-1.253 2.389s-1.134 1.637-1.82 2.438-1.413 1.533-2.181 2.197a15.748 15.748 0 0 1-2.353 1.699c-.801.471-1.567.785-2.301.945a6.358 6.358 0 0 0-.137 1.305c0 .525.092.955.274 1.287.184.332.493.498.928.498 1.007 0 2.003-.258 2.987-.771a13.857 13.857 0 0 0 2.816-1.975c.893-.803 1.733-1.689 2.523-2.662s1.494-1.924 2.111-2.85a42.527 42.527 0 0 0 2.473-4.172c.092-.184.27-.275.532-.275.264 0 .521.051.772.154.253.104.464.246.636.43s.223.365.154.549c-.229.459-.578 1.139-1.047 2.043-.47.904-1.053 1.9-1.752 2.988a44.512 44.512 0 0 1-2.386 3.348 22.566 22.566 0 0 1-2.954 3.125l-.154.133a.83.83 0 0 0-.14-.174l-.112-.092c-.042-.043-.07-.063-.084-.063h-.256l-.061-.021c-.069-.107-.126-.162-.164-.162-.015 0-.05.025-.105.082l-.173.021a.36.36 0 0 0-.308-.166c-.028 0-.096.035-.197.102-.165-.08-.253-.123-.267-.123h-.073l-.124-.07c-.014-.027-.048-.041-.101-.041-.131 0-.196.059-.196.176v.059l-.021.043a1.204 1.204 0 0 0-.667-.188l-.4.105-.318-.02-.268.08c-.015 0-.021-.006-.021-.021-.076-.053-.126-.08-.154-.08a.423.423 0 0 0-.333.145c-.088.094-.157.143-.211.143l-.084-.02h-.08l-1.246.377c-.144 0-.246.039-.309.109-.06.074-.099.117-.113.131l-.276-.021-.207.207h-.152c-.15 0-.259.092-.326.277-.28.066-.452.119-.509.154a5.538 5.538 0 0 1-.351.158c-.176.07-.418.221-.733.451-.313.229-.467.377-.46.436l-.187.084a1.992 1.992 0 0 1-.255.18.845.845 0 0 0-.113.074 6.866 6.866 0 0 1-2.048-1.813 7.698 7.698 0 0 1-1.219-2.404 9.605 9.605 0 0 1-.272-1.135 24.88 24.88 0 0 1-2.766 2.869c-1.076.951-2.21 1.723-3.4 2.318s-2.415.893-3.675.893c-1.121 0-2.094-.24-2.918-.721s-1.512-1.094-2.061-1.838a7.889 7.889 0 0 1-1.219-2.42 8.909 8.909 0 0 1-.388-2.21zm-8.315-1.947c0 .527.125.975.377 1.34.252.367.709.596 1.374.688.458-.779.87-1.592 1.236-2.439.367-.846.675-1.676.927-2.488.251-.813.446-1.592.583-2.336.138-.744.206-1.391.206-1.939 0-.916-.114-1.373-.343-1.373s-.583.291-1.064.875-.967 1.311-1.459 2.18c-.492.871-.922 1.797-1.288 2.781s-.549 1.886-.549 2.711zm-3.984 6.49c.802 0 1.551-.211 2.25-.635s1.356-1.002 1.975-1.734a9.14 9.14 0 0 1-2.455-1.047 8.69 8.69 0 0 1-1.975-1.631 19.23 19.23 0 0 0-.738 2.061c-.195.664-.292 1.246-.292 1.75 0 .391.091.693.274.91.182.219.503.326.961.326zm42.443-15.486c-.55 0-1.15.27-1.803.807-.652.539-1.294 1.236-1.924 2.096-.629.857-1.225 1.824-1.785 2.9s-1.036 2.141-1.426 3.193c.824-.412 1.66-1.006 2.507-1.785a21.036 21.036 0 0 0 2.302-2.473c.687-.869 1.241-1.717 1.665-2.541s.635-1.488.635-1.992c0-.137-.056-.205-.171-.205zm-6.964-6.35a49.945 49.945 0 0 0 1.848-1.754c.411-.412.824-.814 1.235-1.203a43.682 43.682 0 0 1 1.82-1.785c.55-.504.95-.756 1.202-.756.159 0 .429.034.807.104.377.068.762.177 1.15.326.389.148.732.36 1.029.634.299.275.447.619.447 1.031 0 .32.086.674.257 1.064.172.389.379.771.619 1.15.239.377.504.744.79 1.1.285.354.532.656.738.908.183.252.343.477.48.67.138.195.206.361.206.498 0 .32-.144.584-.43.789-.286.207-.555.311-.807.311-.366 0-.808-.213-1.322-.637A12.074 12.074 0 0 1 80 56.61a18.825 18.825 0 0 1-1.717-2.096c-.32.32-.728.721-1.22 1.203-.492.48-1.013.938-1.563 1.373-.549.436-1.11.807-1.683 1.115-.572.311-1.087.465-1.545.465-.321 0-.607-.133-.859-.395a3.18 3.18 0 0 1-.6-.895 3.091 3.091 0 0 1-.232-.705.127.127 0 0 1 .036-.012c.053-.008.093-.041.121-.104.028-.061.085-.104.169-.131l.058-.082a.438.438 0 0 0 .135-.127.273.273 0 0 1 .113-.096l.04-.078.022-.16a.748.748 0 0 0 .115-.301zm-35.147-4.268l.047-.057a.145.145 0 0 1 .113-.066.417.417 0 0 0 .142-.043l.843-.233c.08-.021.177-.035.296-.045l.183-.059a.514.514 0 0 1 .211-.033l.189-.041c.016 0 .029.014.041.043.01.029.02.043.027.043.179-.117.294-.178.343-.178h.012l.136.035c.023 0 .049-.016.076-.047l.021-.021c.084.037.131.057.139.057a.643.643 0 0 0 .193-.035.754.754 0 0 1 .207-.033l.177.012.394-.023c.023 0 .049.012.074.035l.115-.023c.111 0 .221.016.328.045.109.031.24.055.392.068.152.016.263.068.332.156l.098.033h.068c.099 0 .16.04.177.122a.407.407 0 0 0 .139.135l.074.119a.213.213 0 0 0-.011.07c0 .021.041.049.125.08l.023.01c.004.059.041.123.109.197.068.076.102.213.102.416v.137l.023.295c0 .203-.061.447-.179.732-.121.287-.248.486-.38.6-.031.104-.066.154-.109.154-.132.121-.218.184-.257.184a.088.088 0 0 1-.033-.012.637.637 0 0 1-.25.24 1.789 1.789 0 0 1-.224.119l-.263.098-.139-.033c-.057.053-.096.082-.119.084l-.302.127c-.255.068-.423.104-.503.104l-.145-.047c-.021 0-.057.029-.101.086l-.109.021c-.023-.021-.098-.039-.222-.051a.283.283 0 0 1-.133.051l-.251.033c-.029 0-.049-.025-.057-.084l-.051.018-.023.078a.154.154 0 0 1-.058.011l-.304-.031-.142.031-.234-.043-.115.012-.098-.047-.09.012-.092-.023-.109.023-.023-.012c-.014.031-.033.055-.057.074s-.053.059-.092.119a.463.463 0 0 0-.166.264c-.023.104-.09.16-.199.172a.523.523 0 0 1-.035.057c.008.008.02.041.035.098v.023c0 .092-.076.186-.224.281a1.034 1.034 0 0 1-.082.297c-.033.061-.055.109-.066.15s-.043.074-.097.1l-.021.035v.166a.296.296 0 0 1-.035.072l-.098.174-.035.059-.045.188a.263.263 0 0 0-.115.225l.012.324c0 .057-.037.117-.113.178a.35.35 0 0 1-.22.092c-.188 0-.316-.113-.384-.336l-.035-.047c-.08-.066-.119-.16-.119-.291 0-.148.078-.371.234-.67l.378-.68a1.09 1.09 0 0 1 .148-.102l.063.021c.016-.008.023-.021.023-.045 0-.008-.021-.063-.063-.166v-.024c0-.031.014-.049.039-.057l.046-.053-.011-.113a.739.739 0 0 0 .109-.201l.056-.131c.039-.088.068-.133.092-.139 0-.15.047-.262.138-.336l.045-.096c.012-.023.037-.037.074-.041.039-.004.059-.01.059-.018 0-.014-.006-.033-.018-.057s-.018-.043-.018-.057c0-.039.021-.088.066-.148.043-.063.076-.092.094-.092l.085.051v-.035c-.037-.033-.056-.063-.056-.086 0-.029.018-.07.052-.123a.655.655 0 0 0 .063-.111l.045-.057c.008 0 .027-.053.059-.158.029-.107.074-.158.131-.154v-.059c0-.037.044-.129.132-.273l.302-.539a.895.895 0 0 1 .092-.199l-.01-.139c0-.061.035-.154.105-.283.071-.131.129-.195.174-.195.023 0 .039.004.049.012s.018.012.025.012l.092-.012.183.166c.049.041.078.115.086.223l.023.033c.094.174.142.299.142.371 0 .092-.01.16-.025.209-.017.047-.076.104-.175.168a.806.806 0 0 0-.177.289.652.652 0 0 1-.117.232.968.968 0 0 0-.145.318.551.551 0 0 1-.218.314 1.865 1.865 0 0 1-.045.264v.01c0 .023.016.035.045.035l.189-.023c.023 0 .051.006.082.018a.276.276 0 0 0 .096.018.22.22 0 0 0 .113-.047h.035c.014 0 .063.02.143.059l.023-.012c.021-.039.045-.057.068-.057l.222.021.109-.012a.507.507 0 0 1 .248-.057.813.813 0 0 0 .234-.033.382.382 0 0 1 .117-.035.537.537 0 0 0 .135-.045.327.327 0 0 1 .138-.041c.088 0 .21-.039.367-.119a.752.752 0 0 0 .091.021.204.204 0 0 0 .176-.092c.047-.061.098-.094.154-.102l.349-.154c.031-.012.097-.074.199-.188l.104-.068.068-.098c0-.008.037-.029.109-.068a.086.086 0 0 1-.035-.033l.127-.145a.53.53 0 0 1-.012-.068v-.021a.43.43 0 0 1 .117-.127c.041-.027.06-.043.06-.051l-.058-.068c.054-.055.08-.088.08-.104l-.021-.166.021-.289c0-.148-.008-.246-.027-.289a.555.555 0 0 1-.042-.135.962.962 0 0 0-.302-.35c-.012-.006-.018-.02-.018-.039l-.012-.057v-.023l-.181.023c-.008 0-.021-.02-.037-.059-.018-.037-.045-.057-.084-.057l-.08.035h-.012c-.027 0-.094-.037-.199-.109a.544.544 0 0 0-.144-.012l-.08-.033a.098.098 0 0 0-.057-.023h-.035l-.13.023-.292-.023-.176-.035c-.066.047-.107.07-.126.07a.439.439 0 0 1-.109-.035h-.01l-.172.023c-.055.008-.097.014-.132.021h-.033a.97.97 0 0 1-.293-.033h-.033a.136.136 0 0 0-.104.043c-.027.027-.051.043-.074.043-.016 0-.035-.025-.059-.074a.82.82 0 0 1-.107.074l-.104-.041c-.016.031-.131.063-.349.098l-.273.057-.047-.012a1.61 1.61 0 0 1-.216.064.617.617 0 0 0-.152.047.44.44 0 0 1-.14.043 1.513 1.513 0 0 0-.217.059l-.091-.023a2.874 2.874 0 0 1-.314.148.931.931 0 0 0-.258.137c-.035.035-.066.053-.097.053a.501.501 0 0 1-.068-.012h-.012c-.035 0-.09.039-.168.117s-.146.133-.203.168a.428.428 0 0 0-.152.16c-.045.074-.145.129-.301.164a.147.147 0 0 0-.023.033v.092a.47.47 0 0 0-.166.201l-.033.057-.012.107c0 .115-.016.176-.047.184-.029.008-.061.023-.094.049s-.064.037-.094.037c-.066 0-.126-.057-.183-.172a.824.824 0 0 1-.085-.205c0-.227.074-.391.222-.498l.423-.307c.143-.104.262-.154.361-.154.032-.016.063-.053.098-.109.033-.057.111-.1.234-.127l.092.035c.008 0 .02-.016.033-.045a.177.177 0 0 1 .072-.074.29.29 0 0 0 .084-.076l.148-.096c.008 0 .016-.004.023-.012l.086.023c.008 0 .018-.004.033-.012s.043-.012.08-.012c.016 0 .027-.02.035-.057a.12.12 0 0 1 .064-.031zm31.861 5.194l.09-.08c.056 0 .091-.025.101-.076.012-.051.053-.092.123-.123a.454.454 0 0 0 .195-.186c.06-.094.122-.141.188-.141.022 0 .049.02.079.057.029.039.045.068.045.092a.79.79 0 0 1-.114.389l-.024.158-.04.076a.236.236 0 0 0-.111.096.45.45 0 0 1-.135.127l-.057.08c-.084.027-.141.07-.168.131-.028.063-.068.096-.121.104-.051.008-.107.045-.167.115a1.109 1.109 0 0 1-.137.051l-.012.057a.423.423 0 0 1-.182.092c-.08.023-.143.045-.182.066a.213.213 0 0 1-.084.029c-.072 0-.138-.012-.198-.041s-.125-.047-.189-.055a.134.134 0 0 1-.039-.074.253.253 0 0 0-.059-.105.292.292 0 0 1-.051-.18l.023-.109c0-.014-.01-.033-.028-.057-.021-.021-.03-.041-.03-.057s.004-.027.013-.035c.008-.006.011-.018.011-.033a.182.182 0 0 0-.011-.063.166.166 0 0 1-.013-.057l.035-.281c0-.023-.008-.033-.022-.033-.014 0-.044.018-.082.057a.201.201 0 0 1-.142.057c-.031.023-.054.072-.073.145a.557.557 0 0 1-.115.104l-.023.033c-.008.027-.035.049-.086.066-.049.018-.084.039-.102.066l-.059.057-.108-.012a2.22 2.22 0 0 0-.063.1.42.42 0 0 1-.131.146l-.436.355a2.344 2.344 0 0 1-.201.115l-.034.031c-.304.203-.521.305-.646.305a.961.961 0 0 1-.361-.086c-.136-.057-.211-.125-.222-.207l-.059-.232a.42.42 0 0 1-.051-.223c0-.047.004-.076.012-.092v-.035l-.012-.188c0-.047.037-.07.109-.07l-.013-.154a.85.85 0 0 1 .1-.18.801.801 0 0 1 .135-.182l.057-.074c-.004-.043.023-.094.081-.145s.103-.104.138-.156a.694.694 0 0 1 .195-.178l.171-.172a1.72 1.72 0 0 1 .438-.32.621.621 0 0 0 .141-.115.675.675 0 0 1 .242-.152c.089-.031.177-.072.262-.121a.462.462 0 0 1 .203-.074h.048c.015 0 .116-.047.304-.143h.033c.016 0 .053.016.108.045h.013l.091-.045a.132.132 0 0 1 .059-.012c.236 0 .367.164.391.488.008.068.026.104.057.104.039 0 .094-.07.163-.209.07-.139.221-.207.448-.207.165 0 .246.104.246.313 0 .248-.108.484-.329.705a.385.385 0 0 0-.035.104l-.08.234v.01c0 .023-.016.055-.049.094-.032.041-.049.076-.049.105l.012.145-.022.16c0 .072.014.119.041.143.12-.031.208-.082.263-.152s.093-.109.115-.117l.057-.023a.525.525 0 0 1 .121-.145zm-1.899.002a.258.258 0 0 1 .139-.189c.078-.043.125-.088.141-.135.072-.053.175-.148.31-.285s.201-.221.201-.252c0-.01-.008-.016-.021-.016h-.012l-.047.027-.102-.012-.109.012-.077-.039-.074.012-.115-.023c-.061 0-.113.012-.156.037s-.126.053-.25.082a.915.915 0 0 0-.333.158c-.101.074-.173.111-.218.111-.027.057-.116.139-.269.246-.091.029-.149.094-.177.197-.098.08-.148.125-.148.137l-.039.098a.344.344 0 0 1-.115.066c-.045.016-.072.057-.079.119a.342.342 0 0 1-.076.172c-.045.051-.066.092-.066.123 0 .186.037.279.108.279.03 0 .094-.02.192-.061a.663.663 0 0 0 .167-.082.245.245 0 0 1 .092-.047l.107-.057a.098.098 0 0 1 .051-.027c.02-.004.038-.018.059-.037a.358.358 0 0 1 .101-.07.252.252 0 0 0 .115-.1c.064-.037.168-.096.313-.176l.119-.092c.084-.039.135-.07.153-.098a.309.309 0 0 1 .115-.078z"/><path fill-rule="evenodd" clip-rule="evenodd" fill="#BF000A" d="M33.935 85.619l.319-.186c.306-.164.53-.264.685-.295.151-.027.274-.07.372-.115.095-.049.302-.096.618-.137l.105-.039a.478.478 0 0 1 .165-.043c.014 0 .084.021.218.064l.186.018c.337.027.583.357.741.988v.258c0 .08.028.121.084.121.042 0 .095-.055.158-.168.067-.115.13-.182.193-.203a.675.675 0 0 0 .218-.133c.088-.068.218-.102.396-.102.281 0 .463.115.547.35v.135l.039.463c0 .053-.036.133-.112.238a5.195 5.195 0 0 0-.298.512l-.133.172c-.081.1-.197.254-.341.463l-.039.043-.165.043-.084.42-.193.102c-.063.24-.102.373-.116.391-.011.021-.077.053-.193.094-.116.043-.175.1-.175.176 0 .109.045.166.133.166.053 0 .158-.033.316-.096.154-.059.284-.105.386-.133.014.014.028.021.042.021.007 0 .066-.033.179-.092.112-.064.176-.105.19-.131.01-.02.087-.055.224-.094l.478-.361h.204c.028 0 .06-.021.091-.07l.337-.277a4.27 4.27 0 0 1 .526-.354c.235-.143.4-.268.495-.383.095-.117.165-.176.204-.176.081 0 .123.066.123.195l-.042.162.021.34c0 .172-.102.316-.305.443l-.074.059a1.21 1.21 0 0 1-.246.145.368.368 0 0 1-.172.225c-.098.063-.21.145-.344.242s-.253.16-.365.189c-.039.109-.123.176-.249.195-.126.021-.256.1-.39.232s-.232.201-.302.201l-.172-.021c-.13.143-.228.213-.288.213h-.053l-.081-.02c-.028 0-.066.035-.119.098-.049.066-.141.115-.271.154a.732.732 0 0 0-.267.123.251.251 0 0 1-.183.066l.172.75v.043c0 .074-.018.229-.06.459h-.112c-.07 0-.102.039-.102.117 0 .102.045.174.144.225a.633.633 0 0 1-.063.23.886.886 0 0 0-.063.346c0 .068-.053.178-.162.324a1.514 1.514 0 0 0-.246.514c-.056.195-.186.445-.39.754l-.063.299c-.147.414-.249.629-.302.643-.053.018-.077.035-.077.049l.021.111c0 .016-.028.074-.084.188l-.017.059c0 .029-.025.08-.074.162a4.728 4.728 0 0 0-.196.365l-.091.092v.223l-.042.086a.98.98 0 0 0-.172.234.83.83 0 0 1-.197.229c-.095.08-.154.15-.168.211a.716.716 0 0 1-.088.168 2.667 2.667 0 0 0-.13.199c-.046.08-.095.154-.147.221a.837.837 0 0 0-.116.18c-.018.053-.073.096-.158.131a.56.56 0 0 0-.189.111c-.042.043-.105.063-.186.063h-.112l-.165.135c-.316 0-.533-.096-.66-.285a1.011 1.011 0 0 1-.183-.559l.172-.969c.056-.326.084-.512.084-.553 0-.043.046-.174.133-.396.088-.223.141-.396.155-.527l.07-.164c.056-.158.098-.285.126-.383l.709-1.604c.144-.316.277-.566.4-.752l.091-.215.165-.297v-.166c0-.027.07-.111.207-.256a2.77 2.77 0 0 1 .235-.607l.105-.297-.228-.383c0-.109.189-.24.565-.391l.102-.07a2.26 2.26 0 0 1 .425-.75v-.219c0-.08.063-.186.193-.309l.021-.07-.091.021c-.049.096-.129.15-.249.168a.447.447 0 0 0-.256.109c-.057.057-.091.08-.105.08l-.123-.039c-.028 0-.084.074-.168.223-.088.146-.256.27-.513.365a.528.528 0 0 0-.144.115.676.676 0 0 1-.14.111.582.582 0 0 0-.13.113c-.045.057-.077.084-.091.084l-.186-.063a.944.944 0 0 1-.238.238c0 .014-.007.021-.021.021l-.144-.021-.404.287c-.014 0-.024.012-.039.031l-.196-.053c-.2.215-.333.32-.404.32l-.424.084-.204-.021-.144.021c-.056 0-.193-.043-.418-.129-.221-.086-.365-.197-.424-.334a1.267 1.267 0 0 1-.095-.527c0-.348.039-.605.119-.775.077-.168.126-.322.147-.463a.654.654 0 0 1 .183-.371c.098-.105.214-.246.347-.422.134-.176.235-.295.306-.361.066-.063.119-.115.154-.158.225-.27.421-.404.586-.404a.962.962 0 0 0 .126-.203l.123-.084a1 1 0 0 0 .242-.197c.074-.072.2-.143.379-.203.015-.069.067-.118.166-.153zm42.525-6.691c-.354.27-.716.52-1.084.752-1.32.834-2.7 1.25-4.143 1.25-.501 0-.974-.057-1.416-.17a.356.356 0 0 0-.076.107c-.052.1-.111.148-.179.148l-.207-.043-.111.207c-.145.035-.229.057-.25.061a1.14 1.14 0 0 1-.267.27 3.868 3.868 0 0 0-.263.199.675.675 0 0 0-.183.223.458.458 0 0 1-.172.178.539.539 0 0 0-.193.275l-.105.102c-.168.143-.257.297-.257.463 0 .115.085.199.25.256.161.057.267.098.306.133.041.035.104.053.186.053.084 0 .161.018.238.049.074.035.2.092.38.166.034.111.066.164.102.164.014 0 .042-.027.084-.08.038-.057.102-.084.183-.084.091 0 .176.057.26.164l.08-.059h.043l.133.039h.021l.122-.061c.014-.014.035-.021.061-.021.021 0 .126.035.318.102h.021c.014 0 .07-.014.165-.041a.591.591 0 0 1 .176.063l.144.08c0 .021.015.031.039.031a.302.302 0 0 0 .126-.045.302.302 0 0 1 .15-.045c.057 0 .12.039.187.111a.895.895 0 0 1 .186-.07c.061 0 .169.049.32.154l.192.039h.229l.337.063c.098.104.196.184.298.236.014-.074.063-.113.145-.113.111 0 .276.047.505.135l.081.02.084.061c.116-.025.186-.039.214-.039.138 0 .207.047.207.145 0 .08-.021.189-.063.318.014 0 .034.016.063.039a.241.241 0 0 1 .112-.08l.165-.096c.028-.023.046-.037.06-.037.158 0 .383.107.67.328.288.219.453.467.492.748 0 .084.028.18.083.289l-.041.133.021.164a.804.804 0 0 1-.042.145l-.021.154a.22.22 0 0 1-.06.074.205.205 0 0 0-.063.07l.063.176v.041c0 .029-.029.063-.078.113a.337.337 0 0 0-.098.133.455.455 0 0 1-.074.129.444.444 0 0 0-.069.158c-.015.064-.081.133-.2.211-.12.08-.18.141-.18.18 0 .041.011.063.039.063.084 0 .168-.039.263-.119a.672.672 0 0 1 .211-.137 1.57 1.57 0 0 0 .246-.123l.965-.453c.719-.344 1.119-.516 1.2-.516.108 0 .165.057.165.166 0 .041-.05.119-.144.238-.015.318-.155.508-.422.564a.887.887 0 0 0-.238.215h-.081c-.172.191-.368.287-.586.287h-.063a1.41 1.41 0 0 1-.928.42c-.238.244-.438.363-.597.363l-.164.041c-.172.066-.291.102-.358.102-.014 0-.042.029-.084.082l-.154.115c-.13.023-.271.102-.422.225-.15.123-.266.193-.343.211a1.149 1.149 0 0 0-.254.088c-.087.041-.448.273-1.08.697l-.134.043c-.267.123-.435.225-.505.301a.845.845 0 0 1-.246.201h-.043c-.158 0-.341.105-.555.309-.014.035-.161.092-.448.172a2.938 2.938 0 0 0-.818.365c-.165.039-.365.094-.606.16-.239.07-.415.113-.523.127l-.72.154c-.157.025-.34.066-.547.123a1.045 1.045 0 0 0-.32-.063l-.183.021c-.027 0-.073-.025-.129-.072a1.164 1.164 0 0 0-.232-.139c-.094-.047-.144-.162-.144-.355 0-.172.189-.34.565-.508.379-.17.625-.289.743-.355.054-.076.148-.119.281-.133a.743.743 0 0 0 .348-.123c.095-.07.242-.129.442-.186l.41-.219a.144.144 0 0 1 .053-.018h.145c.049 0 .118-.039.217-.115a.989.989 0 0 1 .299-.164h.123c.014 0 .034-.014.063-.051a.62.62 0 0 1 .186-.133l.028-.021h.105a1 1 0 0 1 .267-.154 1.33 1.33 0 0 0 .299-.164l.804-.309.186.021c.042 0 .095-.033.158-.1.067-.063.218-.129.46-.199a.738.738 0 0 1 .218-.193 3.66 3.66 0 0 0 .39-.33l.217-.197.081-.203.271-.299c.137-.227.249-.361.336-.398a.56.56 0 0 1 .064-.154.738.738 0 0 0 .063-.229l.091-.166c.028-.027.043-.045.043-.059s-.028-.057-.085-.123l-.049-.217c0-.057-.183-.236-.548-.545h-.08l-.741-.361-.042-.102-.084-.021-.102.043h-.021l-.348-.102a4.837 4.837 0 0 1-.558-.176c-.014.014-.035.02-.06.02l-.414-.094c-.116-.027-.187-.057-.211-.088a.445.445 0 0 0-.176-.092.5.5 0 0 1-.179-.088c-.028-.027-.084-.041-.165-.041l-.256.063c0-.021-.099-.057-.288-.102-.028-.07-.049-.105-.063-.105l-.298.043a5.85 5.85 0 0 0-.31-.145c-.035 0-.154-.018-.361-.057-.204-.037-.337-.076-.4-.119a1.385 1.385 0 0 0-.276-.123l-.063-.059c-.015-.014-.05-.029-.113-.043h-.186c-.038 0-.095-.035-.169-.102a1.534 1.534 0 0 0-.276-.207.877.877 0 0 1-.299-.322 1.008 1.008 0 0 1-.14-.449.059.059 0 0 1-.018-.039l.06-.33c.063-.418.256-.803.586-1.162a.611.611 0 0 1 .34-.398l.043-.145c.196-.172.34-.309.425-.41.087-.105.182-.189.294-.254a2.16 2.16 0 0 0 .257-.178l.186-.086c-.007-.059.147-.207.46-.434.315-.232.558-.383.733-.453.176-.074.291-.127.351-.158.057-.035.229-.088.509-.154.066-.186.176-.277.327-.277h.154l.207-.207.277.021a1.97 1.97 0 0 0 .111-.131c.064-.07.165-.107.31-.107l1.245-.381h.081l.084.021c.053 0 .123-.049.211-.143a.424.424 0 0 1 .334-.145c.027 0 .076.027.154.08 0 .016.007.021.021.021l.266-.08.319.021.4-.105a1.2 1.2 0 0 1 .666.186l.021-.043v-.059c0-.115.067-.176.196-.176.053 0 .089.014.103.041l.122.07h.074c.015 0 .102.043.267.123.102-.066.169-.102.196-.102.131 0 .231.057.31.166l.172-.021c.056-.057.091-.08.105-.08.038 0 .095.053.165.16l.059.021h.257c.014 0 .042.021.085.063l.111.092c.057.057.092.098.112.133s.045.066.074.092c.179-.074.273-.113.288-.113.065 0 .118.061.153.176 0 .096.061.189.18.281.119.096.179.193.179.295.15.066.229.176.229.326l.192.506-.038.172c.053.111.081.172.081.186l-.043.379.043.4c0 .215-.099.393-.299.545-.042 0-.108.031-.2.086a.633.633 0 0 1-.158.088c-.179 0-.298-.041-.357-.129a.746.746 0 0 0-.169-.189.196.196 0 0 1-.08-.166c0-.154.105-.309.319-.459.094 0 .161-.031.203-.094 0-.141-.031-.242-.091-.295a1.413 1.413 0 0 1-.2-.229 1.208 1.208 0 0 0-.231-.232.613.613 0 0 1-.2-.217c-.053-.092-.098-.133-.141-.133l-.144.018-.299-.061a3.541 3.541 0 0 1-.863-.217h-.196v.002zm17.619 7.404c.066-.043.104-.113.109-.211.015-.158.13-.295.341-.41l.123-.176c.104-.102.386-.234.845-.4.117-.07.197-.129.235-.186.015-.014.028-.021.043-.021l.164.043c.089 0 .204-.025.344-.074.142-.045.278-.07.407-.07l.432-.021c.028 0 .085.021.172.064a.78.78 0 0 0 .313.059c.15 0 .291.07.417.207s.189.264.189.379c0 .215-.108.428-.33.65-.222.217-.396.34-.526.367a1.252 1.252 0 0 1-.271.223.903.903 0 0 0-.189.143c-.066.066-.118.1-.161.1a.076.076 0 0 1-.06-.025.076.076 0 0 0-.063-.027c-.109 0-.232.137-.362.402l-.186-.021a.527.527 0 0 0-.225.246c-.035.092-.109.135-.218.135-.256.256-.428.381-.516.381a.854.854 0 0 1-.145-.041.331.331 0 0 0-.084.213c0 .086-.056.135-.165.145l-.133.127-.105-.021-.204.215a.595.595 0 0 0-.323.105c-.014.08-.031.186-.06.311a2.602 2.602 0 0 0-.041.211c0 .201.183.299.544.299l.494-.07a.68.68 0 0 0 .365-.105.71.71 0 0 1 .365-.102.615.615 0 0 0 .186-.043l.102.043a.704.704 0 0 1 .271-.277c.13-.08.232-.123.309-.123l.103-.059c.028-.084.066-.137.122-.166l.081-.074c.057-.051.108-.08.154-.08h.144l.042-.021c.085-.176.197-.279.344-.313.148-.031.243-.08.281-.146.036-.07.102-.109.2-.123a.37.37 0 0 0 .242-.141c.063-.076.145-.15.238-.221.099-.066.166-.119.204-.15.035-.035.07-.053.095-.053.042 0 .063.031.063.09 0 .064.014.096.041.096.028 0 .043-.014.043-.043a.349.349 0 0 0-.021-.102v-.072c0-.104.053-.17.165-.205l.46-.297c.014-.145.057-.229.119-.25a.45.45 0 0 0 .151-.084.153.153 0 0 1 .111-.045c.089 0 .134.053.134.154l-.052.266.054.272c0 .043-.031.098-.098.168a.793.793 0 0 0-.147.33c-.035.148-.081.229-.134.238h-.063c-.124.135-.222.207-.292.232a.317.317 0 0 0-.172.131l-.347.398a3.919 3.919 0 0 0-.176.188c-.046.053-.085.08-.113.08l-.08-.08c0-.016-.014-.021-.042-.021-.07 0-.112.039-.13.123a.48.48 0 0 1-.105.213c-.207.1-.34.188-.4.268l-.063.021h-.187c-.087 0-.151.066-.183.199-.034.133-.133.211-.294.232-.161.02-.274.063-.344.123a.259.259 0 0 1-.092.041c-.05.014-.144.066-.288.166l-.863.305a.399.399 0 0 1-.133.053l-.288.041c-.042 0-.081-.027-.122-.084-.043-.053-.071-.08-.081-.08l-.187.059a1.302 1.302 0 0 1-.39.064.457.457 0 0 1-.228-.074 3.91 3.91 0 0 0-.193-.102c-.2 0-.34-.154-.422-.463l-.119.022c-.028 0-.12-.242-.277-.73a.34.34 0 0 0-.196-.119c-.088-.025-.134-.092-.134-.201 0-.309.067-.516.2-.621s.207-.186.222-.242l.105-.393a.153.153 0 0 1-.071.031c-.158.242-.277.361-.358.361a.264.264 0 0 1-.14-.053.313.313 0 0 0-.098-.049c-.039 0-.074.082-.103.246-.042.063-.154.162-.337.299-.028 0-.077-.039-.147-.123 0-.014-.003-.021-.017-.021-.113 0-.18.063-.204.186-.021.123-.099.193-.229.207l-.414.07-.235-.018c-.056 0-.172.166-.354.502-.183.338-.296.512-.334.527a.682.682 0 0 0-.442.381l-.123.061-.073.145c-.028.076-.095.115-.207.115-.011 0-.127.039-.337.123-.214.08-.39.123-.526.123l-.28.021a.963.963 0 0 1-.492-.141 1.504 1.504 0 0 1-.34-.25c-.07-.076-.165-.301-.285-.68-.118-.377-.179-.604-.179-.678 0-.268.074-.414.218-.443 0-.041-.035-.119-.098-.23a.968.968 0 0 1-.099-.189c0-.426.092-.756.277-.99a4.2 4.2 0 0 1-.123-.441c0-.016.018-.07.049-.168.036-.1.061-.189.074-.275a.705.705 0 0 1 .063-.203l.018-.176c.015-.08.067-.123.154-.123.043 0 .063-.027.063-.084v-.08l-.021-.133c0-.193.049-.33.147-.418a.647.647 0 0 0 .192-.379c.028-.168.07-.273.12-.316.049-.039.084-.113.111-.215l.148-.287.115-.383a.17.17 0 0 1 .122-.145c.071-.016.106-.049.106-.09l-.021-.123c.057-.145.092-.246.112-.309.021-.064.084-.113.186-.154.096-.232.18-.396.253-.496.07-.094.127-.203.168-.326.043-.125.145-.244.31-.361.015-.027.042-.098.088-.211.046-.111.102-.174.168-.189.07-.014.105-.041.105-.084l-.042-.08c0-.057.053-.154.154-.299l.123-.229a.674.674 0 0 1 .207-.154c.095-.189.218-.381.368-.574.151-.189.281-.396.39-.619.158-.182.306-.314.442-.398l.341-.422c.08-.172.164-.256.246-.256.129-.246.29-.408.483-.484.035-.014.134-.088.295-.221.158-.135.302-.201.425-.201.108 0 .249.119.421.361.172.238.256.443.256.604a.425.425 0 0 1-.066.184c-.042.076-.07.16-.077.246s-.046.326-.123.725c-.073.398-.141.625-.192.678l-.277.533c-.028.084-.061.135-.096.148-.034.014-.073.066-.122.16l.053.219h-.021c-.077.08-.154.234-.238.463-.108.166-.204.32-.281.467-.08.148-.119.246-.119.295l-.06.145c-.151.225-.252.406-.298.543a.525.525 0 0 0-.161.229.502.502 0 0 1-.148.211c-.063.041-.102.119-.119.23-.018.109-.035.172-.057.193l-.207-.021v.021l.021.299c0 .027-.031.059-.098.096-.063.031-.12.104-.168.221a.302.302 0 0 1-.257.189c-.063.041-.103.08-.112.123l.038.195a2.93 2.93 0 0 0-.157.215c-.095.129-.151.199-.172.207l-.215.021c-.042.014-.063.133-.063.357 0 .15-.066.256-.203.309-.358.551-.565.854-.621.916-.06.063-.172.109-.337.145 0 .014-.015.02-.039.02-.069 0-.217-.098-.441-.297h-.021c-.091.396-.161.625-.214.678a.262.262 0 0 0-.077.186l.102.186v.031c0 .189-.035.428-.102.709v.061l.042.217v.379l-.021.229a.543.543 0 0 1 .081.256c0 .221.056.33.169.33.056 0 .14-.07.256-.207l.123-.061c.122-.055.242-.178.354-.371.116-.193.172-.357.172-.494 0-.145-.141-.219-.422-.219-.137-.027-.207-.176-.207-.441 0-.127.053-.234.155-.338.102-.098.192-.203.266-.313.166-.256.342-.381.527-.381l.522-.188c.057 0 .109.012.158.033.053.02.119.041.203.068.218-.08.33-.121.338-.121.241 0 .399.121.483.371 0 .045.057.07.165.07a.863.863 0 0 0 .601-.221c.161-.148.333-.268.516-.361.18-.092.326-.188.441-.289.113-.098.183-.146.211-.146h.155c.014 0 .052-.047.122-.135.067-.09.193-.133.38-.133.07 0 .102.029.102.082l-.001.094zm1.787-.396l-.123.063a2.527 2.527 0 0 0-.242.18 2.281 2.281 0 0 1-.39.256c-.129.066-.259.234-.393.512-.134.275-.2.432-.2.471 0 .043.021.063.063.063l.347-.154c.13-.063.253-.141.365-.234a4.64 4.64 0 0 1 .492-.352l.08-.08c.014-.027.077-.078.189-.15.112-.074.196-.145.252-.211l.103-.043c.115-.186.235-.297.354-.34.119-.039.183-.08.183-.123 0-.08-.067-.123-.196-.123-.057 0-.137.035-.246.102h-.239c-.027 0-.102.043-.224.123l-.175.04zm-2.836-7.43v-.123c-.157.043-.271.189-.34.443l-.081.08a.865.865 0 0 0-.309.348c-.077.146-.2.326-.372.539l-.039.123-.238.299-.039.193a.53.53 0 0 1-.154.133.463.463 0 0 0-.182.254c-.028.107-.106.234-.225.381-.12.148-.204.246-.246.299-.046.049-.126.234-.242.551l-.063.101c0 .061-.035.113-.102.154l-.379.463c0 .025-.015.127-.043.299-.101.016-.168.053-.196.123l-.165.379a.355.355 0 0 1-.102.145c-.087.33-.217.568-.379.719l-.238.484a.693.693 0 0 0-.06.229l-.021.061c-.084.156-.122.277-.122.361 0 .027-.007.111-.021.256h.021c.011 0 .038-.018.08-.053.042-.031.095-.074.165-.115a.501.501 0 0 0 .165-.254.444.444 0 0 1 .2-.264.437.437 0 0 0 .179-.156l.618-.826c.041-.053.098-.115.168-.189.073-.07.108-.129.108-.168l.081-.145c.042-.041.112-.119.215-.229.098-.107.175-.182.228-.223.056-.043.088-.105.095-.197a.578.578 0 0 1 .112-.277l.042-.084a2.17 2.17 0 0 1 .183-.193.224.224 0 0 0 .084-.133c.008-.049.084-.137.235-.268.015-.105.094-.27.242-.502.147-.227.26-.434.334-.621.076-.186.15-.313.221-.385.073-.07.119-.201.14-.387l.103-.166.319-.883-.053-.215.073-.361zm-8.471 9.58l.162-.143c.101 0 .164-.047.182-.141.021-.092.095-.166.222-.221.126-.053.241-.166.351-.334.108-.168.222-.252.337-.252.042 0 .088.035.144.102.053.07.081.123.081.164 0 .229-.07.461-.207.699l-.039.287-.073.137a.463.463 0 0 0-.2.172c-.031.064-.112.137-.242.229l-.102.145c-.151.049-.252.125-.302.234-.053.111-.123.172-.218.186-.091.014-.193.082-.302.207-.07.031-.151.064-.246.092l-.021.102a.757.757 0 0 1-.326.166c-.145.041-.257.08-.327.119a.417.417 0 0 1-.15.055.797.797 0 0 1-.357-.076 1.08 1.08 0 0 0-.341-.098.246.246 0 0 1-.07-.135.488.488 0 0 0-.105-.189.514.514 0 0 1-.091-.322l.042-.197c0-.023-.018-.059-.053-.102-.035-.039-.053-.072-.053-.102 0-.027.007-.049.021-.063.014-.012.021-.031.021-.061a.32.32 0 0 0-.021-.111.327.327 0 0 1-.021-.102l.063-.506c0-.043-.014-.061-.042-.061-.025 0-.077.033-.147.102a.354.354 0 0 1-.253.102c-.057.043-.098.131-.133.262a1.054 1.054 0 0 1-.208.186l-.042.059c-.014.051-.063.088-.154.119-.088.033-.15.07-.183.121l-.105.102-.196-.021a2.54 2.54 0 0 0-.112.178.78.78 0 0 1-.235.264l-.782.639a4.573 4.573 0 0 1-.361.207l-.063.061c-.547.365-.937.547-1.161.547-.187 0-.404-.053-.65-.154-.245-.102-.378-.225-.399-.373l-.105-.42a.752.752 0 0 1-.091-.4.41.41 0 0 1 .021-.164v-.064l-.021-.336c0-.084.066-.127.196-.127l-.021-.277c0-.027.061-.133.18-.322s.2-.299.241-.326l.103-.135c-.007-.08.042-.168.144-.262.105-.092.187-.186.25-.281.063-.098.179-.203.351-.318l.309-.311c.242-.242.506-.432.786-.574.042-.016.127-.084.253-.207s.273-.215.436-.275c.161-.055.318-.129.474-.221.154-.088.276-.133.364-.133h.084c.028 0 .211-.084.548-.256h.06c.028 0 .096.027.196.08h.021l.165-.08a.234.234 0 0 1 .105-.021c.425 0 .659.295.701.881.015.123.05.186.103.186.069 0 .168-.125.294-.375.127-.25.397-.375.808-.375.295 0 .442.189.442.564 0 .445-.196.871-.593 1.268a.667.667 0 0 0-.063.186l-.144.42v.021c0 .039-.028.1-.088.168-.06.074-.088.139-.088.191l.021.26-.043.287c0 .129.025.215.074.256.218-.057.376-.146.474-.273.099-.127.168-.197.207-.211l.103-.041a.805.805 0 0 1 .21-.264zm-3.414.004a.471.471 0 0 1 .249-.344c.14-.078.224-.158.252-.242.131-.094.316-.266.558-.512.243-.246.362-.396.362-.453 0-.018-.014-.027-.039-.027h-.021l-.085.049-.183-.021-.196.021-.14-.07-.133.021-.208-.043a.554.554 0 0 0-.281.066 1.852 1.852 0 0 1-.449.148c-.224.055-.424.15-.6.283-.18.133-.309.201-.39.201-.049.102-.207.248-.48.441-.165.053-.271.172-.32.357-.175.145-.266.225-.266.246l-.07.176a.658.658 0 0 1-.207.119c-.081.027-.13.102-.145.215a.616.616 0 0 1-.136.309c-.081.09-.12.164-.12.221 0 .334.066.502.196.502.053 0 .169-.035.344-.109.176-.07.274-.119.303-.146a.395.395 0 0 1 .165-.084l.192-.104a.197.197 0 0 1 .092-.049.214.214 0 0 0 .104-.066.653.653 0 0 1 .183-.127.465.465 0 0 0 .207-.178c.116-.066.303-.172.562-.316l.214-.164c.151-.07.242-.127.278-.176a.53.53 0 0 1 .208-.144zM69.3 90.744l-.148-.021a.7.7 0 0 1-.279.092c-.096.006-.239.068-.436.189a5.427 5.427 0 0 1-.675.344c-.255.111-.382.182-.382.217a4.375 4.375 0 0 0 1.053-.277l.74-.207a.708.708 0 0 0 .204-.08c.035-.029.109-.066.221-.113l.165-.125.225-.082c.12-.041.176-.08.176-.123 0-.027-.015-.041-.039-.041-.248 0-.445.037-.59.111a1.82 1.82 0 0 1-.235.116zm-16.551-4.191l.214-.176c.165-.01.257-.098.267-.256.015-.158.13-.295.341-.41l.122-.176c.106-.102.387-.234.847-.4a.78.78 0 0 0 .235-.186c.014-.014.027-.021.042-.021l.165.043c.087 0 .203-.025.344-.074.14-.045.277-.07.406-.07l.433-.021c.028 0 .084.021.172.064a.776.776 0 0 0 .313.059c.15 0 .291.07.417.207.127.137.189.264.189.379 0 .215-.108.428-.33.65-.221.217-.396.34-.525.367a1.302 1.302 0 0 1-.271.223.832.832 0 0 0-.189.143c-.067.066-.119.1-.162.1-.024 0-.046-.008-.06-.025s-.035-.027-.063-.027c-.109 0-.231.137-.362.402l-.186-.021a.527.527 0 0 0-.225.246c-.035.092-.108.135-.218.135-.256.256-.428.381-.516.381a.83.83 0 0 1-.144-.041.327.327 0 0 0-.085.213c0 .086-.056.135-.165.145l-.133.127-.105-.021-.204.215a.59.59 0 0 0-.322.105c-.014.08-.032.186-.06.311a2.388 2.388 0 0 0-.042.211c0 .201.183.299.544.299l.494-.07a.677.677 0 0 0 .365-.105.715.715 0 0 1 .365-.102.62.62 0 0 0 .187-.043l.102.043a.684.684 0 0 1 .271-.277c.129-.08.231-.123.308-.123l.103-.059c.028-.084.066-.137.123-.166l.081-.074c.055-.051.108-.08.154-.08h.144l.042-.021c.084-.176.196-.279.344-.313.147-.031.242-.08.281-.146.035-.07.101-.109.2-.123a.37.37 0 0 0 .241-.141c.063-.076.145-.15.238-.221.099-.066.165-.119.204-.15.035-.035.07-.053.095-.053.043 0 .063.031.063.09 0 .064.014.096.042.096.027 0 .042-.014.042-.043a.319.319 0 0 0-.021-.102v-.072c0-.104.054-.17.165-.205l.46-.297c.014-.145.057-.229.119-.25a.45.45 0 0 0 .151-.084.154.154 0 0 1 .112-.045c.088 0 .133.053.133.154l-.052.266.052.277c0 .043-.031.098-.098.168a.793.793 0 0 0-.147.33c-.035.148-.081.229-.134.238H58.6c-.123.135-.221.207-.292.232a.321.321 0 0 0-.172.131l-.347.398a3.919 3.919 0 0 0-.176.188c-.046.053-.084.08-.112.08l-.08-.08c0-.016-.015-.021-.043-.021-.07 0-.112.039-.13.123a.48.48 0 0 1-.105.213c-.207.1-.34.188-.4.268l-.063.021h-.187c-.087 0-.15.066-.183.199-.035.133-.133.211-.294.232-.162.02-.274.063-.345.123a.243.243 0 0 1-.091.041 1.258 1.258 0 0 0-.288.166l-.862.305a.403.403 0 0 1-.135.053l-.287.041c-.042 0-.081-.027-.123-.084-.041-.053-.069-.08-.08-.08l-.187.059a1.302 1.302 0 0 1-.39.064.457.457 0 0 1-.228-.074 3.91 3.91 0 0 0-.193-.102c-.2 0-.34-.154-.421-.463l-.121.017c-.028 0-.119-.242-.277-.73a.34.34 0 0 0-.196-.119c-.088-.025-.133-.092-.133-.201 0-.309.065-.516.2-.621.133-.105.206-.186.221-.242l.144-.533c.028-.02.063-.092.102-.207l.239-.432.184-.362zm2.158-.617l-.123.063a2.527 2.527 0 0 0-.242.18 2.281 2.281 0 0 1-.39.256c-.129.066-.26.234-.393.512-.133.275-.2.432-.2.471 0 .043.021.063.063.063l.348-.154a1.82 1.82 0 0 0 .364-.234 4.64 4.64 0 0 1 .492-.352l.08-.08c.014-.027.077-.078.189-.15.113-.074.196-.145.253-.211l.102-.043c.116-.186.235-.297.354-.34.119-.039.183-.08.183-.123 0-.08-.067-.123-.196-.123-.057 0-.137.035-.246.102h-.238c-.028 0-.102.043-.226.123l-.174.04zm-13.086.648l.144.064a.417.417 0 0 1 .193-.299h.084c.067 0 .158-.096.267-.281l.176-.102a.275.275 0 0 0 .123.021c.042 0 .081-.027.119-.08.035-.057.13-.162.281-.32h.042c.042 0 .091-.031.148-.096a.317.317 0 0 1 .231-.09l.351-.092c.108-.027.172-.041.186-.041.06-.021.21.104.453.375.239.27.358.529.358.783 0 .143-.074.23-.225.256l-.053.041v.207l-.175.379c-.046.102-.105.166-.176.193-.06.109-.105.186-.133.229l-.145.019-.06.063v.256c-.063.082-.151.264-.267.541-.119.273-.175.453-.175.527 0 .129.028.195.081.195a.185.185 0 0 0 .123-.053c.042-.035.098-.072.172-.119a.563.563 0 0 0 .158-.137c.035-.049.105-.092.217-.129a.818.818 0 0 0 .309-.211c.095-.102.165-.172.203-.207a.838.838 0 0 0 .137-.137c.045-.061.077-.088.091-.088a.726.726 0 0 0 .196-.043c.014-.072.028-.129.039-.164l.25-.123.596-.533.084-.102a1.3 1.3 0 0 0 .203-.064c.057-.186.148-.318.277-.398 0-.029.035-.051.105-.064a.748.748 0 0 1 .211-.26.865.865 0 0 0 .211-.242l.238-.195a.293.293 0 0 0 .145-.123c.354-.316.575-.496.663-.541.084-.045.224-.066.417-.066s.348.072.467.221c.123.146.253.26.394.334.14.076.21.221.21.432 0 .199-.154.578-.463 1.141-.2.59-.302.951-.309 1.084-.008.133-.039.211-.092.232-.057.02-.084.045-.084.068v.043c0 .164.027.246.084.246.039 0 .099-.031.169-.102.073-.066.218-.145.435-.225l.092.018c.199-.303.333-.465.4-.488a.453.453 0 0 0 .203-.184c.07-.102.15-.152.253-.16.098-.008.161-.025.186-.049.008-.166.144-.352.404-.559.263-.203.414-.309.456-.309.066 0 .122.053.165.154.038.105.08.176.126.211.046.037.067.07.067.098v.186c0 .088-.047.148-.135.176-.065.15-.129.238-.186.268l-.183-.021c-.035.041-.063.08-.087.111-.025.035-.039.051-.046.043-.057.014-.154.105-.292.273a6.21 6.21 0 0 1-.375.414l-.042.063a.43.43 0 0 1-.154.082l-.183.154c-.07-.039-.108-.061-.123-.061s-.042.029-.088.082c-.046.055-.134.125-.267.211s-.234.186-.302.295l-.165.164-.214.027c-.021 0-.056.031-.105.096l-.183.234c-.091.115-.229.176-.421.176-.042 0-.095-.035-.157-.109-.067-.07-.127-.133-.188-.182-.055-.053-.186-.207-.389-.463s-.302-.395-.302-.408l.06-.357-.021-.25c0-.045.035-.119.099-.221a1.03 1.03 0 0 0 .099-.158l-.021-.4a.26.26 0 0 0 .043-.063l.143-.234a1.147 1.147 0 0 1-.021-.225l.042-.342c-.123.057-.231.166-.326.334-.092.168-.215.252-.365.252-.13.232-.229.348-.299.342a.344.344 0 0 0-.059.08l-.145.08-.175-.018-.063.258c-.147.08-.246.154-.291.221a.97.97 0 0 1-.21.199l-.176.166h-.165c-.028.186-.133.336-.319.463l-.081.102-.186-.021c-.066.221-.154.355-.256.4-.116 0-.277.109-.477.32-.204.213-.344.318-.428.318-.597 0-1.078-.371-1.45-1.119a1.443 1.443 0 0 0-.098-.15.663.663 0 0 1-.077-.352c0-.268.039-.445.108-.543.074-.096.165-.275.277-.537.112-.264.197-.381.253-.346a.268.268 0 0 0 .021-.121c.109-.131.165-.229.165-.299 0-.029-.014-.039-.042-.039a.368.368 0 0 0-.123.061l-.144.063c-.063.014-.109.039-.133.08a.404.404 0 0 1-.147.119c-.067.039-.123.07-.165.1h-.028c-.042-.043-.07-.064-.084-.064a.791.791 0 0 1-.102.207l-.126.018c-.15.158-.245.238-.288.238a.59.59 0 0 1-.186-.072c-.095-.047-.144-.096-.144-.145l.074-.4v-.186c0-.014.024-.039.081-.08.014 0 .067-.074.165-.221.096-.15.209-.224.342-.224zm-9.585 3.002h.042l.298-.084c.011 0 .039.006.081.02a1.28 1.28 0 0 1 .333-.123.953.953 0 0 0 .351-.15c.105-.07.263-.16.478-.27a.995.995 0 0 0 .382-.186c.112-.092.172-.139.186-.139a.513.513 0 0 1 .158-.066.725.725 0 0 0 .281-.176c.102-.09.207-.156.309-.199l.509-.309h.063c.035 0 .123-.096.26-.277l.123-.127.189-.039.113.018c.028 0 .066-.072.116-.221.049-.146.151-.221.312-.221a.519.519 0 0 1 .144-.168c.056-.045.084-.088.084-.131 0-.027-.014-.041-.042-.041l-.147.063h-.039c-.105 0-.242-.084-.407-.252a.724.724 0 0 0-.28-.08c-.028 0-.218.027-.569.08a.935.935 0 0 1-.407.094c-.144 0-.274.074-.383.225a1.647 1.647 0 0 0-.407.127l-.123.172c-.049 0-.147.035-.302.105-.151.158-.271.238-.365.246-.091.006-.298.172-.621.494l-.196.166c-.123.014-.183.076-.183.191a.246.246 0 0 1-.084.197.663.663 0 0 0-.154.246l-.204.309-.063.318c-.001.123.055.188.164.188zm1.804 6.779l-.021.277c0 .057-.014.129-.039.229a.847.847 0 0 0-.042.213c0 .139.028.207.081.207.014 0 .028-.006.042-.02.186 0 .453-.373.804-1.119.109-.18.207-.293.298-.33a5.9 5.9 0 0 1 .158-.449c.091-.242.151-.414.179-.51l.123-.432c.042-.145.119-.365.228-.66l.204-.965c.077-.33.116-.59.116-.783 0-.242-.07-.48-.207-.719-.035.014-.053.035-.053.07l.053.309c0 .115-.063.225-.197.32-.011 0-.021.014-.028.041-.007.029-.074.211-.2.551-.13.338-.267.51-.417.51l.021.287c0 .027-.06.084-.175.176l.042.184c-.119.256-.189.447-.211.582a.814.814 0 0 1-.144.344c-.074.098-.13.234-.172.414a4 4 0 0 1-.267.709l-.052.207c-.068.072-.11.193-.124.357z"/><path fill="#FFF" d="M28.889 52.787c.254 0 .608.107 1.062.321.453.215.898.585 1.336 1.109.437.525.815 1.229 1.133 2.111.318.883.477 1.984.477 3.305 0 1.145-.199 2.373-.597 3.686-.397 1.312-.942 2.651-1.634 4.02s-1.503 2.731-2.434 4.091a46.15 46.15 0 0 1-2.994 3.913 42.341 42.341 0 0 1-3.34 3.494c-1.161 1.082-2.314 2.024-3.459 2.827s-2.259 1.436-3.34 1.896c-1.082.461-2.076.7-2.982.716h-.096c-.271 0-.577-.092-.918-.274-.342-.183-.668-.461-.978-.835s-.572-.847-.787-1.419c-.215-.573-.322-1.257-.322-2.052 0-.445.1-.994.298-1.646.199-.651.465-1.371.799-2.159.334-.787.715-1.626 1.145-2.517.429-.891.875-1.797 1.336-2.72l1.372-2.839c.453-.938.859-1.828 1.217-2.672.358-.843.647-1.613.871-2.313.223-.7.334-1.288.334-1.766 0-.604-.247-.906-.74-.906-.763 0-1.578.23-2.445.691-.867.462-1.722 1.074-2.564 1.837a23.374 23.374 0 0 0-2.445 2.601c-.788.971-1.475 1.965-2.063 2.982s-1.062 2.016-1.419 2.993c-.358.979-.537 1.857-.537 2.637 0 .763.036 1.403.107 1.92.072.518.159.946.263 1.288.104.343.214.617.334.823.119.207.227.366.322.478.08.127.151.25.215.369s.095.251.095.394c0 .191-.099.354-.298.489-.199.136-.473.203-.823.203s-.775-.092-1.276-.274-.981-.521-1.443-1.014C1.21 78.082.817 77.406.49 76.547.163 75.688 0 74.583 0 73.231c0-1.129.219-2.274.656-3.436a15.017 15.017 0 0 1 1.801-3.363 18.162 18.162 0 0 1 2.708-3.03 20.28 20.28 0 0 1 3.364-2.457 18.032 18.032 0 0 1 3.781-1.658c1.32-.405 2.64-.608 3.96-.608.588 0 1.085.092 1.491.274.406.184.735.422.99.716.254.295.449.616.584.967.135.35.23.695.286 1.037.056.343.087.656.095.942.008.286.012.501.012.645 0 .604-.116 1.292-.346 2.063s-.529 1.578-.895 2.421a43.61 43.61 0 0 1-1.229 2.589c-.453.882-.903 1.737-1.348 2.564-.414.747-.819 1.507-1.217 2.278s-.76 1.515-1.085 2.23a18.403 18.403 0 0 0-.787 2.004c-.199.62-.298 1.153-.298 1.598 0 .461.024.791.072.99.047.199.095.361.143.489.477-.08 1.069-.354 1.777-.823s1.479-1.081 2.314-1.837c.835-.755 1.709-1.638 2.624-2.647s1.809-2.092 2.684-3.245a53.64 53.64 0 0 0 2.505-3.602 35.28 35.28 0 0 0 2.087-3.746 24.484 24.484 0 0 0 1.419-3.661c.35-1.193.525-2.307.525-3.34 0-1.399-.08-2.529-.238-3.388-.159-.859-.303-1.495-.43-1.908a7.77 7.77 0 0 1-.119-.441 1.486 1.486 0 0 1-.048-.322c0-.286.08-.481.239-.585.16-.102.43-.154.812-.154z"/><path fill-rule="evenodd" clip-rule="evenodd" fill="#BF000A" d="M80.908.67a4.732 4.732 0 1 1-.003 9.465A4.732 4.732 0 0 1 80.908.67zM50.872 13.951C74.861 3.332 73.896 32.95 54.931 45.524c-.773.513-1.422.813-1.943.9a4.557 4.557 0 0 1-.156-.535c-.053-.218-.079-.578-.079-1.083 0-.486.109-1.069.327-1.748.217-.678.503-1.409.86-2.191.764-1.676 1.626-3.32 2.518-4.932.487-.904.979-1.839 1.474-2.805.497-.965.917-1.921 1.345-2.83 4.073-8.677 1.078-11.658-6.758-9.25 5.976-1.278 4.656 2.842 3.145 6.406a67.715 67.715 0 0 1-1.331 2.922c-2.124 4.396-7.534 12.772-4.2 16.789.338.409.695.713 1.068.913.375.2.71.3 1.005.3h.104a7.456 7.456 0 0 0 3.262-.782c27.091-13.606 25.422-50.776-4.7-33.647z"/><path fill-rule="evenodd" clip-rule="evenodd" fill="#BF000A" d="M54.869 19.41c-20.376-16.432-29.591 9.091-6.558 26.72-35.26-23.575-15.797-50.184 6.558-26.72z"/></svg>0.109-0.035,0.172-0.057,0.193l-0.207-0.021
	v0.021l0.021,0.299c0,0.027-0.031,0.059-0.098,0.096c-0.063,0.031-0.12,0.104-0.168,0.221c-0.05,0.111-0.135,0.176-0.257,0.189
	c-0.063,0.041-0.103,0.08-0.112,0.123l0.038,0.195c-0.014,0.014-0.066,0.084-0.157,0.215c-0.095,0.129-0.151,0.199-0.172,0.207
	l-0.215,0.021c-0.042,0.014-0.063,0.133-0.063,0.357c0,0.15-0.066,0.256-0.203,0.309c-0.358,0.551-0.565,0.854-0.621,0.916
	c-0.06,0.063-0.172,0.109-0.337,0.145c0,0.014-0.015,0.02-0.039,0.02c-0.069,0-0.217-0.098-0.441-0.297h-0.021
	c-0.091,0.396-0.161,0.625-0.214,0.678c-0.053,0.055-0.077,0.119-0.077,0.186l0.102,0.186v0.031c0,0.189-0.035,0.428-0.102,0.709
	v0.061l0.042,0.217v0.379l-0.021,0.229c0.053,0.094,0.081,0.182,0.081,0.256c0,0.221,0.056,0.33,0.169,0.33
	c0.056,0,0.14-0.07,0.256-0.207l0.123-0.061c0.122-0.055,0.242-0.178,0.354-0.371c0.116-0.193,0.172-0.357,0.172-0.494
	c0-0.145-0.141-0.219-0.422-0.219c-0.137-0.027-0.207-0.176-0.207-0.441c0-0.127,0.053-0.234,0.155-0.338
	c0.102-0.098,0.192-0.203,0.266-0.313c0.166-0.256,0.342-0.381,0.527-0.381l0.522-0.188c0.057,0,0.109,0.012,0.158,0.033
	c0.053,0.02,0.119,0.041,0.203,0.068c0.218-0.08,0.33-0.121,0.338-0.121c0.241,0,0.399,0.121,0.483,0.371
	c0,0.045,0.057,0.07,0.165,0.07c0.239,0,0.438-0.074,0.601-0.221c0.161-0.148,0.333-0.268,0.516-0.361
	c0.18-0.092,0.326-0.188,0.441-0.289c0.113-0.098,0.183-0.146,0.211-0.146h0.155c0.014,0,0.052-0.047,0.122-0.135
	c0.067-0.09,0.193-0.133,0.38-0.133c0.07,0,0.102,0.029,0.102,0.082L94.079,86.332L94.079,86.332z M95.866,85.936l-0.123,0.063
	c-0.028,0.014-0.108,0.074-0.242,0.18c-0.133,0.105-0.263,0.193-0.39,0.256c-0.129,0.066-0.259,0.234-0.393,0.512
	c-0.134,0.275-0.2,0.432-0.2,0.471c0,0.043,0.021,0.063,0.063,0.063l0.347-0.154c0.13-0.063,0.253-0.141,0.365-0.234
	c0.116-0.098,0.277-0.215,0.492-0.352l0.08-0.08c0.014-0.027,0.077-0.078,0.189-0.15c0.112-0.074,0.196-0.145,0.252-0.211
	l0.103-0.043c0.115-0.186,0.235-0.297,0.354-0.34c0.119-0.039,0.183-0.08,0.183-0.123c0-0.08-0.067-0.123-0.196-0.123
	c-0.057,0-0.137,0.035-0.246,0.102h-0.239c-0.027,0-0.102,0.043-0.224,0.123L95.866,85.936L95.866,85.936z M93.03,78.506v-0.123
	c-0.157,0.043-0.271,0.189-0.34,0.443l-0.081,0.08c-0.13,0.084-0.235,0.199-0.309,0.348c-0.077,0.146-0.2,0.326-0.372,0.539
	l-0.039,0.123l-0.238,0.299l-0.039,0.193c-0.014,0.027-0.066,0.074-0.154,0.133c-0.091,0.064-0.15,0.148-0.182,0.254
	c-0.028,0.107-0.106,0.234-0.225,0.381c-0.12,0.148-0.204,0.246-0.246,0.299c-0.046,0.049-0.126,0.234-0.242,0.551L90.5,82.127
	c0,0.061-0.035,0.113-0.102,0.154l-0.379,0.463c0,0.025-0.015,0.127-0.043,0.299c-0.101,0.016-0.168,0.053-0.196,0.123l-0.165,0.379
	c-0.014,0.043-0.045,0.092-0.102,0.145c-0.087,0.33-0.217,0.568-0.379,0.719l-0.238,0.484c-0.028,0.057-0.049,0.131-0.06,0.229
	l-0.021,0.061c-0.084,0.156-0.122,0.277-0.122,0.361c0,0.027-0.007,0.111-0.021,0.256h0.021c0.011,0,0.038-0.018,0.08-0.053
	c0.042-0.031,0.095-0.074,0.165-0.115c0.066-0.047,0.123-0.131,0.165-0.254c0.038-0.123,0.108-0.211,0.2-0.264
	c0.091-0.049,0.15-0.104,0.179-0.156l0.618-0.826c0.041-0.053,0.098-0.115,0.168-0.189c0.073-0.07,0.108-0.129,0.108-0.168
	l0.081-0.145c0.042-0.041,0.112-0.119,0.215-0.229c0.098-0.107,0.175-0.182,0.228-0.223c0.056-0.043,0.088-0.105,0.095-0.197
	c0.007-0.088,0.046-0.182,0.112-0.277l0.042-0.084c0.074-0.088,0.137-0.15,0.183-0.193c0.049-0.041,0.077-0.088,0.084-0.133
	c0.008-0.049,0.084-0.137,0.235-0.268c0.015-0.105,0.094-0.27,0.242-0.502c0.147-0.227,0.26-0.434,0.334-0.621
	c0.076-0.186,0.15-0.313,0.221-0.385c0.073-0.07,0.119-0.201,0.14-0.387l0.103-0.166l0.319-0.883l-0.053-0.215L93.03,78.506
	L93.03,78.506z M84.559,88.086l0.162-0.143c0.101,0,0.164-0.047,0.182-0.141c0.021-0.092,0.095-0.166,0.222-0.221
	c0.126-0.053,0.241-0.166,0.351-0.334c0.108-0.168,0.222-0.252,0.337-0.252c0.042,0,0.088,0.035,0.144,0.102
	c0.053,0.07,0.081,0.123,0.081,0.164c0,0.229-0.07,0.461-0.207,0.699l-0.039,0.287l-0.073,0.137c-0.102,0.053-0.168,0.113-0.2,0.172
	c-0.031,0.064-0.112,0.137-0.242,0.229l-0.102,0.145c-0.151,0.049-0.252,0.125-0.302,0.234c-0.053,0.111-0.123,0.172-0.218,0.186
	c-0.091,0.014-0.193,0.082-0.302,0.207c-0.07,0.031-0.151,0.064-0.246,0.092l-0.021,0.102c-0.07,0.07-0.179,0.123-0.326,0.166
	c-0.145,0.041-0.257,0.08-0.327,0.119c-0.073,0.037-0.122,0.055-0.15,0.055c-0.13,0-0.249-0.023-0.357-0.076
	c-0.109-0.053-0.226-0.084-0.341-0.098c-0.038-0.039-0.063-0.086-0.07-0.135c-0.007-0.045-0.042-0.107-0.105-0.189
	c-0.06-0.076-0.091-0.186-0.091-0.322l0.042-0.197c0-0.023-0.018-0.059-0.053-0.102c-0.035-0.039-0.053-0.072-0.053-0.102
	c0-0.027,0.007-0.049,0.021-0.063c0.014-0.012,0.021-0.031,0.021-0.061c0-0.035-0.007-0.074-0.021-0.111
	c-0.015-0.043-0.021-0.078-0.021-0.102l0.063-0.506c0-0.043-0.014-0.061-0.042-0.061c-0.025,0-0.077,0.033-0.147,0.102
	c-0.074,0.07-0.158,0.102-0.253,0.102c-0.057,0.043-0.098,0.131-0.133,0.262c-0.057,0.066-0.124,0.129-0.208,0.186l-0.042,0.059
	c-0.014,0.051-0.063,0.088-0.154,0.119c-0.088,0.033-0.15,0.07-0.183,0.121l-0.105,0.102l-0.196-0.021
	c-0.011,0.014-0.049,0.072-0.112,0.178c-0.06,0.109-0.14,0.197-0.235,0.264l-0.782,0.639c-0.085,0.057-0.204,0.123-0.361,0.207
	l-0.063,0.061c-0.547,0.365-0.937,0.547-1.161,0.547c-0.187,0-0.404-0.053-0.65-0.154c-0.245-0.102-0.378-0.225-0.399-0.373
	l-0.105-0.42c-0.06-0.096-0.091-0.229-0.091-0.4c0-0.084,0.007-0.137,0.021-0.164v-0.064l-0.021-0.336
	c0-0.084,0.066-0.127,0.196-0.127l-0.021-0.277c0-0.027,0.061-0.133,0.18-0.322s0.2-0.299,0.241-0.326l0.103-0.135
	c-0.007-0.08,0.042-0.168,0.144-0.262c0.105-0.092,0.187-0.186,0.25-0.281c0.063-0.098,0.179-0.203,0.351-0.318l0.309-0.311
	c0.242-0.242,0.506-0.432,0.786-0.574c0.042-0.016,0.127-0.084,0.253-0.207s0.273-0.215,0.436-0.275
	c0.161-0.055,0.318-0.129,0.474-0.221c0.154-0.088,0.276-0.133,0.364-0.133h0.084c0.028,0,0.211-0.084,0.548-0.256h0.06
	c0.028,0,0.096,0.027,0.196,0.08h0.021l0.165-0.08c0.028-0.014,0.063-0.021,0.105-0.021c0.425,0,0.659,0.295,0.701,0.881
	c0.015,0.123,0.05,0.186,0.103,0.186c0.069,0,0.168-0.125,0.294-0.375c0.127-0.25,0.397-0.375,0.808-0.375
	c0.295,0,0.442,0.189,0.442,0.564c0,0.445-0.196,0.871-0.593,1.268c-0.028,0.055-0.05,0.115-0.063,0.186l-0.144,0.42v0.021
	c0,0.039-0.028,0.1-0.088,0.168c-0.06,0.074-0.088,0.139-0.088,0.191l0.021,0.26l-0.043,0.287c0,0.129,0.025,0.215,0.074,0.256
	c0.218-0.057,0.376-0.146,0.474-0.273c0.099-0.127,0.168-0.197,0.207-0.211l0.103-0.041C84.404,88.24,84.475,88.156,84.559,88.086
	L84.559,88.086z M81.145,88.09c0.024-0.15,0.108-0.262,0.249-0.344c0.14-0.078,0.224-0.158,0.252-0.242
	c0.131-0.094,0.316-0.266,0.558-0.512c0.243-0.246,0.362-0.396,0.362-0.453c0-0.018-0.014-0.027-0.039-0.027h-0.021l-0.085,0.049
	l-0.183-0.021l-0.196,0.021l-0.14-0.07l-0.133,0.021l-0.208-0.043c-0.109,0-0.203,0.021-0.281,0.066
	c-0.077,0.045-0.228,0.096-0.449,0.148c-0.224,0.055-0.424,0.15-0.6,0.283c-0.18,0.133-0.309,0.201-0.39,0.201
	c-0.049,0.102-0.207,0.248-0.48,0.441c-0.165,0.053-0.271,0.172-0.32,0.357c-0.175,0.145-0.266,0.225-0.266,0.246l-0.07,0.176
	c-0.057,0.049-0.123,0.088-0.207,0.119c-0.081,0.027-0.13,0.102-0.145,0.215c-0.014,0.111-0.06,0.213-0.136,0.309
	c-0.081,0.09-0.12,0.164-0.12,0.221c0,0.334,0.066,0.502,0.196,0.502c0.053,0,0.169-0.035,0.344-0.109
	c0.176-0.07,0.274-0.119,0.303-0.146c0.027-0.029,0.08-0.057,0.165-0.084l0.192-0.104c0.028-0.027,0.06-0.041,0.092-0.049
	c0.034-0.006,0.069-0.031,0.104-0.066c0.032-0.039,0.096-0.08,0.183-0.127c0.092-0.041,0.158-0.102,0.207-0.178
	c0.116-0.066,0.303-0.172,0.562-0.316l0.214-0.164c0.151-0.07,0.242-0.127,0.278-0.176C80.973,88.186,81.038,88.139,81.145,88.09
	L81.145,88.09z M69.3,90.744l-0.148-0.021c-0.094,0.053-0.189,0.084-0.279,0.092c-0.096,0.006-0.239,0.068-0.436,0.189
	c-0.197,0.121-0.422,0.234-0.675,0.344c-0.255,0.111-0.382,0.182-0.382,0.217c0.337-0.043,0.688-0.133,1.053-0.277l0.74-0.207
	c0.099-0.027,0.165-0.053,0.204-0.08c0.035-0.029,0.109-0.066,0.221-0.113l0.165-0.125c0.035-0.012,0.109-0.039,0.225-0.082
	c0.12-0.041,0.176-0.08,0.176-0.123c0-0.027-0.015-0.041-0.039-0.041c-0.248,0-0.445,0.037-0.59,0.111
	C69.391,90.705,69.311,90.744,69.3,90.744L69.3,90.744z M52.749,86.553l0.214-0.176c0.165-0.01,0.257-0.098,0.267-0.256
	c0.015-0.158,0.13-0.295,0.341-0.41l0.122-0.176c0.106-0.102,0.387-0.234,0.847-0.4c0.116-0.07,0.196-0.129,0.235-0.186
	c0.014-0.014,0.027-0.021,0.042-0.021l0.165,0.043c0.087,0,0.203-0.025,0.344-0.074c0.14-0.045,0.277-0.07,0.406-0.07l0.433-0.021
	c0.028,0,0.084,0.021,0.172,0.064c0.084,0.037,0.189,0.059,0.313,0.059c0.15,0,0.291,0.07,0.417,0.207
	c0.127,0.137,0.189,0.264,0.189,0.379c0,0.215-0.108,0.428-0.33,0.65c-0.221,0.217-0.396,0.34-0.525,0.367
	c-0.117,0.117-0.207,0.189-0.271,0.223c-0.061,0.031-0.123,0.08-0.189,0.143c-0.067,0.066-0.119,0.1-0.162,0.1
	c-0.024,0-0.046-0.008-0.06-0.025s-0.035-0.027-0.063-0.027c-0.109,0-0.231,0.137-0.362,0.402l-0.186-0.021
	c-0.116,0.074-0.193,0.158-0.225,0.246c-0.035,0.092-0.108,0.135-0.218,0.135c-0.256,0.256-0.428,0.381-0.516,0.381
	c-0.015,0-0.063-0.014-0.144-0.041c-0.057,0.066-0.085,0.141-0.085,0.213c0,0.086-0.056,0.135-0.165,0.145l-0.133,0.127
	l-0.105-0.021l-0.204,0.215c-0.104,0-0.21,0.033-0.322,0.105c-0.014,0.08-0.032,0.186-0.06,0.311
	c-0.028,0.127-0.042,0.197-0.042,0.211c0,0.201,0.183,0.299,0.544,0.299l0.494-0.07c0.131,0,0.253-0.035,0.365-0.105
	c0.113-0.066,0.235-0.102,0.365-0.102c0.042,0,0.105-0.014,0.187-0.043l0.102,0.043c0.049-0.102,0.136-0.193,0.271-0.277
	c0.129-0.08,0.231-0.123,0.308-0.123l0.103-0.059c0.028-0.084,0.066-0.137,0.123-0.166l0.081-0.074
	c0.055-0.051,0.108-0.08,0.154-0.08h0.144l0.042-0.021c0.084-0.176,0.196-0.279,0.344-0.313c0.147-0.031,0.242-0.08,0.281-0.146
	c0.035-0.07,0.101-0.109,0.2-0.123c0.094-0.014,0.175-0.059,0.241-0.141c0.063-0.076,0.145-0.15,0.238-0.221
	c0.099-0.066,0.165-0.119,0.204-0.15c0.035-0.035,0.07-0.053,0.095-0.053c0.043,0,0.063,0.031,0.063,0.09
	c0,0.064,0.014,0.096,0.042,0.096c0.027,0,0.042-0.014,0.042-0.043c0-0.027-0.007-0.063-0.021-0.102v-0.072
	c0-0.104,0.054-0.17,0.165-0.205l0.46-0.297c0.014-0.145,0.057-0.229,0.119-0.25c0.066-0.023,0.116-0.053,0.151-0.084
	c0.031-0.031,0.07-0.045,0.112-0.045c0.088,0,0.133,0.053,0.133,0.154l-0.052,0.266l0.052,0.277c0,0.043-0.031,0.098-0.098,0.168
	c-0.063,0.074-0.112,0.184-0.147,0.33c-0.035,0.148-0.081,0.229-0.134,0.238H58.6c-0.123,0.135-0.221,0.207-0.292,0.232
	c-0.073,0.025-0.129,0.066-0.172,0.131l-0.347,0.398c-0.067,0.068-0.127,0.131-0.176,0.188c-0.046,0.053-0.084,0.08-0.112,0.08
	l-0.08-0.08c0-0.016-0.015-0.021-0.043-0.021c-0.07,0-0.112,0.039-0.13,0.123c-0.018,0.08-0.053,0.154-0.105,0.213
	c-0.207,0.1-0.34,0.188-0.4,0.268l-0.063,0.021h-0.187c-0.087,0-0.15,0.066-0.183,0.199c-0.035,0.133-0.133,0.211-0.294,0.232
	c-0.162,0.02-0.274,0.063-0.345,0.123c-0.014,0.014-0.045,0.027-0.091,0.041c-0.049,0.014-0.144,0.066-0.288,0.166l-0.862,0.305
	c-0.067,0.035-0.113,0.053-0.135,0.053l-0.287,0.041c-0.042,0-0.081-0.027-0.123-0.084c-0.041-0.053-0.069-0.08-0.08-0.08
	l-0.187,0.059c-0.137,0.043-0.267,0.064-0.39,0.064c-0.07,0-0.144-0.025-0.228-0.074c-0.081-0.045-0.147-0.08-0.193-0.102
	c-0.2,0-0.34-0.154-0.421-0.463L52.265,90c-0.028,0-0.119-0.242-0.277-0.73c-0.042-0.057-0.108-0.096-0.196-0.119
	c-0.088-0.025-0.133-0.092-0.133-0.201c0-0.309,0.065-0.516,0.2-0.621c0.133-0.105,0.206-0.186,0.221-0.242l0.144-0.533
	c0.028-0.02,0.063-0.092,0.102-0.207l0.239-0.432C52.591,86.865,52.651,86.746,52.749,86.553L52.749,86.553z M54.907,85.936
	l-0.123,0.063c-0.028,0.014-0.108,0.074-0.242,0.18c-0.133,0.105-0.263,0.193-0.39,0.256c-0.129,0.066-0.26,0.234-0.393,0.512
	c-0.133,0.275-0.2,0.432-0.2,0.471c0,0.043,0.021,0.063,0.063,0.063l0.348-0.154c0.129-0.063,0.252-0.141,0.364-0.234
	c0.116-0.098,0.277-0.215,0.492-0.352l0.08-0.08c0.014-0.027,0.077-0.078,0.189-0.15c0.113-0.074,0.196-0.145,0.253-0.211
	l0.102-0.043c0.116-0.186,0.235-0.297,0.354-0.34c0.119-0.039,0.183-0.08,0.183-0.123c0-0.08-0.067-0.123-0.196-0.123
	c-0.057,0-0.137,0.035-0.246,0.102h-0.238c-0.028,0-0.102,0.043-0.226,0.123L54.907,85.936L54.907,85.936z M41.821,86.584
	l0.144,0.064c0.014-0.119,0.078-0.219,0.193-0.299h0.084c0.067,0,0.158-0.096,0.267-0.281l0.176-0.102
	c0.028,0.014,0.066,0.021,0.123,0.021c0.042,0,0.081-0.027,0.119-0.08c0.035-0.057,0.13-0.162,0.281-0.32h0.042
	c0.042,0,0.091-0.031,0.148-0.096c0.06-0.059,0.137-0.09,0.231-0.09l0.351-0.092c0.108-0.027,0.172-0.041,0.186-0.041
	c0.06-0.021,0.21,0.104,0.453,0.375c0.239,0.27,0.358,0.529,0.358,0.783c0,0.143-0.074,0.23-0.225,0.256l-0.053,0.041v0.207
	l-0.175,0.379c-0.046,0.102-0.105,0.166-0.176,0.193c-0.06,0.109-0.105,0.186-0.133,0.229L44.07,87.75l-0.06,0.063v0.256
	c-0.063,0.082-0.151,0.264-0.267,0.541c-0.119,0.273-0.175,0.453-0.175,0.527c0,0.129,0.028,0.195,0.081,0.195
	c0.042,0,0.084-0.018,0.123-0.053c0.042-0.035,0.098-0.072,0.172-0.119c0.07-0.041,0.123-0.092,0.158-0.137
	c0.035-0.049,0.105-0.092,0.217-0.129c0.109-0.039,0.21-0.109,0.309-0.211c0.095-0.102,0.165-0.172,0.203-0.207
	c0.042-0.031,0.088-0.078,0.137-0.137c0.045-0.061,0.077-0.088,0.091-0.088c0.042,0,0.105-0.014,0.196-0.043
	c0.014-0.072,0.028-0.129,0.039-0.164l0.25-0.123l0.596-0.533l0.084-0.102c0.108-0.029,0.175-0.049,0.203-0.064
	c0.057-0.186,0.148-0.318,0.277-0.398c0-0.029,0.035-0.051,0.105-0.064c0.053-0.107,0.127-0.195,0.211-0.26
	c0.084-0.066,0.154-0.146,0.211-0.242l0.238-0.195c0.066-0.029,0.116-0.07,0.145-0.123c0.354-0.316,0.575-0.496,0.663-0.541
	c0.084-0.045,0.224-0.066,0.417-0.066s0.348,0.072,0.467,0.221c0.123,0.146,0.253,0.26,0.394,0.334
	c0.14,0.076,0.21,0.221,0.21,0.432c0,0.199-0.154,0.578-0.463,1.141c-0.2,0.59-0.302,0.951-0.309,1.084
	c-0.008,0.133-0.039,0.211-0.092,0.232c-0.057,0.02-0.084,0.045-0.084,0.068v0.043c0,0.164,0.027,0.246,0.084,0.246
	c0.039,0,0.099-0.031,0.169-0.102c0.073-0.066,0.218-0.145,0.435-0.225l0.092,0.018c0.199-0.303,0.333-0.465,0.4-0.488
	c0.066-0.025,0.137-0.084,0.203-0.184c0.07-0.102,0.15-0.152,0.253-0.16c0.098-0.008,0.161-0.025,0.186-0.049
	c0.008-0.166,0.144-0.352,0.404-0.559c0.263-0.203,0.414-0.309,0.456-0.309c0.066,0,0.122,0.053,0.165,0.154
	c0.038,0.105,0.08,0.176,0.126,0.211c0.046,0.037,0.067,0.07,0.067,0.098v0.186c0,0.088-0.047,0.148-0.135,0.176
	c-0.065,0.15-0.129,0.238-0.186,0.268l-0.183-0.021c-0.035,0.041-0.063,0.08-0.087,0.111c-0.025,0.035-0.039,0.051-0.046,0.043
	c-0.057,0.014-0.154,0.105-0.292,0.273c-0.14,0.168-0.266,0.305-0.375,0.414l-0.042,0.063c-0.053,0.043-0.105,0.068-0.154,0.082
	l-0.183,0.154c-0.07-0.039-0.108-0.061-0.123-0.061s-0.042,0.029-0.088,0.082c-0.046,0.055-0.134,0.125-0.267,0.211
	s-0.234,0.186-0.302,0.295l-0.165,0.164l-0.214,0.027c-0.021,0-0.056,0.031-0.105,0.096l-0.183,0.234
	c-0.091,0.115-0.229,0.176-0.421,0.176c-0.042,0-0.095-0.035-0.157-0.109c-0.067-0.07-0.127-0.133-0.188-0.182
	c-0.055-0.053-0.186-0.207-0.389-0.463s-0.302-0.395-0.302-0.408l0.06-0.357l-0.021-0.25c0-0.045,0.035-0.119,0.099-0.221
	c0.067-0.098,0.099-0.15,0.099-0.158l-0.021-0.4c0.014-0.014,0.027-0.033,0.043-0.063l0.143-0.234
	c-0.014-0.07-0.021-0.145-0.021-0.225l0.042-0.342c-0.123,0.057-0.231,0.166-0.326,0.334c-0.092,0.168-0.215,0.252-0.365,0.252
	c-0.13,0.232-0.229,0.348-0.299,0.342c-0.023,0.023-0.045,0.053-0.059,0.08l-0.145,0.08l-0.175-0.018l-0.063,0.258
	c-0.147,0.08-0.246,0.154-0.291,0.221c-0.045,0.063-0.116,0.129-0.21,0.199l-0.176,0.166h-0.165
	c-0.028,0.186-0.133,0.336-0.319,0.463l-0.081,0.102l-0.186-0.021c-0.066,0.221-0.154,0.355-0.256,0.4
	c-0.116,0-0.277,0.109-0.477,0.32c-0.204,0.213-0.344,0.318-0.428,0.318c-0.597,0-1.078-0.371-1.45-1.119
	c-0.014-0.025-0.045-0.078-0.098-0.15c-0.049-0.078-0.077-0.193-0.077-0.352c0-0.268,0.039-0.445,0.108-0.543
	c0.074-0.096,0.165-0.275,0.277-0.537c0.112-0.264,0.197-0.381,0.253-0.346c0.014-0.027,0.021-0.066,0.021-0.121
	c0.109-0.131,0.165-0.229,0.165-0.299c0-0.029-0.014-0.039-0.042-0.039c-0.014,0-0.056,0.018-0.123,0.061l-0.144,0.063
	c-0.063,0.014-0.109,0.039-0.133,0.08c-0.028,0.043-0.077,0.08-0.147,0.119c-0.067,0.039-0.123,0.07-0.165,0.1h-0.028
	c-0.042-0.043-0.07-0.064-0.084-0.064c-0.042,0.109-0.077,0.18-0.102,0.207l-0.126,0.018c-0.15,0.158-0.245,0.238-0.288,0.238
	c-0.028,0-0.088-0.023-0.186-0.072c-0.095-0.047-0.144-0.096-0.144-0.145l0.074-0.4v-0.186c0-0.014,0.024-0.039,0.081-0.08
	c0.014,0,0.067-0.074,0.165-0.221C41.575,86.658,41.688,86.584,41.821,86.584L41.821,86.584z M32.236,89.586h0.042l0.298-0.084
	c0.011,0,0.039,0.006,0.081,0.02c0.095-0.053,0.208-0.094,0.333-0.123c0.126-0.027,0.246-0.076,0.351-0.15
	c0.105-0.07,0.263-0.16,0.478-0.27c0.144-0.035,0.273-0.1,0.382-0.186c0.112-0.092,0.172-0.139,0.186-0.139
	c0.021-0.018,0.074-0.041,0.158-0.066c0.081-0.021,0.175-0.08,0.281-0.176c0.102-0.09,0.207-0.156,0.309-0.199l0.509-0.309h0.063
	c0.035,0,0.123-0.096,0.26-0.277l0.123-0.127l0.189-0.039l0.113,0.018c0.028,0,0.066-0.072,0.116-0.221
	c0.049-0.146,0.151-0.221,0.312-0.221c0.039-0.07,0.088-0.127,0.144-0.168c0.056-0.045,0.084-0.088,0.084-0.131
	c0-0.027-0.014-0.041-0.042-0.041l-0.147,0.063h-0.039c-0.105,0-0.242-0.084-0.407-0.252c-0.115-0.053-0.21-0.08-0.28-0.08
	c-0.028,0-0.218,0.027-0.569,0.08c-0.133,0.063-0.267,0.094-0.407,0.094c-0.144,0-0.274,0.074-0.383,0.225
	c-0.084,0.008-0.217,0.049-0.407,0.127l-0.123,0.172c-0.049,0-0.147,0.035-0.302,0.105c-0.151,0.158-0.271,0.238-0.365,0.246
	c-0.091,0.006-0.298,0.172-0.621,0.494l-0.196,0.166c-0.123,0.014-0.183,0.076-0.183,0.191c0,0.084-0.028,0.148-0.084,0.197
	c-0.056,0.049-0.105,0.129-0.154,0.246l-0.204,0.309l-0.063,0.318C32.071,89.521,32.127,89.586,32.236,89.586L32.236,89.586z
	 M34.04,96.365l-0.021,0.277c0,0.057-0.014,0.129-0.039,0.229c-0.028,0.094-0.042,0.168-0.042,0.213
	c0,0.139,0.028,0.207,0.081,0.207c0.014,0,0.028-0.006,0.042-0.02c0.186,0,0.453-0.373,0.804-1.119
	c0.109-0.18,0.207-0.293,0.298-0.33c0.014-0.057,0.066-0.205,0.158-0.449c0.091-0.242,0.151-0.414,0.179-0.51l0.123-0.432
	c0.042-0.145,0.119-0.365,0.228-0.66l0.204-0.965c0.077-0.33,0.116-0.59,0.116-0.783c0-0.242-0.07-0.48-0.207-0.719
	c-0.035,0.014-0.053,0.035-0.053,0.07l0.053,0.309c0,0.115-0.063,0.225-0.197,0.32c-0.011,0-0.021,0.014-0.028,0.041
	c-0.007,0.029-0.074,0.211-0.2,0.551c-0.13,0.338-0.267,0.51-0.417,0.51l0.021,0.287c0,0.027-0.06,0.084-0.175,0.176l0.042,0.184
	c-0.119,0.256-0.189,0.447-0.211,0.582c-0.024,0.133-0.073,0.248-0.144,0.344c-0.074,0.098-0.13,0.234-0.172,0.414
	c-0.042,0.176-0.13,0.414-0.267,0.709l-0.052,0.207C34.096,96.08,34.054,96.201,34.04,96.365L34.04,96.365z"/>
<g>
	<path fill="#FFFFFF" d="M28.889,52.787c0.254,0,0.608,0.107,1.062,0.321c0.453,0.215,0.898,0.585,1.336,1.109
		c0.437,0.525,0.815,1.229,1.133,2.111c0.318,0.883,0.477,1.984,0.477,3.305c0,1.145-0.199,2.373-0.597,3.686
		c-0.397,1.312-0.942,2.651-1.634,4.02s-1.503,2.731-2.434,4.091c-0.93,1.36-1.928,2.664-2.994,3.913
		c-1.066,1.248-2.179,2.413-3.34,3.494c-1.161,1.082-2.314,2.024-3.459,2.827s-2.259,1.436-3.34,1.896
		c-1.082,0.461-2.076,0.7-2.982,0.716h-0.096c-0.271,0-0.577-0.092-0.918-0.274c-0.342-0.183-0.668-0.461-0.978-0.835
		s-0.572-0.847-0.787-1.419c-0.215-0.573-0.322-1.257-0.322-2.052c0-0.445,0.1-0.994,0.298-1.646
		c0.199-0.651,0.465-1.371,0.799-2.159c0.334-0.787,0.715-1.626,1.145-2.517c0.429-0.891,0.875-1.797,1.336-2.72
		c0.461-0.954,0.918-1.899,1.372-2.839c0.453-0.938,0.859-1.828,1.217-2.672c0.358-0.843,0.647-1.613,0.871-2.313
		c0.223-0.7,0.334-1.288,0.334-1.766c0-0.604-0.247-0.906-0.74-0.906c-0.763,0-1.578,0.23-2.445,0.691
		c-0.867,0.462-1.722,1.074-2.564,1.837c-0.843,0.764-1.658,1.631-2.445,2.601c-0.788,0.971-1.475,1.965-2.063,2.982
		s-1.062,2.016-1.419,2.993c-0.358,0.979-0.537,1.857-0.537,2.637c0,0.763,0.036,1.403,0.107,1.92
		c0.072,0.518,0.159,0.946,0.263,1.288c0.104,0.343,0.214,0.617,0.334,0.823c0.119,0.207,0.227,0.366,0.322,0.478
		c0.08,0.127,0.151,0.25,0.215,0.369s0.095,0.251,0.095,0.394c0,0.191-0.099,0.354-0.298,0.489
		c-0.199,0.136-0.473,0.203-0.823,0.203c-0.35,0-0.775-0.092-1.276-0.274s-0.981-0.521-1.443-1.014
		c-0.461-0.493-0.854-1.169-1.181-2.028C0.163,75.688,0,74.583,0,73.231c0-1.129,0.219-2.274,0.656-3.436
		c0.438-1.161,1.038-2.282,1.801-3.363c0.763-1.082,1.666-2.092,2.708-3.03c1.042-0.938,2.163-1.757,3.364-2.457
		c1.201-0.699,2.461-1.252,3.781-1.658c1.32-0.405,2.64-0.608,3.96-0.608c0.588,0,1.085,0.092,1.491,0.274
		c0.406,0.184,0.735,0.422,0.99,0.716c0.254,0.295,0.449,0.616,0.584,0.967c0.135,0.35,0.23,0.695,0.286,1.037
		c0.056,0.343,0.087,0.656,0.095,0.942c0.008,0.286,0.012,0.501,0.012,0.645c0,0.604-0.116,1.292-0.346,2.063
		s-0.529,1.578-0.895,2.421c-0.366,0.844-0.775,1.706-1.229,2.589c-0.453,0.882-0.903,1.737-1.348,2.564
		c-0.414,0.747-0.819,1.507-1.217,2.278s-0.76,1.515-1.085,2.23c-0.326,0.715-0.588,1.383-0.787,2.004
		c-0.199,0.62-0.298,1.153-0.298,1.598c0,0.461,0.024,0.791,0.072,0.99c0.047,0.199,0.095,0.361,0.143,0.489
		c0.477-0.08,1.069-0.354,1.777-0.823c0.708-0.469,1.479-1.081,2.314-1.837c0.835-0.755,1.709-1.638,2.624-2.647
		s1.809-2.092,2.684-3.245c0.875-1.152,1.709-2.354,2.505-3.602c0.795-1.249,1.491-2.497,2.087-3.746
		c0.597-1.248,1.069-2.469,1.419-3.661c0.35-1.193,0.525-2.307,0.525-3.34c0-1.399-0.08-2.529-0.238-3.388
		c-0.159-0.859-0.303-1.495-0.43-1.908c-0.048-0.159-0.087-0.307-0.119-0.441c-0.032-0.136-0.048-0.242-0.048-0.322
		c0-0.286,0.08-0.481,0.239-0.585C28.237,52.839,28.507,52.787,28.889,52.787z"/>
</g>
<path fill-rule="evenodd" clip-rule="evenodd" fill="#BF000A" d="M80.908,0.67c2.612,0,4.731,2.119,4.731,4.732
	s-2.119,4.732-4.731,4.732c-2.613,0-4.732-2.119-4.732-4.732S78.295,0.67,80.908,0.67L80.908,0.67z"/>
<path fill-rule="evenodd" clip-rule="evenodd" fill="#BF000A" d="M50.872,13.951C74.861,3.332,73.896,32.95,54.931,45.524
	c-0.773,0.513-1.422,0.813-1.943,0.9c-0.053-0.14-0.104-0.318-0.156-0.535c-0.053-0.218-0.079-0.578-0.079-1.083
	c0-0.486,0.109-1.069,0.327-1.748c0.217-0.678,0.503-1.409,0.86-2.191c0.764-1.676,1.626-3.32,2.518-4.932
	c0.487-0.904,0.979-1.839,1.474-2.805c0.497-0.965,0.917-1.921,1.345-2.83c4.073-8.677,1.078-11.658-6.758-9.25
	c5.976-1.278,4.656,2.842,3.145,6.406c-0.392,0.921-0.835,1.895-1.331,2.922c-2.124,4.396-7.534,12.772-4.2,16.789
	c0.338,0.409,0.695,0.713,1.068,0.913c0.375,0.2,0.71,0.3,1.005,0.3h0.104c0.991-0.017,2.112-0.205,3.262-0.782
	C82.663,33.992,80.994-3.178,50.872,13.951L50.872,13.951z"/>
<path fill-rule="evenodd" clip-rule="evenodd" fill="#BF000A" d="M54.869,19.41C34.493,2.978,25.278,28.501,48.311,46.13
	C13.051,22.555,32.514-4.054,54.869,19.41L54.869,19.41z"/>
</svg>
