<?xml version="1.0" encoding="utf-8"?>
<!-- Generator: Adobe Illustrator 16.0.0, SVG Export Plug-In . SVG Version: 6.00 Build 0)  -->
<!DOCTYPE svg PUBLIC "-//W3C//DTD SVG 1.1//EN" "http://www.w3.org/Graphics/SVG/1.1/DTD/svg11.dtd">
<svg version="1.1" id="Layer_1" xmlns="http://www.w3.org/2000/svg" xmlns:xlink="http://www.w3.org/1999/xlink" x="0px" y="0px"
	 width="100px" height="100px" viewBox="0 0 100 100" enable-background="new 0 0 100 100" xml:space="preserve">
<path fill-rule="evenodd" clip-rule="evenodd" fill="#2B2A2A" d="M58.721,57.439l-0.045-0.291c0-0.023,0.01-0.061,0.033-0.109
	c0.022,0,0.043-0.008,0.057-0.023l-0.034-0.104c0-0.133,0.037-0.248,0.111-0.346s0.115-0.164,0.123-0.197s0.063-0.146,0.164-0.334
	c0.101-0.189,0.176-0.311,0.226-0.363l0.034-0.074l0.046-0.012c0.088-0.141,0.211-0.27,0.371-0.385
	c0.055-0.084,0.119-0.152,0.195-0.205s0.129-0.09,0.153-0.113c0.027-0.021,0.068-0.037,0.121-0.045l0.023-0.012
	c0.111-0.111,0.205-0.166,0.285-0.166c0.027-0.027,0.081-0.057,0.162-0.092h0.063c0.022,0,0.044-0.008,0.067-0.023
	s0.047-0.023,0.068-0.023c0.017,0,0.057,0.016,0.121,0.047c0.061-0.061,0.111-0.092,0.148-0.092c0.08,0,0.161,0.031,0.244,0.092
	c0.082,0.061,0.134,0.135,0.157,0.223c0.021,0.088,0.041,0.137,0.057,0.152s0.031,0.037,0.047,0.059c0.029,0,0.07-0.072,0.119-0.211
	l0.067-0.092c0.106-0.133,0.177-0.289,0.215-0.469c0.008-0.008,0.021-0.039,0.035-0.094c0.016-0.055,0.058-0.15,0.121-0.283
	c0.113-0.16,0.191-0.322,0.238-0.49l0.068-0.102c0.047-0.031,0.071-0.064,0.076-0.102c0.004-0.035,0.016-0.068,0.035-0.1
	c0.018-0.031,0.039-0.068,0.063-0.111c0.026-0.043,0.045-0.074,0.062-0.088c0.015-0.016,0.038-0.068,0.067-0.158
	c0.031-0.09,0.068-0.141,0.112-0.15c0.044-0.012,0.089-0.033,0.134-0.064l0.012-0.039l-0.023-0.08c0-0.045,0.051-0.125,0.152-0.238
	c0.102-0.115,0.174-0.209,0.216-0.283c0.045-0.074,0.12-0.189,0.223-0.344c0.105-0.154,0.182-0.248,0.227-0.281l0.133-0.139
	c0.06-0.087,0.146-0.129,0.255-0.129c0.084,0,0.172,0.045,0.264,0.133c0.092,0.09,0.137,0.178,0.137,0.266
	c0,0.031-0.021,0.102-0.063,0.211l-0.012,0.07c0,0.061-0.02,0.133-0.063,0.217c-0.041,0.084-0.066,0.148-0.074,0.193l-0.32,0.783
	c-0.038,0.016-0.061,0.025-0.068,0.033c-0.099,0.219-0.177,0.336-0.233,0.355v0.115c0,0.041-0.027,0.072-0.08,0.09l-0.023,0.012
	c-0.035,0.146-0.078,0.248-0.131,0.314c-0.055,0.064-0.094,0.129-0.117,0.195c-0.025,0.068-0.063,0.105-0.116,0.113
	c-0.055,0.008-0.08,0.082-0.08,0.223c-0.016,0.076-0.055,0.113-0.116,0.113c-0.056,0-0.093,0.051-0.108,0.15
	c-0.016,0.098-0.09,0.152-0.222,0.16c-0.039,0.021-0.062,0.049-0.069,0.08l0.045,0.143c0,0.023-0.069,0.109-0.211,0.268
	l-0.046,0.148c-0.072,0.025-0.131,0.223-0.176,0.588l-0.07,0.395l0.012,0.154l-0.021,0.08l0.068,0.234l-0.012,0.131
	c0,0.061,0.023,0.092,0.068,0.092c0.023,0,0.073-0.035,0.154-0.104l0.08-0.035c0.237-0.121,0.384-0.24,0.44-0.355
	c0.016-0.014,0.043-0.029,0.082-0.045s0.068-0.035,0.088-0.063c0.019-0.027,0.035-0.047,0.045-0.059
	c0.229-0.15,0.38-0.285,0.446-0.398c0.068-0.115,0.138-0.184,0.21-0.207l0.045-0.047c0.045-0.037,0.083-0.057,0.114-0.057
	c0.063,0,0.095,0.02,0.095,0.057l-0.045,0.162c0.037,0.102,0.057,0.162,0.057,0.176c0,0.135-0.059,0.217-0.176,0.248
	c-0.05,0.049-0.09,0.104-0.117,0.17c-0.028,0.064-0.09,0.105-0.185,0.119c-0.064,0.092-0.123,0.152-0.176,0.182
	c-0.055,0.029-0.08,0.059-0.08,0.088V56.9c-0.031,0.045-0.057,0.076-0.08,0.092l-0.108-0.023c-0.014,0.045-0.049,0.109-0.103,0.189
	c-0.019-0.016-0.036-0.023-0.05-0.023c-0.055,0-0.098,0.033-0.131,0.098c-0.035,0.064-0.061,0.098-0.074,0.098H62.89
	c-0.02,0.012-0.051,0.035-0.091,0.074c-0.044,0.039-0.112,0.057-0.211,0.057l-0.178,0.035c-0.165,0-0.32-0.055-0.46-0.162
	c-0.141-0.109-0.215-0.209-0.225-0.299c-0.01-0.088-0.041-0.197-0.094-0.322l-0.012-0.234c-0.041-0.242-0.089-0.363-0.142-0.363
	l-0.013,0.074l-0.045,0.023c-0.022,0.115-0.063,0.176-0.114,0.176c-0.024,0.01-0.049,0.029-0.074,0.057l-0.035,0.023
	c-0.016,0.006-0.037,0.039-0.066,0.096c-0.029,0.059-0.107,0.139-0.238,0.24c-0.052,0.143-0.093,0.213-0.12,0.213l-0.069-0.047
	h-0.011c-0.03,0-0.055,0.045-0.075,0.135c-0.019,0.09-0.056,0.135-0.114,0.135c-0.016,0-0.029,0.025-0.043,0.078
	c-0.014,0.051-0.047,0.084-0.1,0.098c-0.055,0.012-0.102,0.064-0.144,0.156c-0.041,0.09-0.071,0.135-0.086,0.135
	c-0.009,0-0.021-0.002-0.034-0.012L60,57.721c-0.021,0.027-0.047,0.068-0.083,0.131c-0.032,0.01-0.063,0.025-0.091,0.045
	c-0.117,0.115-0.274,0.172-0.471,0.172c-0.136,0-0.245-0.029-0.325-0.088c-0.082-0.061-0.129-0.111-0.145-0.152
	c-0.016-0.043-0.043-0.094-0.086-0.156C58.758,57.609,58.731,57.531,58.721,57.439L58.721,57.439z M62.991,53.822l-0.057,0.166
	c0.049-0.008,0.094-0.059,0.131-0.154c0.115-0.162,0.193-0.264,0.234-0.301c0.051,0,0.087-0.033,0.11-0.096
	c0.026-0.063,0.07-0.125,0.135-0.186c0-0.025,0.029-0.078,0.086-0.154s0.096-0.131,0.111-0.162c0.018-0.033,0.053-0.076,0.105-0.129
	c0.055-0.055,0.105-0.145,0.152-0.275c0.048-0.129,0.09-0.207,0.123-0.234c0.035-0.027,0.053-0.078,0.053-0.158
	c0-0.111-0.009-0.166-0.024-0.166c-0.034,0-0.06,0.021-0.077,0.066c-0.019,0.043-0.055,0.1-0.112,0.166l-0.194,0.326
	c-0.076,0.129-0.125,0.232-0.15,0.309s-0.052,0.121-0.086,0.135c-0.032,0.014-0.072,0.051-0.117,0.111l-0.08,0.08
	c-0.019,0.047-0.034,0.102-0.046,0.166l-0.051,0.047v0.105c0,0.053-0.029,0.098-0.086,0.135c-0.057,0.043-0.086,0.066-0.086,0.078
	L62.991,53.822L62.991,53.822z M61.004,56.143l0.039-0.074c0.064-0.023,0.107-0.08,0.125-0.172c0.031-0.023,0.109-0.121,0.234-0.297
	c0.126-0.176,0.188-0.273,0.188-0.291c-0.039-0.041-0.081-0.061-0.13-0.061c-0.009,0-0.031,0.008-0.071,0.023
	c-0.037,0.016-0.076,0.025-0.116,0.033c-0.039,0.008-0.082,0.023-0.127,0.047l-0.143-0.023c-0.042,0-0.137,0.055-0.28,0.166
	l-0.131-0.023c-0.024,0-0.061,0.051-0.115,0.148l-0.291,0.234h-0.035c-0.052,0-0.087,0.049-0.106,0.145
	c-0.065,0.084-0.125,0.143-0.184,0.174c-0.057,0.033-0.096,0.078-0.119,0.139v0.074c-0.107,0.117-0.16,0.207-0.16,0.27
	c-0.079,0.076-0.132,0.158-0.158,0.246c-0.023,0.088-0.052,0.162-0.087,0.223c0.015,0.053,0.027,0.119,0.035,0.197
	c0.007,0.078,0.045,0.117,0.113,0.117c0.111,0,0.231-0.066,0.364-0.199c0.008-0.008,0.041-0.029,0.098-0.064
	c0.056-0.033,0.136-0.102,0.238-0.201c0.099-0.102,0.155-0.154,0.167-0.158c0.037-0.037,0.061-0.057,0.068-0.057l0.044-0.047
	c0-0.014,0.019-0.031,0.05-0.051c0.033-0.02,0.076-0.059,0.129-0.117c0.054-0.059,0.094-0.094,0.122-0.105
	c0.03-0.012,0.049-0.027,0.062-0.049c0.011-0.021,0.028-0.041,0.056-0.061c0.027-0.018,0.041-0.037,0.041-0.063l0.011-0.066
	L61.004,56.143L61.004,56.143z"/>
<path fill-rule="evenodd" clip-rule="evenodd" fill="#2B2A2A" d="M43.321,57.395l-0.269,0.234c-0.016-0.016-0.029-0.023-0.045-0.023
	c-0.039,0-0.086,0.033-0.14,0.102c-0.055,0.068-0.094,0.104-0.117,0.104l-0.057-0.012c-0.096,0.072-0.164,0.115-0.207,0.127
	c-0.041,0.01-0.092,0.031-0.152,0.063c-0.059,0.029-0.111,0.047-0.16,0.051c-0.047,0.004-0.086,0.02-0.117,0.049
	c-0.029,0.029-0.104,0.043-0.222,0.043l-0.092-0.012c-0.049,0.023-0.082,0.035-0.098,0.035c-0.029,0-0.063-0.018-0.098-0.049
	c-0.033-0.033-0.07-0.051-0.111-0.055c-0.039-0.004-0.08-0.031-0.123-0.08c-0.041-0.049-0.08-0.084-0.117-0.104
	c-0.035-0.018-0.066-0.045-0.087-0.08l-0.08-0.066c-0.066-0.045-0.129-0.131-0.189-0.252c-0.061-0.121-0.092-0.217-0.092-0.285
	V57.16l0.012-0.109l-0.012-0.125c0.016-0.016,0.035-0.049,0.056-0.098v-0.184l0.139-0.455c0.008-0.02-0.008-0.045-0.046-0.074
	c-0.037,0.057-0.077,0.092-0.113,0.104c-0.039,0.01-0.064,0.037-0.076,0.08c-0.014,0.039-0.035,0.061-0.066,0.061l-0.068-0.021
	c-0.006,0.006-0.023,0.045-0.051,0.115c-0.025,0.07-0.07,0.105-0.134,0.105c-0.068,0-0.102-0.025-0.102-0.08l0.01-0.102
	l-0.033-0.143c0-0.029,0.031-0.09,0.092-0.18s0.117-0.141,0.167-0.154c0.053-0.014,0.096-0.051,0.131-0.109
	c0.037-0.059,0.115-0.131,0.238-0.215c0.068-0.014,0.127-0.064,0.178-0.148c0.053-0.041,0.123-0.076,0.207-0.104
	c0.086-0.025,0.15-0.064,0.195-0.117c0.043-0.051,0.173-0.131,0.388-0.238c0.214-0.107,0.372-0.162,0.47-0.162
	c0.031,0,0.072-0.01,0.127-0.025c0.052-0.018,0.102-0.033,0.148-0.047c0.045-0.014,0.094-0.033,0.143-0.063s0.09-0.043,0.119-0.043
	l0.166,0.057c0.123,0.035,0.197,0.061,0.222,0.074c0.008,0.008,0.047,0.025,0.117,0.049c0.07,0.025,0.143,0.059,0.218,0.102
	c0.074,0.041,0.111,0.119,0.111,0.232c-0.066,0.096-0.097,0.146-0.097,0.154c0,0.016,0.042,0.037,0.13,0.068
	c0.031,0.057,0.076,0.131,0.136,0.223l0.064,0.201l0.01,0.469l-0.01,0.045c-0.042,0.037-0.064,0.064-0.064,0.074l0.018,0.113
	l-0.045,0.16c-0.012,0.051-0.031,0.082-0.059,0.098c-0.025,0.016-0.043,0.035-0.051,0.057l-0.035,0.047
	c-0.006,0.012-0.023,0.045-0.049,0.1c-0.023,0.055-0.051,0.098-0.082,0.129c-0.032,0.031-0.049,0.066-0.057,0.109
	c-0.007,0.041-0.027,0.072-0.059,0.092c-0.029,0.018-0.05,0.039-0.064,0.059C43.374,57.361,43.352,57.379,43.321,57.395
	L43.321,57.395z M41.54,57.541l0.023,0.131l0.01,0.01h0.091l0.029,0.012c0.076,0.016,0.133,0.023,0.171,0.023
	c0.117,0,0.211-0.027,0.281-0.088c0.072-0.059,0.126-0.088,0.169-0.088c0.041,0,0.076-0.029,0.105-0.086s0.047-0.086,0.055-0.086
	h0.08l0.021-0.012c0-0.088,0.039-0.15,0.117-0.189c0.078-0.037,0.135-0.088,0.166-0.15c0.033-0.063,0.07-0.111,0.111-0.143
	c0.043-0.033,0.07-0.076,0.086-0.129l0.047-0.07c0.014-0.014,0.021-0.043,0.021-0.086l0.109-0.205
	c0.023-0.094,0.033-0.168,0.033-0.223c0-0.078-0.041-0.141-0.123-0.188c-0.08-0.045-0.121-0.135-0.121-0.27
	c0-0.088,0.043-0.168,0.133-0.242c0.089-0.074,0.134-0.119,0.134-0.135c0-0.023-0.012-0.035-0.033-0.035
	c-0.012,0-0.056,0.016-0.132,0.047c-0.025,0.053-0.162,0.123-0.406,0.211c-0.078-0.037-0.123-0.057-0.131-0.057
	c-0.021,0-0.045,0.023-0.068,0.068c-0.023,0.047-0.044,0.078-0.068,0.098h-0.074c-0.008,0-0.033,0.025-0.074,0.074
	c-0.043,0.049-0.096,0.074-0.16,0.074l-0.068,0.068c0.004,0.063-0.035,0.125-0.115,0.189l-0.063,0.074
	c-0.037,0.045-0.087,0.1-0.148,0.158l-0.104,0.258c-0.041,0.1-0.063,0.174-0.063,0.223c-0.011,0.023-0.037,0.047-0.076,0.072
	c-0.041,0.023-0.06,0.057-0.06,0.094c0,0.008,0.014,0.027,0.039,0.057c0.028,0.031,0.041,0.055,0.041,0.07l-0.023,0.074
	l-0.021,0.211L41.54,57.541L41.54,57.541z"/>
<path fill-rule="evenodd" clip-rule="evenodd" fill="#2B2A2A" d="M57.813,56.51l0.09-0.08c0.056,0,0.092-0.025,0.101-0.076
	c0.013-0.051,0.054-0.092,0.123-0.123c0.07-0.029,0.135-0.092,0.195-0.186s0.123-0.141,0.188-0.141c0.023,0,0.049,0.02,0.08,0.057
	c0.029,0.039,0.045,0.068,0.045,0.092c0,0.127-0.039,0.256-0.115,0.389L58.498,56.6l-0.041,0.076
	c-0.057,0.029-0.094,0.063-0.111,0.096c-0.018,0.035-0.063,0.076-0.135,0.127l-0.056,0.08c-0.084,0.027-0.142,0.07-0.169,0.131
	c-0.028,0.063-0.067,0.096-0.121,0.104c-0.05,0.008-0.106,0.045-0.167,0.115c-0.039,0.018-0.084,0.035-0.137,0.051l-0.012,0.057
	c-0.039,0.039-0.099,0.068-0.181,0.092c-0.08,0.023-0.143,0.045-0.182,0.066c-0.041,0.021-0.068,0.029-0.084,0.029
	c-0.072,0-0.139-0.012-0.199-0.041c-0.06-0.029-0.125-0.047-0.189-0.055c-0.021-0.021-0.035-0.047-0.039-0.074
	c-0.004-0.025-0.023-0.061-0.059-0.105c-0.032-0.043-0.05-0.104-0.05-0.18l0.022-0.109c0-0.014-0.009-0.033-0.028-0.057
	c-0.021-0.021-0.029-0.041-0.029-0.057s0.004-0.027,0.012-0.035c0.008-0.006,0.011-0.018,0.011-0.033
	c0-0.02-0.003-0.041-0.011-0.063c-0.008-0.023-0.012-0.043-0.012-0.057l0.035-0.281c0-0.023-0.009-0.033-0.023-0.033
	c-0.014,0-0.043,0.018-0.082,0.057c-0.042,0.039-0.088,0.057-0.141,0.057c-0.031,0.023-0.055,0.072-0.074,0.145
	c-0.031,0.037-0.068,0.072-0.115,0.104l-0.023,0.033c-0.008,0.027-0.035,0.049-0.085,0.066c-0.049,0.018-0.084,0.039-0.102,0.066
	l-0.059,0.057l-0.109-0.012c-0.006,0.008-0.027,0.041-0.063,0.1c-0.033,0.061-0.078,0.109-0.131,0.146l-0.435,0.355
	c-0.047,0.031-0.113,0.068-0.201,0.115l-0.035,0.031c-0.304,0.203-0.521,0.305-0.646,0.305c-0.104,0-0.224-0.029-0.36-0.086
	s-0.211-0.125-0.223-0.207l-0.059-0.232c-0.033-0.053-0.051-0.127-0.051-0.223c0-0.047,0.004-0.076,0.012-0.092v-0.035l-0.012-0.188
	c0-0.047,0.038-0.07,0.109-0.07l-0.012-0.154c0-0.016,0.033-0.074,0.1-0.18s0.111-0.166,0.135-0.182l0.057-0.074
	c-0.004-0.043,0.023-0.094,0.08-0.145c0.059-0.051,0.104-0.104,0.138-0.156c0.007-0.01,0.014-0.02,0.021-0.029
	c-0.013,0.014-0.027,0.029-0.044,0.043c-0.073,0.063-0.125,0.109-0.152,0.141s-0.087,0.057-0.183,0.08
	c-0.008,0.002-0.07,0.08-0.188,0.232l-0.115,0.068l-0.056,0.074c-0.009,0.016-0.062,0.031-0.155,0.047
	c-0.004,0-0.014,0.018-0.027,0.057c-0.014,0.037-0.054,0.064-0.122,0.08c-0.137,0.125-0.207,0.197-0.211,0.211l-0.121,0.023
	c-0.021,0.072-0.04,0.117-0.057,0.131c-0.092,0.023-0.142,0.063-0.153,0.115c-0.013,0.008-0.031,0.016-0.059,0.023l-0.022,0.018
	c-0.087,0.068-0.173,0.109-0.257,0.125l-0.133,0.035l-0.045,0.068c0,0.016-0.047,0.043-0.14,0.074
	c-0.094,0.029-0.162,0.066-0.209,0.111l-0.098,0.074c-0.117,0.047-0.191,0.088-0.223,0.127h-0.079c-0.053,0-0.137,0.039-0.252,0.117
	s-0.207,0.117-0.275,0.117c-0.221,0-0.372-0.027-0.454-0.082c-0.082-0.057-0.15-0.125-0.203-0.207S50.045,57.773,50,57.723
	c-0.043-0.047-0.064-0.09-0.064-0.119c0-0.027,0.018-0.051,0.053-0.078c0.037-0.027,0.076-0.082,0.119-0.164
	c0.041-0.08,0.148-0.133,0.32-0.156c0.008,0,0.035-0.012,0.084-0.035c0.047-0.021,0.085-0.033,0.116-0.033
	c0.037,0,0.086,0.033,0.143,0.104c0,0.006,0.009,0.01,0.023,0.01l0.092-0.01c0.042,0.029,0.07,0.045,0.086,0.045
	c0.092,0,0.189-0.045,0.29-0.137l0.024-0.012h0.046c0.013,0,0.029-0.033,0.058-0.098l0.097-0.201l0.201-0.256v-0.059
	c0-0.012,0.01-0.045,0.033-0.104v-0.082c0-0.035,0.023-0.059,0.068-0.066c0.047-0.01,0.069-0.035,0.069-0.072l-0.011-0.045
	c-0.031-0.043-0.047-0.074-0.047-0.098l0.058-0.115l-0.011-0.119l0.023-0.047c-0.017-0.053-0.023-0.084-0.023-0.092l0.023-0.143
	c0-0.004-0.013-0.039-0.033-0.109c-0.02-0.068-0.037-0.102-0.049-0.102c-0.021,0-0.094,0.059-0.217,0.178
	c-0.121,0.117-0.193,0.201-0.217,0.252c-0.023,0.049-0.072,0.094-0.146,0.133c-0.074,0.041-0.125,0.086-0.15,0.135
	c-0.027,0.051-0.061,0.078-0.098,0.086l-0.384,0.307l-0.066,0.051c-0.025,0.045-0.051,0.074-0.072,0.084l-0.037-0.004l-0.24,0.18
	c-0.031,0.033-0.051,0.051-0.059,0.051h-0.002c-0.078,0.094-0.148,0.17-0.209,0.23l-0.023,0.035
	c-0.028,0.023-0.058,0.037-0.085,0.045l-0.102,0.086c-0.039-0.021-0.061-0.033-0.068-0.033s-0.023,0.016-0.049,0.045
	c-0.025,0.031-0.074,0.07-0.147,0.117c-0.074,0.049-0.131,0.104-0.168,0.164l-0.092,0.09l-0.119,0.016
	c-0.012,0-0.031,0.02-0.059,0.055l-0.102,0.129c-0.051,0.064-0.127,0.098-0.234,0.098c-0.023,0-0.053-0.02-0.088-0.061
	c-0.036-0.039-0.069-0.074-0.103-0.102c-0.031-0.029-0.104-0.113-0.217-0.256c-0.112-0.143-0.167-0.219-0.167-0.227l0.033-0.199
	l-0.013-0.139c0-0.025,0.021-0.066,0.056-0.123c0.036-0.055,0.054-0.084,0.054-0.088l-0.012-0.223
	c0.008-0.008,0.016-0.02,0.023-0.035l0.08-0.129c-0.008-0.041-0.012-0.08-0.012-0.125l0.023-0.189
	c-0.068,0.031-0.128,0.092-0.181,0.186c-0.051,0.094-0.119,0.141-0.203,0.141c-0.072,0.127-0.127,0.191-0.166,0.188
	c-0.014,0.014-0.025,0.029-0.033,0.045l-0.08,0.045l-0.098-0.01l-0.035,0.143c-0.082,0.045-0.137,0.086-0.162,0.123
	c-0.025,0.035-0.064,0.072-0.117,0.111l-0.098,0.092H47.04c-0.016,0.104-0.074,0.188-0.178,0.258l-0.044,0.057l-0.104-0.012
	c-0.037,0.123-0.086,0.197-0.143,0.223c-0.065,0-0.154,0.061-0.266,0.176c-0.113,0.119-0.191,0.178-0.238,0.178
	c-0.332,0-0.599-0.207-0.806-0.621c-0.008-0.014-0.025-0.043-0.055-0.084c-0.027-0.043-0.043-0.107-0.043-0.195
	c0-0.148,0.022-0.248,0.061-0.303c0.041-0.053,0.091-0.152,0.154-0.299c0.062-0.145,0.109-0.209,0.141-0.189
	c0.007-0.016,0.011-0.037,0.011-0.068c0.061-0.072,0.092-0.127,0.092-0.166c0-0.016-0.008-0.021-0.023-0.021
	c-0.008,0-0.031,0.01-0.068,0.033l-0.08,0.035c-0.035,0.008-0.061,0.021-0.074,0.045c-0.016,0.023-0.043,0.045-0.082,0.066
	c-0.037,0.021-0.068,0.039-0.092,0.055h-0.015c-0.024-0.023-0.039-0.035-0.047-0.035c-0.023,0.061-0.043,0.1-0.057,0.115
	l-0.07,0.008c-0.084,0.088-0.137,0.133-0.16,0.133c-0.016,0-0.048-0.014-0.104-0.041c-0.052-0.025-0.08-0.051-0.08-0.078
	l0.041-0.223v-0.104c0-0.008,0.014-0.021,0.045-0.045c0.008,0,0.037-0.041,0.091-0.123c0.053-0.082,0.115-0.123,0.189-0.123
	l0.08,0.035c0.008-0.066,0.042-0.121,0.107-0.166h0.046c0.037,0,0.088-0.053,0.148-0.156l0.097-0.057
	c0.016,0.008,0.037,0.012,0.068,0.012c0.023,0,0.045-0.016,0.066-0.045c0.02-0.031,0.072-0.09,0.156-0.178h0.023
	c0.024,0,0.051-0.018,0.082-0.051c0.033-0.035,0.076-0.053,0.129-0.053l0.195-0.049c0.061-0.016,0.096-0.025,0.104-0.025
	c0.033-0.01,0.117,0.059,0.252,0.209c0.133,0.15,0.198,0.295,0.198,0.436c0,0.08-0.04,0.129-0.124,0.143l-0.029,0.023v0.115
	l-0.098,0.211c-0.026,0.057-0.059,0.092-0.098,0.107c-0.033,0.061-0.059,0.104-0.074,0.125l-0.08,0.012l-0.033,0.033V56.5
	c-0.035,0.045-0.084,0.146-0.148,0.301c-0.066,0.152-0.098,0.252-0.098,0.293c0,0.072,0.016,0.109,0.045,0.109
	c0.023,0,0.047-0.01,0.068-0.029c0.023-0.02,0.054-0.041,0.095-0.066c0.039-0.023,0.068-0.051,0.088-0.076
	c0.02-0.027,0.059-0.051,0.121-0.072c0.061-0.021,0.117-0.061,0.172-0.117c0.053-0.057,0.092-0.096,0.113-0.115
	c0.023-0.018,0.049-0.043,0.076-0.076c0.025-0.033,0.043-0.049,0.051-0.049c0.022,0,0.058-0.008,0.108-0.023
	c0.008-0.041,0.016-0.072,0.021-0.092l0.139-0.068l0.331-0.295l0.047-0.057c0.061-0.016,0.098-0.027,0.113-0.035
	c0.031-0.104,0.082-0.178,0.154-0.223c0-0.016,0.02-0.027,0.059-0.035c0.029-0.061,0.07-0.109,0.117-0.145
	c0.047-0.037,0.086-0.082,0.117-0.135l0.132-0.109c0.037-0.016,0.064-0.039,0.08-0.068c0.196-0.176,0.32-0.273,0.368-0.301
	c0.047-0.025,0.125-0.035,0.232-0.035s0.193,0.039,0.26,0.121c0.068,0.082,0.141,0.145,0.219,0.186
	c0.078,0.043,0.116,0.123,0.116,0.24c0,0.111-0.085,0.322-0.257,0.635c-0.111,0.326-0.168,0.527-0.172,0.602
	s-0.021,0.117-0.051,0.129c-0.031,0.012-0.047,0.025-0.047,0.039v0.023c0,0.092,0.016,0.137,0.047,0.137
	c0.021,0,0.055-0.018,0.094-0.057c0.041-0.037,0.121-0.08,0.242-0.125l0.051,0.01c0.111-0.168,0.185-0.258,0.222-0.271
	s0.076-0.047,0.113-0.102c0.039-0.057,0.084-0.086,0.141-0.09c0.033-0.002,0.06-0.006,0.077-0.012
	c0.015-0.045,0.037-0.102,0.064-0.166l0.045-0.025c0.008-0.01,0.018-0.02,0.026-0.031l-0.003-0.002l0.005,0.002
	c0.031-0.033,0.068-0.066,0.112-0.102c0.146-0.113,0.23-0.172,0.254-0.172c0.02,0,0.037,0.008,0.053,0.023l0.01-0.02l0.24-0.172
	c0.06-0.045,0.153-0.129,0.278-0.252c0.125-0.121,0.204-0.211,0.24-0.268l0.08-0.145c0.021-0.031,0.053-0.068,0.087-0.104
	c0.038-0.037,0.076-0.129,0.117-0.279s0.088-0.256,0.141-0.313c0.051-0.057,0.125-0.086,0.225-0.086
	c0.056,0,0.132,0.027,0.226,0.082c0.093,0.057,0.184,0.223,0.273,0.502c0.09,0.275,0.133,0.473,0.133,0.586
	c0,0.047,0.014,0.105,0.041,0.176s0.042,0.125,0.051,0.162c-0.03,0.066-0.045,0.102-0.045,0.109l0.012,0.234l-0.069,0.188v0.137
	c-0.046,0.076-0.069,0.123-0.069,0.143c0,0.023,0.008,0.047,0.023,0.068c0.18-0.076,0.288-0.137,0.325-0.186
	c0.039-0.047,0.076-0.076,0.113-0.088c0.035-0.012,0.096-0.061,0.18-0.146l0.109-0.059c0.039-0.045,0.07-0.086,0.098-0.123
	c0.027-0.035,0.059-0.061,0.095-0.076s0.078-0.043,0.13-0.08c0.048-0.039,0.122-0.082,0.216-0.133l0.059-0.068
	c0.057-0.064,0.125-0.115,0.202-0.154c0.078-0.037,0.121-0.057,0.129-0.057c0.027,0,0.055,0.035,0.084,0.105
	s0.043,0.141,0.043,0.209c0,0.043-0.017,0.088-0.051,0.131c0.037-0.041,0.09-0.086,0.158-0.131l0.172-0.172
	c0.134-0.135,0.281-0.24,0.437-0.32c0.023-0.008,0.07-0.047,0.141-0.115c0.069-0.068,0.152-0.119,0.242-0.152
	c0.09-0.031,0.177-0.072,0.263-0.121s0.154-0.074,0.203-0.074h0.047c0.015,0,0.117-0.047,0.305-0.143h0.032
	c0.016,0,0.053,0.016,0.109,0.045h0.012l0.092-0.045c0.016-0.008,0.035-0.012,0.059-0.012c0.236,0,0.366,0.164,0.39,0.488
	c0.008,0.068,0.027,0.104,0.057,0.104c0.039,0,0.094-0.07,0.164-0.209s0.22-0.207,0.448-0.207c0.164,0,0.246,0.104,0.246,0.313
	c0,0.248-0.109,0.484-0.329,0.705c-0.017,0.031-0.027,0.064-0.035,0.104l-0.08,0.234v0.01c0,0.023-0.016,0.055-0.05,0.094
	c-0.032,0.041-0.048,0.076-0.048,0.105l0.012,0.145l-0.023,0.16c0,0.072,0.014,0.119,0.041,0.143
	c0.121-0.031,0.208-0.082,0.263-0.152s0.094-0.109,0.115-0.117l0.057-0.023C57.728,56.596,57.767,56.549,57.813,56.51L57.813,56.51z
	 M55.916,56.512c0.014-0.084,0.06-0.145,0.139-0.189c0.077-0.043,0.124-0.088,0.14-0.135c0.072-0.053,0.176-0.148,0.311-0.285
	s0.201-0.221,0.201-0.252c0-0.01-0.009-0.016-0.022-0.016h-0.012l-0.046,0.027l-0.103-0.012l-0.108,0.012l-0.078-0.039l-0.074,0.012
	l-0.114-0.023c-0.062,0-0.114,0.012-0.156,0.037c-0.044,0.025-0.127,0.053-0.25,0.082c-0.125,0.031-0.235,0.084-0.334,0.158
	S55.237,56,55.192,56c-0.027,0.057-0.115,0.139-0.268,0.246c-0.091,0.029-0.149,0.094-0.177,0.197
	c-0.098,0.08-0.148,0.125-0.148,0.137l-0.039,0.098c-0.031,0.027-0.068,0.049-0.115,0.066c-0.045,0.016-0.072,0.057-0.08,0.119
	s-0.033,0.119-0.076,0.172c-0.045,0.051-0.066,0.092-0.066,0.123c0,0.186,0.037,0.279,0.109,0.279c0.029,0,0.094-0.02,0.191-0.061
	c0.097-0.039,0.152-0.066,0.167-0.082c0.017-0.016,0.045-0.031,0.092-0.047l0.107-0.057c0.016-0.016,0.033-0.023,0.051-0.027
	c0.02-0.004,0.039-0.018,0.059-0.037c0.018-0.021,0.053-0.045,0.102-0.07c0.051-0.023,0.088-0.057,0.115-0.1
	c0.063-0.037,0.167-0.096,0.312-0.176l0.119-0.092c0.084-0.039,0.135-0.07,0.154-0.098S55.857,56.539,55.916,56.512L55.916,56.512z"
	/>
<path fill-rule="evenodd" clip-rule="evenodd" fill="#2B2A2A" d="M48.21,72.877c-0.66,0.533-1.372,1-2.135,1.402
	c-0.847,0.445-1.751,0.738-2.713,0.875c-1.03,1.441-2.197,2.621-3.502,3.537s-2.655,1.373-4.052,1.373
	c-0.756,0-1.494-0.148-2.215-0.445c-0.721-0.299-1.362-0.738-1.923-1.322s-1.013-1.311-1.356-2.182
	c-0.343-0.869-0.515-1.889-0.515-3.057c0-1.098,0.212-2.225,0.635-3.381c0.424-1.156,0.916-2.215,1.477-3.178
	c0.561-0.961,1.133-1.75,1.716-2.369c0.584-0.617,1.036-0.928,1.357-0.928c0.229,0,0.48,0.023,0.755,0.07
	c0.274,0.045,0.538,0.102,0.79,0.17c0.412-0.549,0.853-1.063,1.322-1.545c0.469-0.48,0.973-0.898,1.511-1.252
	c0.538-0.355,1.093-0.643,1.665-0.859s1.156-0.326,1.751-0.326c0.87,0,1.585,0.098,2.146,0.291c0.561,0.195,1.007,0.471,1.339,0.824
	c0.332,0.355,0.561,0.779,0.687,1.271s0.188,1.023,0.188,1.596c0,3-0.675,5.873-2.026,8.619c0.824-0.457,1.609-1.041,2.353-1.75
	c0.532-0.508,1.026-1.021,1.482-1.541c0.125-0.318,0.266-0.633,0.423-0.949c0.778-1.568,1.803-2.975,3.072-4.223
	c1.271-1.248,2.708-2.256,4.311-3.023c1.603-0.766,3.228-1.148,4.876-1.148c1.122,0,1.883,0.314,2.283,0.938
	c0.401,0.629,0.602,1.367,0.602,2.221c0,0.732-0.098,1.436-0.292,2.111s-0.338,1.174-0.43,1.494c0,0.023-0.005,0.035-0.017,0.035
	s-0.018,0.01-0.018,0.033v0.035c-0.068,0.184-0.229,0.297-0.48,0.344c-0.252,0.045-0.515,0.039-0.79-0.018
	c-0.274-0.057-0.503-0.154-0.687-0.291c-0.183-0.139-0.24-0.299-0.172-0.482v0.035c0.114-0.367,0.218-0.756,0.31-1.168
	c0.091-0.344,0.171-0.715,0.24-1.115c0.068-0.402,0.103-0.773,0.103-1.117c0-0.229-0.011-0.418-0.034-0.566
	c-0.022-0.148-0.08-0.223-0.172-0.223c-0.525,0-1.093,0.229-1.699,0.688c-0.607,0.457-1.202,1.059-1.786,1.814
	c-0.584,0.754-1.145,1.613-1.683,2.586s-1.019,1.951-1.442,2.947c-0.423,0.99-0.756,1.963-0.995,2.912
	c-0.241,0.945-0.361,1.787-0.361,2.52c0,0.52,0.092,0.949,0.275,1.281c0.183,0.332,0.48,0.498,0.893,0.498
	c1.053,0,2.071-0.258,3.056-0.771c0.985-0.516,1.924-1.18,2.816-1.992s1.729-1.705,2.507-2.678c0.446-0.561,0.864-1.111,1.251-1.656
	c0.189-0.664,0.447-1.326,0.774-1.984c0.779-1.568,1.804-2.971,3.073-4.207c1.271-1.236,2.702-2.238,4.293-3.004
	c1.591-0.768,3.211-1.15,4.858-1.15c1.076,0,1.849,0.24,2.318,0.721s0.704,1.121,0.704,1.922c0,0.596-0.154,1.277-0.464,2.043
	c-0.309,0.768-0.727,1.564-1.253,2.389s-1.134,1.637-1.82,2.438s-1.413,1.533-2.181,2.197c-0.767,0.664-1.551,1.23-2.353,1.699
	c-0.801,0.471-1.567,0.785-2.301,0.945c-0.091,0.436-0.137,0.869-0.137,1.305c0,0.525,0.092,0.955,0.274,1.287
	c0.184,0.332,0.493,0.498,0.928,0.498c1.007,0,2.003-0.258,2.987-0.771c0.984-0.516,1.923-1.174,2.816-1.975
	c0.893-0.803,1.733-1.689,2.523-2.662s1.494-1.924,2.111-2.85c0.618-0.928,1.14-1.764,1.563-2.508
	c0.424-0.744,0.727-1.299,0.91-1.664c0.092-0.184,0.27-0.275,0.532-0.275c0.264,0,0.521,0.051,0.772,0.154
	c0.253,0.104,0.464,0.246,0.636,0.43s0.223,0.365,0.154,0.549c-0.229,0.459-0.578,1.139-1.047,2.043
	c-0.47,0.904-1.053,1.9-1.752,2.988c-0.697,1.088-1.493,2.203-2.386,3.348c-0.894,1.145-1.878,2.186-2.954,3.125l-0.154,0.133
	c-0.01-0.012-0.02-0.027-0.028-0.041c-0.021-0.035-0.057-0.076-0.112-0.133l-0.112-0.092c-0.042-0.043-0.07-0.063-0.084-0.063
	h-0.256l-0.061-0.021c-0.069-0.107-0.126-0.162-0.164-0.162c-0.015,0-0.05,0.025-0.105,0.082l-0.173,0.021
	c-0.076-0.109-0.179-0.166-0.308-0.166c-0.028,0-0.096,0.035-0.197,0.102c-0.165-0.08-0.253-0.123-0.267-0.123h-0.073l-0.124-0.07
	c-0.014-0.027-0.048-0.041-0.101-0.041c-0.131,0-0.196,0.059-0.196,0.176v0.059l-0.021,0.043c-0.189-0.123-0.414-0.188-0.667-0.188
	l-0.4,0.105l-0.318-0.02l-0.268,0.08c-0.015,0-0.021-0.006-0.021-0.021c-0.076-0.053-0.126-0.08-0.154-0.08
	c-0.137,0-0.249,0.049-0.333,0.145c-0.088,0.094-0.157,0.143-0.211,0.143l-0.084-0.02h-0.08l-1.246,0.377
	c-0.144,0-0.246,0.039-0.309,0.109c-0.06,0.074-0.099,0.117-0.113,0.131l-0.276-0.021l-0.207,0.207H71.11
	c-0.15,0-0.259,0.092-0.326,0.277c-0.28,0.066-0.452,0.119-0.509,0.154c-0.059,0.031-0.176,0.084-0.351,0.158
	c-0.176,0.07-0.418,0.221-0.733,0.451c-0.313,0.229-0.467,0.377-0.46,0.436l-0.187,0.084c-0.063,0.055-0.147,0.113-0.255,0.18
	c-0.04,0.021-0.077,0.047-0.113,0.074c-0.818-0.479-1.501-1.084-2.048-1.813c-0.549-0.732-0.955-1.533-1.219-2.404
	c-0.117-0.385-0.207-0.764-0.272-1.135c-0.854,1.039-1.776,1.996-2.766,2.869c-1.076,0.951-2.21,1.723-3.4,2.318
	s-2.415,0.893-3.675,0.893c-1.121,0-2.094-0.24-2.918-0.721s-1.512-1.094-2.061-1.838c-0.55-0.744-0.956-1.551-1.219-2.42
	C48.369,74.324,48.238,73.588,48.21,72.877L48.21,72.877z M39.895,70.93c0,0.527,0.125,0.975,0.377,1.34
	c0.252,0.367,0.709,0.596,1.374,0.688c0.458-0.779,0.87-1.592,1.236-2.439c0.367-0.846,0.675-1.676,0.927-2.488
	c0.251-0.813,0.446-1.592,0.583-2.336c0.138-0.744,0.206-1.391,0.206-1.939c0-0.916-0.114-1.373-0.343-1.373
	s-0.583,0.291-1.064,0.875s-0.967,1.311-1.459,2.18c-0.492,0.871-0.922,1.797-1.288,2.781S39.895,70.105,39.895,70.93L39.895,70.93z
	 M35.911,77.42c0.802,0,1.551-0.211,2.25-0.635s1.356-1.002,1.975-1.734c-0.87-0.229-1.688-0.578-2.455-1.047
	c-0.768-0.469-1.425-1.014-1.975-1.631c-0.298,0.709-0.544,1.396-0.738,2.061c-0.195,0.664-0.292,1.246-0.292,1.75
	c0,0.391,0.091,0.693,0.274,0.91C35.132,77.313,35.453,77.42,35.911,77.42L35.911,77.42z M78.354,61.934
	c-0.55,0-1.15,0.27-1.803,0.807c-0.652,0.539-1.294,1.236-1.924,2.096c-0.629,0.857-1.225,1.824-1.785,2.9s-1.036,2.141-1.426,3.193
	c0.824-0.412,1.66-1.006,2.507-1.785c0.848-0.777,1.614-1.602,2.302-2.473c0.687-0.869,1.241-1.717,1.665-2.541
	s0.635-1.488,0.635-1.992C78.525,62.002,78.469,61.934,78.354,61.934L78.354,61.934z"/>
<path fill-rule="evenodd" clip-rule="evenodd" fill="#2B2A2A" d="M71.39,55.584c0.204-0.182,0.438-0.395,0.697-0.639
	c0.355-0.332,0.738-0.703,1.151-1.115c0.411-0.412,0.824-0.814,1.235-1.203c0.664-0.686,1.271-1.281,1.82-1.785
	c0.55-0.504,0.95-0.756,1.202-0.756c0.159,0,0.429,0.034,0.807,0.104c0.377,0.068,0.762,0.177,1.15,0.326
	c0.389,0.148,0.732,0.36,1.029,0.634c0.299,0.275,0.447,0.619,0.447,1.031c0,0.32,0.086,0.674,0.257,1.064
	c0.172,0.389,0.379,0.771,0.619,1.15c0.239,0.377,0.504,0.744,0.79,1.1c0.285,0.354,0.532,0.656,0.738,0.908
	c0.183,0.252,0.343,0.477,0.48,0.67c0.138,0.195,0.206,0.361,0.206,0.498c0,0.32-0.144,0.584-0.43,0.789
	c-0.286,0.207-0.555,0.311-0.807,0.311c-0.366,0-0.808-0.213-1.322-0.637c-0.515-0.422-1.002-0.898-1.459-1.424
	c-0.572-0.596-1.145-1.295-1.717-2.096c-0.32,0.32-0.728,0.721-1.22,1.203c-0.492,0.48-1.013,0.938-1.563,1.373
	c-0.549,0.436-1.11,0.807-1.683,1.115c-0.572,0.311-1.087,0.465-1.545,0.465c-0.321,0-0.607-0.133-0.859-0.395
	c-0.251-0.264-0.451-0.563-0.6-0.895c-0.115-0.256-0.193-0.49-0.232-0.705c0.012-0.006,0.024-0.01,0.036-0.012
	c0.053-0.008,0.093-0.041,0.121-0.104c0.028-0.061,0.085-0.104,0.169-0.131l0.058-0.082c0.072-0.051,0.117-0.092,0.135-0.127
	c0.019-0.033,0.056-0.066,0.113-0.096l0.04-0.078l0.022-0.16C71.339,55.785,71.376,55.684,71.39,55.584L71.39,55.584z"/>
<path fill-rule="evenodd" clip-rule="evenodd" fill="#2B2A2A" d="M36.243,51.316l0.047-0.057c0.025-0.039,0.064-0.061,0.113-0.066
	c0.05-0.006,0.097-0.02,0.142-0.043l0.843-0.233c0.08-0.021,0.177-0.035,0.296-0.045l0.183-0.059
	c0.049-0.023,0.119-0.033,0.211-0.033l0.189-0.041c0.016,0,0.029,0.014,0.041,0.043c0.01,0.029,0.02,0.043,0.027,0.043
	c0.179-0.117,0.294-0.178,0.343-0.178h0.012l0.136,0.035c0.023,0,0.049-0.016,0.076-0.047l0.021-0.021
	c0.084,0.037,0.131,0.057,0.139,0.057c0.057,0,0.121-0.012,0.193-0.035c0.072-0.021,0.143-0.033,0.207-0.033l0.177,0.012
	l0.394-0.023c0.023,0,0.049,0.012,0.074,0.035l0.115-0.023c0.111,0,0.221,0.016,0.328,0.045c0.109,0.031,0.24,0.055,0.392,0.068
	c0.152,0.016,0.263,0.068,0.332,0.156l0.098,0.033h0.068c0.099,0,0.16,0.04,0.177,0.122c0.023,0.043,0.068,0.088,0.139,0.135
	l0.074,0.119c-0.008,0.023-0.011,0.047-0.011,0.07c0,0.021,0.041,0.049,0.125,0.08l0.023,0.01c0.004,0.059,0.041,0.123,0.109,0.197
	c0.068,0.076,0.102,0.213,0.102,0.416v0.137l0.023,0.295c0,0.203-0.061,0.447-0.179,0.732c-0.121,0.287-0.248,0.486-0.38,0.6
	c-0.031,0.104-0.066,0.154-0.109,0.154c-0.132,0.121-0.218,0.184-0.257,0.184c-0.006,0-0.018-0.004-0.033-0.012
	c-0.051,0.092-0.132,0.172-0.25,0.24c-0.115,0.068-0.191,0.107-0.224,0.119c-0.035,0.012-0.123,0.045-0.263,0.098l-0.139-0.033
	c-0.057,0.053-0.096,0.082-0.119,0.084l-0.302,0.127c-0.255,0.068-0.423,0.104-0.503,0.104l-0.145-0.047
	c-0.021,0-0.057,0.029-0.101,0.086l-0.109,0.021c-0.023-0.021-0.098-0.039-0.222-0.051c-0.055,0.033-0.098,0.051-0.133,0.051
	l-0.251,0.033c-0.029,0-0.049-0.025-0.057-0.084l-0.051,0.018l-0.023,0.078C38.334,54.996,38.314,55,38.293,55l-0.304-0.031
	L37.847,55l-0.234-0.043l-0.115,0.012L37.4,54.922l-0.09,0.012l-0.092-0.023l-0.109,0.023l-0.023-0.012
	c-0.014,0.031-0.033,0.055-0.057,0.074s-0.053,0.059-0.092,0.119c-0.088,0.072-0.143,0.16-0.166,0.264
	c-0.023,0.104-0.09,0.16-0.199,0.172c-0.008,0.016-0.02,0.035-0.035,0.057c0.008,0.008,0.02,0.041,0.035,0.098v0.023
	c0,0.092-0.076,0.186-0.224,0.281c-0.021,0.137-0.051,0.236-0.082,0.297c-0.033,0.061-0.055,0.109-0.066,0.15
	s-0.043,0.074-0.097,0.1l-0.021,0.035v0.166c0,0.008-0.012,0.031-0.035,0.072c-0.023,0.039-0.055,0.098-0.098,0.174l-0.035,0.059
	l-0.045,0.188c-0.076,0.055-0.115,0.129-0.115,0.225l0.012,0.324c0,0.057-0.037,0.117-0.113,0.178
	c-0.074,0.061-0.148,0.092-0.22,0.092c-0.188,0-0.316-0.113-0.384-0.336l-0.035-0.047c-0.08-0.066-0.119-0.16-0.119-0.291
	c0-0.148,0.078-0.371,0.234-0.67l0.378-0.68c0.004-0.008,0.053-0.041,0.148-0.102l0.063,0.021c0.016-0.008,0.023-0.021,0.023-0.045
	c0-0.008-0.021-0.063-0.063-0.166V55.73c0-0.031,0.014-0.049,0.039-0.057l0.046-0.053l-0.011-0.113
	c0.068-0.104,0.105-0.17,0.109-0.201l0.056-0.131c0.039-0.088,0.068-0.133,0.092-0.139c0-0.15,0.047-0.262,0.138-0.336l0.045-0.096
	c0.012-0.023,0.037-0.037,0.074-0.041c0.039-0.004,0.059-0.01,0.059-0.018c0-0.014-0.006-0.033-0.018-0.057
	s-0.018-0.043-0.018-0.057c0-0.039,0.021-0.088,0.066-0.148c0.043-0.063,0.076-0.092,0.094-0.092l0.085,0.051v-0.035
	c-0.037-0.033-0.056-0.063-0.056-0.086c0-0.029,0.018-0.07,0.052-0.123c0.033-0.051,0.055-0.088,0.063-0.111l0.045-0.057
	c0.008,0,0.027-0.053,0.059-0.158c0.029-0.107,0.074-0.158,0.131-0.154v-0.059c0-0.037,0.044-0.129,0.132-0.273l0.302-0.539
	c0.008-0.037,0.039-0.105,0.092-0.199l-0.01-0.139c0-0.061,0.035-0.154,0.105-0.283c0.071-0.131,0.129-0.195,0.174-0.195
	c0.023,0,0.039,0.004,0.049,0.012s0.018,0.012,0.025,0.012l0.092-0.012l0.183,0.166c0.049,0.041,0.078,0.115,0.086,0.223
	l0.023,0.033c0.094,0.174,0.142,0.299,0.142,0.371c0,0.092-0.01,0.16-0.025,0.209c-0.017,0.047-0.076,0.104-0.175,0.168
	c-0.096,0.111-0.154,0.207-0.177,0.289c-0.022,0.082-0.061,0.16-0.117,0.232c-0.055,0.07-0.104,0.178-0.145,0.318
	c-0.043,0.141-0.115,0.246-0.218,0.314c-0.012,0.104-0.025,0.189-0.045,0.264v0.01c0,0.023,0.016,0.035,0.045,0.035l0.189-0.023
	c0.023,0,0.051,0.006,0.082,0.018c0.033,0.012,0.064,0.018,0.096,0.018c0.029,0,0.068-0.016,0.113-0.047h0.035
	c0.014,0,0.063,0.02,0.143,0.059l0.023-0.012c0.021-0.039,0.045-0.057,0.068-0.057l0.222,0.021l0.109-0.012
	c0.052-0.033,0.134-0.053,0.248-0.057c0.111-0.004,0.189-0.016,0.234-0.033c0.043-0.02,0.082-0.031,0.117-0.035
	c0.033-0.004,0.078-0.02,0.135-0.045c0.054-0.027,0.101-0.041,0.138-0.041c0.088,0,0.21-0.039,0.367-0.119
	c0.053,0.014,0.084,0.021,0.091,0.021c0.073,0,0.131-0.029,0.176-0.092c0.047-0.061,0.098-0.094,0.154-0.102l0.349-0.154
	c0.031-0.012,0.097-0.074,0.199-0.188l0.104-0.068l0.068-0.098c0-0.008,0.037-0.029,0.109-0.068
	c-0.016-0.008-0.027-0.02-0.035-0.033l0.127-0.145c-0.008-0.037-0.012-0.061-0.012-0.068v-0.021c0.037-0.059,0.078-0.1,0.117-0.127
	c0.041-0.027,0.06-0.043,0.06-0.051l-0.058-0.068c0.054-0.055,0.08-0.088,0.08-0.104l-0.021-0.166l0.021-0.289
	c0-0.148-0.008-0.246-0.027-0.289c-0.02-0.045-0.034-0.088-0.042-0.135c-0.072-0.141-0.173-0.258-0.302-0.35
	c-0.012-0.006-0.018-0.02-0.018-0.039l-0.012-0.057v-0.023l-0.181,0.023c-0.008,0-0.021-0.02-0.037-0.059
	c-0.018-0.037-0.045-0.057-0.084-0.057l-0.08,0.035h-0.012c-0.027,0-0.094-0.037-0.199-0.109c-0.023-0.008-0.072-0.012-0.144-0.012
	l-0.08-0.033c-0.021-0.016-0.041-0.023-0.057-0.023h-0.035l-0.13,0.023l-0.292-0.023l-0.176-0.035
	c-0.066,0.047-0.107,0.07-0.126,0.07c-0.016,0-0.051-0.012-0.109-0.035h-0.01l-0.172,0.023c-0.055,0.008-0.097,0.014-0.132,0.021
	h-0.033c-0.127,0-0.225-0.01-0.293-0.033h-0.033c-0.043,0-0.076,0.014-0.104,0.043c-0.027,0.027-0.051,0.043-0.074,0.043
	c-0.016,0-0.035-0.025-0.059-0.074c-0.048,0.037-0.085,0.063-0.107,0.074l-0.104-0.041c-0.016,0.031-0.131,0.063-0.349,0.098
	l-0.273,0.057l-0.047-0.012c-0.087,0.031-0.16,0.053-0.216,0.064c-0.059,0.01-0.107,0.027-0.152,0.047
	c-0.043,0.021-0.09,0.037-0.14,0.043c-0.049,0.008-0.121,0.027-0.217,0.059l-0.091-0.023c-0.072,0.041-0.178,0.092-0.314,0.148
	c-0.139,0.057-0.225,0.104-0.258,0.137c-0.035,0.035-0.066,0.053-0.097,0.053c-0.008,0-0.031-0.004-0.068-0.012h-0.012
	c-0.035,0-0.09,0.039-0.168,0.117s-0.146,0.133-0.203,0.168c-0.059,0.035-0.109,0.086-0.152,0.16
	c-0.045,0.074-0.145,0.129-0.301,0.164c-0.008,0.008-0.016,0.02-0.023,0.033v0.092c-0.061,0.035-0.115,0.102-0.166,0.201
	l-0.033,0.057l-0.012,0.107c0,0.115-0.016,0.176-0.047,0.184c-0.029,0.008-0.061,0.023-0.094,0.049s-0.064,0.037-0.094,0.037
	c-0.066,0-0.126-0.057-0.183-0.172c-0.057-0.113-0.085-0.184-0.085-0.205c0-0.227,0.074-0.391,0.222-0.498l0.423-0.307
	c0.143-0.104,0.262-0.154,0.361-0.154c0.032-0.016,0.063-0.053,0.098-0.109c0.033-0.057,0.111-0.1,0.234-0.127l0.092,0.035
	c0.008,0,0.02-0.016,0.033-0.045c0.016-0.031,0.041-0.057,0.072-0.074c0.033-0.02,0.061-0.045,0.084-0.076l0.148-0.096
	c0.008,0,0.016-0.004,0.023-0.012l0.086,0.023c0.008,0,0.018-0.004,0.033-0.012s0.043-0.012,0.08-0.012
	c0.016,0,0.027-0.02,0.035-0.057C36.196,51.332,36.216,51.32,36.243,51.316L36.243,51.316z"/>
<path fill-rule="evenodd" clip-rule="evenodd" fill="#2B2A2A" d="M68.104,56.51l0.09-0.08c0.056,0,0.091-0.025,0.101-0.076
	c0.012-0.051,0.053-0.092,0.123-0.123c0.07-0.029,0.135-0.092,0.195-0.186c0.06-0.094,0.122-0.141,0.188-0.141
	c0.022,0,0.049,0.02,0.079,0.057c0.029,0.039,0.045,0.068,0.045,0.092c0,0.127-0.039,0.256-0.114,0.389L68.787,56.6l-0.04,0.076
	c-0.058,0.029-0.095,0.063-0.111,0.096c-0.019,0.035-0.063,0.076-0.135,0.127l-0.057,0.08c-0.084,0.027-0.141,0.07-0.168,0.131
	c-0.028,0.063-0.068,0.096-0.121,0.104c-0.051,0.008-0.107,0.045-0.167,0.115c-0.039,0.018-0.085,0.035-0.137,0.051l-0.012,0.057
	c-0.039,0.039-0.1,0.068-0.182,0.092c-0.08,0.023-0.143,0.045-0.182,0.066c-0.041,0.021-0.068,0.029-0.084,0.029
	c-0.072,0-0.138-0.012-0.198-0.041s-0.125-0.047-0.189-0.055c-0.021-0.021-0.035-0.047-0.039-0.074
	c-0.004-0.025-0.023-0.061-0.059-0.105c-0.033-0.043-0.051-0.104-0.051-0.18l0.023-0.109c0-0.014-0.01-0.033-0.028-0.057
	c-0.021-0.021-0.03-0.041-0.03-0.057s0.004-0.027,0.013-0.035c0.008-0.006,0.011-0.018,0.011-0.033c0-0.02-0.003-0.041-0.011-0.063
	c-0.009-0.023-0.013-0.043-0.013-0.057l0.035-0.281c0-0.023-0.008-0.033-0.022-0.033c-0.014,0-0.044,0.018-0.082,0.057
	c-0.042,0.039-0.089,0.057-0.142,0.057c-0.031,0.023-0.054,0.072-0.073,0.145c-0.031,0.037-0.068,0.072-0.115,0.104l-0.023,0.033
	c-0.008,0.027-0.035,0.049-0.086,0.066c-0.049,0.018-0.084,0.039-0.102,0.066l-0.059,0.057l-0.108-0.012
	c-0.006,0.008-0.027,0.041-0.063,0.1c-0.033,0.061-0.078,0.109-0.131,0.146l-0.436,0.355c-0.046,0.031-0.112,0.068-0.201,0.115
	l-0.034,0.031c-0.304,0.203-0.521,0.305-0.646,0.305c-0.104,0-0.224-0.029-0.361-0.086c-0.136-0.057-0.211-0.125-0.222-0.207
	l-0.059-0.232c-0.033-0.053-0.051-0.127-0.051-0.223c0-0.047,0.004-0.076,0.012-0.092v-0.035l-0.012-0.188
	c0-0.047,0.037-0.07,0.109-0.07l-0.013-0.154c0-0.016,0.034-0.074,0.1-0.18c0.066-0.105,0.111-0.166,0.135-0.182l0.057-0.074
	c-0.004-0.043,0.023-0.094,0.081-0.145s0.103-0.104,0.138-0.156c0.035-0.055,0.1-0.113,0.195-0.178l0.171-0.172
	c0.135-0.135,0.281-0.24,0.438-0.32c0.023-0.008,0.07-0.047,0.141-0.115c0.069-0.068,0.152-0.119,0.242-0.152
	c0.089-0.031,0.177-0.072,0.262-0.121c0.086-0.049,0.155-0.074,0.203-0.074h0.048c0.015,0,0.116-0.047,0.304-0.143h0.033
	c0.016,0,0.053,0.016,0.108,0.045h0.013l0.091-0.045c0.017-0.008,0.035-0.012,0.059-0.012c0.236,0,0.367,0.164,0.391,0.488
	c0.008,0.068,0.026,0.104,0.057,0.104c0.039,0,0.094-0.07,0.163-0.209c0.07-0.139,0.221-0.207,0.448-0.207
	c0.165,0,0.246,0.104,0.246,0.313c0,0.248-0.108,0.484-0.329,0.705c-0.016,0.031-0.027,0.064-0.035,0.104l-0.08,0.234v0.01
	c0,0.023-0.016,0.055-0.049,0.094c-0.032,0.041-0.049,0.076-0.049,0.105l0.012,0.145l-0.022,0.16c0,0.072,0.014,0.119,0.041,0.143
	c0.12-0.031,0.208-0.082,0.263-0.152s0.093-0.109,0.115-0.117l0.057-0.023C68.018,56.596,68.056,56.549,68.104,56.51L68.104,56.51z
	 M66.205,56.512c0.014-0.084,0.061-0.145,0.139-0.189c0.078-0.043,0.125-0.088,0.141-0.135c0.072-0.053,0.175-0.148,0.31-0.285
	s0.201-0.221,0.201-0.252c0-0.01-0.008-0.016-0.021-0.016h-0.012l-0.047,0.027l-0.102-0.012l-0.109,0.012l-0.077-0.039l-0.074,0.012
	l-0.115-0.023c-0.061,0-0.113,0.012-0.156,0.037s-0.126,0.053-0.25,0.082c-0.124,0.031-0.235,0.084-0.333,0.158
	C65.599,55.963,65.527,56,65.482,56c-0.027,0.057-0.116,0.139-0.269,0.246c-0.091,0.029-0.149,0.094-0.177,0.197
	c-0.098,0.08-0.148,0.125-0.148,0.137l-0.039,0.098c-0.031,0.027-0.067,0.049-0.115,0.066c-0.045,0.016-0.072,0.057-0.079,0.119
	c-0.008,0.063-0.034,0.119-0.076,0.172c-0.045,0.051-0.066,0.092-0.066,0.123c0,0.186,0.037,0.279,0.108,0.279
	c0.03,0,0.094-0.02,0.192-0.061c0.097-0.039,0.152-0.066,0.167-0.082c0.016-0.016,0.045-0.031,0.092-0.047l0.107-0.057
	c0.016-0.016,0.033-0.023,0.051-0.027c0.02-0.004,0.038-0.018,0.059-0.037c0.018-0.021,0.053-0.045,0.101-0.07
	c0.052-0.023,0.088-0.057,0.115-0.1c0.064-0.037,0.168-0.096,0.313-0.176l0.119-0.092c0.084-0.039,0.135-0.07,0.153-0.098
	C66.11,56.564,66.147,56.539,66.205,56.512L66.205,56.512z"/>
<path fill-rule="evenodd" clip-rule="evenodd" fill="#BF000A" d="M33.935,85.619l0.319-0.186c0.306-0.164,0.53-0.264,0.685-0.295
	c0.151-0.027,0.274-0.07,0.372-0.115c0.095-0.049,0.302-0.096,0.618-0.137l0.105-0.039c0.066-0.027,0.123-0.043,0.165-0.043
	c0.014,0,0.084,0.021,0.218,0.064l0.186,0.018c0.337,0.027,0.583,0.357,0.741,0.988v0.258c0,0.08,0.028,0.121,0.084,0.121
	c0.042,0,0.095-0.055,0.158-0.168c0.067-0.115,0.13-0.182,0.193-0.203c0.06-0.018,0.134-0.063,0.218-0.133
	c0.088-0.068,0.218-0.102,0.396-0.102c0.281,0,0.463,0.115,0.547,0.35v0.135l0.039,0.463c0,0.053-0.036,0.133-0.112,0.238
	c-0.074,0.109-0.176,0.277-0.298,0.512l-0.133,0.172c-0.081,0.1-0.197,0.254-0.341,0.463l-0.039,0.043l-0.165,0.043l-0.084,0.42
	l-0.193,0.102c-0.063,0.24-0.102,0.373-0.116,0.391c-0.011,0.021-0.077,0.053-0.193,0.094c-0.116,0.043-0.175,0.1-0.175,0.176
	c0,0.109,0.045,0.166,0.133,0.166c0.053,0,0.158-0.033,0.316-0.096c0.154-0.059,0.284-0.105,0.386-0.133
	c0.014,0.014,0.028,0.021,0.042,0.021c0.007,0,0.066-0.033,0.179-0.092c0.112-0.064,0.176-0.105,0.19-0.131
	c0.01-0.02,0.087-0.055,0.224-0.094l0.478-0.361h0.204c0.028,0,0.06-0.021,0.091-0.07l0.337-0.277
	c0.116-0.096,0.291-0.215,0.526-0.354c0.235-0.143,0.4-0.268,0.495-0.383c0.095-0.117,0.165-0.176,0.204-0.176
	c0.081,0,0.123,0.066,0.123,0.195l-0.042,0.162l0.021,0.34c0,0.172-0.102,0.316-0.305,0.443l-0.074,0.059
	c-0.095,0.07-0.175,0.115-0.246,0.145c-0.021,0.088-0.077,0.164-0.172,0.225c-0.098,0.063-0.21,0.145-0.344,0.242
	s-0.253,0.16-0.365,0.189c-0.039,0.109-0.123,0.176-0.249,0.195c-0.126,0.021-0.256,0.1-0.39,0.232s-0.232,0.201-0.302,0.201
	l-0.172-0.021c-0.13,0.143-0.228,0.213-0.288,0.213h-0.053l-0.081-0.02c-0.028,0-0.066,0.035-0.119,0.098
	c-0.049,0.066-0.141,0.115-0.271,0.154c-0.129,0.039-0.217,0.078-0.267,0.123c-0.045,0.045-0.109,0.066-0.183,0.066l0.172,0.75
	v0.043c0,0.074-0.018,0.229-0.06,0.459h-0.112c-0.07,0-0.102,0.039-0.102,0.117c0,0.102,0.045,0.174,0.144,0.225
	c0,0.055-0.021,0.133-0.063,0.23c-0.042,0.1-0.063,0.215-0.063,0.346c0,0.068-0.053,0.178-0.162,0.324
	c-0.109,0.148-0.193,0.316-0.246,0.514c-0.056,0.195-0.186,0.445-0.39,0.754l-0.063,0.299c-0.147,0.414-0.249,0.629-0.302,0.643
	c-0.053,0.018-0.077,0.035-0.077,0.049l0.021,0.111c0,0.016-0.028,0.074-0.084,0.188l-0.017,0.059c0,0.029-0.025,0.08-0.074,0.162
	c-0.049,0.076-0.112,0.199-0.196,0.365l-0.091,0.092v0.223l-0.042,0.086c-0.081,0.086-0.141,0.168-0.172,0.234
	c-0.035,0.07-0.102,0.145-0.197,0.229c-0.095,0.08-0.154,0.15-0.168,0.211c-0.018,0.055-0.05,0.111-0.088,0.168
	c-0.042,0.057-0.084,0.123-0.13,0.199c-0.046,0.08-0.095,0.154-0.147,0.221c-0.056,0.07-0.095,0.131-0.116,0.18
	c-0.018,0.053-0.073,0.096-0.158,0.131c-0.084,0.033-0.151,0.072-0.189,0.111c-0.042,0.043-0.105,0.063-0.186,0.063h-0.112
	l-0.165,0.135c-0.316,0-0.533-0.096-0.66-0.285c-0.123-0.186-0.183-0.375-0.183-0.559l0.172-0.969
	c0.056-0.326,0.084-0.512,0.084-0.553c0-0.043,0.046-0.174,0.133-0.396c0.088-0.223,0.141-0.396,0.155-0.527l0.07-0.164
	c0.056-0.158,0.098-0.285,0.126-0.383l0.709-1.604c0.144-0.316,0.277-0.566,0.4-0.752l0.091-0.215l0.165-0.297v-0.166
	c0-0.027,0.07-0.111,0.207-0.256c0.035-0.158,0.112-0.361,0.235-0.607l0.105-0.297l-0.228-0.383c0-0.109,0.189-0.24,0.565-0.391
	l0.102-0.07c0.078-0.248,0.218-0.498,0.425-0.75v-0.219c0-0.08,0.063-0.186,0.193-0.309l0.021-0.07l-0.091,0.021
	c-0.049,0.096-0.129,0.15-0.249,0.168c-0.116,0.018-0.2,0.053-0.256,0.109c-0.057,0.057-0.091,0.08-0.105,0.08l-0.123-0.039
	c-0.028,0-0.084,0.074-0.168,0.223c-0.088,0.146-0.256,0.27-0.513,0.365c-0.042,0.02-0.091,0.059-0.144,0.115
	c-0.056,0.053-0.102,0.092-0.14,0.111c-0.039,0.021-0.081,0.061-0.13,0.113c-0.045,0.057-0.077,0.084-0.091,0.084l-0.186-0.063
	c-0.07,0.098-0.147,0.176-0.238,0.238c0,0.014-0.007,0.021-0.021,0.021l-0.144-0.021l-0.404,0.287c-0.014,0-0.024,0.012-0.039,0.031
	l-0.196-0.053c-0.2,0.215-0.333,0.32-0.404,0.32l-0.424,0.084l-0.204-0.021l-0.144,0.021c-0.056,0-0.193-0.043-0.418-0.129
	c-0.221-0.086-0.365-0.197-0.424-0.334c-0.063-0.137-0.095-0.313-0.095-0.527c0-0.348,0.039-0.605,0.119-0.775
	c0.077-0.168,0.126-0.322,0.147-0.463c0.021-0.141,0.081-0.268,0.183-0.371c0.098-0.105,0.214-0.246,0.347-0.422
	c0.134-0.176,0.235-0.295,0.306-0.361c0.066-0.063,0.119-0.115,0.154-0.158c0.225-0.27,0.421-0.404,0.586-0.404
	c0.035-0.037,0.077-0.107,0.126-0.203l0.123-0.084c0.091-0.053,0.172-0.119,0.242-0.197c0.074-0.072,0.2-0.143,0.379-0.203
	C33.784,85.703,33.836,85.654,33.935,85.619L33.935,85.619z M76.46,78.928c-0.354,0.27-0.716,0.52-1.084,0.752
	c-1.32,0.834-2.7,1.25-4.143,1.25c-0.501,0-0.974-0.057-1.416-0.17c-0.03,0.029-0.056,0.064-0.076,0.107
	c-0.052,0.1-0.111,0.148-0.179,0.148l-0.207-0.043l-0.111,0.207c-0.145,0.035-0.229,0.057-0.25,0.061
	c-0.087,0.119-0.176,0.207-0.267,0.27c-0.088,0.061-0.176,0.127-0.263,0.199c-0.085,0.07-0.145,0.145-0.183,0.223
	c-0.039,0.072-0.096,0.133-0.172,0.178c-0.074,0.047-0.141,0.137-0.193,0.275l-0.105,0.102c-0.168,0.143-0.257,0.297-0.257,0.463
	c0,0.115,0.085,0.199,0.25,0.256c0.161,0.057,0.267,0.098,0.306,0.133c0.041,0.035,0.104,0.053,0.186,0.053
	c0.084,0,0.161,0.018,0.238,0.049c0.074,0.035,0.2,0.092,0.38,0.166c0.034,0.111,0.066,0.164,0.102,0.164
	c0.014,0,0.042-0.027,0.084-0.08c0.038-0.057,0.102-0.084,0.183-0.084c0.091,0,0.176,0.057,0.26,0.164l0.08-0.059h0.043l0.133,0.039
	h0.021l0.122-0.061c0.014-0.014,0.035-0.021,0.061-0.021c0.021,0,0.126,0.035,0.318,0.102h0.021c0.014,0,0.07-0.014,0.165-0.041
	c0.102,0.027,0.162,0.049,0.176,0.063l0.144,0.08c0,0.021,0.015,0.031,0.039,0.031c0.027,0,0.069-0.014,0.126-0.045
	c0.053-0.031,0.105-0.045,0.15-0.045c0.057,0,0.12,0.039,0.187,0.111c0.109-0.049,0.172-0.07,0.186-0.07
	c0.061,0,0.169,0.049,0.32,0.154l0.192,0.039h0.229l0.337,0.063c0.098,0.104,0.196,0.184,0.298,0.236
	c0.014-0.074,0.063-0.113,0.145-0.113c0.111,0,0.276,0.047,0.505,0.135l0.081,0.02l0.084,0.061c0.116-0.025,0.186-0.039,0.214-0.039
	c0.138,0,0.207,0.047,0.207,0.145c0,0.08-0.021,0.189-0.063,0.318c0.014,0,0.034,0.016,0.063,0.039
	c0.031-0.039,0.07-0.066,0.112-0.08l0.165-0.096c0.028-0.023,0.046-0.037,0.06-0.037c0.158,0,0.383,0.107,0.67,0.328
	c0.288,0.219,0.453,0.467,0.492,0.748c0,0.084,0.028,0.18,0.083,0.289l-0.041,0.133l0.021,0.164c0,0.014-0.014,0.064-0.042,0.145
	l-0.021,0.154c-0.015,0.027-0.032,0.053-0.06,0.074c-0.029,0.021-0.05,0.045-0.063,0.07l0.063,0.176v0.041
	c0,0.029-0.029,0.063-0.078,0.113c-0.052,0.049-0.084,0.09-0.098,0.133c-0.014,0.041-0.039,0.084-0.074,0.129
	c-0.031,0.043-0.056,0.1-0.069,0.158c-0.015,0.064-0.081,0.133-0.2,0.211c-0.12,0.08-0.18,0.141-0.18,0.18
	c0,0.041,0.011,0.063,0.039,0.063c0.084,0,0.168-0.039,0.263-0.119c0.092-0.078,0.162-0.123,0.211-0.137
	c0.046-0.014,0.13-0.057,0.246-0.123l0.965-0.453c0.719-0.344,1.119-0.516,1.2-0.516c0.108,0,0.165,0.057,0.165,0.166
	c0,0.041-0.05,0.119-0.144,0.238c-0.015,0.318-0.155,0.508-0.422,0.564c-0.105,0.066-0.182,0.141-0.238,0.215h-0.081
	c-0.172,0.191-0.368,0.287-0.586,0.287h-0.063c-0.253,0.252-0.563,0.396-0.928,0.42c-0.238,0.244-0.438,0.363-0.597,0.363
	l-0.164,0.041c-0.172,0.066-0.291,0.102-0.358,0.102c-0.014,0-0.042,0.029-0.084,0.082l-0.154,0.115
	c-0.13,0.023-0.271,0.102-0.422,0.225c-0.15,0.123-0.266,0.193-0.343,0.211c-0.081,0.018-0.165,0.045-0.254,0.088
	c-0.087,0.041-0.448,0.273-1.08,0.697l-0.134,0.043c-0.267,0.123-0.435,0.225-0.505,0.301c-0.067,0.082-0.151,0.148-0.246,0.201
	H71.11c-0.158,0-0.341,0.105-0.555,0.309c-0.014,0.035-0.161,0.092-0.448,0.172c-0.285,0.076-0.556,0.199-0.818,0.365
	c-0.165,0.039-0.365,0.094-0.606,0.16c-0.239,0.07-0.415,0.113-0.523,0.127l-0.72,0.154c-0.157,0.025-0.34,0.066-0.547,0.123
	c-0.124-0.041-0.229-0.063-0.32-0.063l-0.183,0.021c-0.027,0-0.073-0.025-0.129-0.072c-0.061-0.049-0.137-0.094-0.232-0.139
	c-0.094-0.047-0.144-0.162-0.144-0.355c0-0.172,0.189-0.34,0.565-0.508c0.379-0.17,0.625-0.289,0.743-0.355
	c0.054-0.076,0.148-0.119,0.281-0.133c0.137-0.014,0.25-0.057,0.348-0.123c0.095-0.07,0.242-0.129,0.442-0.186l0.41-0.219
	c0.021-0.01,0.039-0.018,0.053-0.018h0.145c0.049,0,0.118-0.039,0.217-0.115c0.095-0.074,0.193-0.129,0.299-0.164h0.123
	c0.014,0,0.034-0.014,0.063-0.051c0.024-0.033,0.088-0.08,0.186-0.133l0.028-0.021h0.105c0.073-0.063,0.165-0.111,0.267-0.154
	c0.103-0.041,0.204-0.094,0.299-0.164l0.804-0.309l0.186,0.021c0.042,0,0.095-0.033,0.158-0.1c0.067-0.063,0.218-0.129,0.46-0.199
	c0.034-0.053,0.104-0.119,0.218-0.193c0.108-0.076,0.238-0.186,0.39-0.33l0.217-0.197l0.081-0.203l0.271-0.299
	c0.137-0.227,0.249-0.361,0.336-0.398c0.015-0.057,0.036-0.109,0.064-0.154c0.027-0.051,0.048-0.127,0.063-0.229l0.091-0.166
	c0.028-0.027,0.043-0.045,0.043-0.059s-0.028-0.057-0.085-0.123l-0.049-0.217c0-0.057-0.183-0.236-0.548-0.545h-0.08l-0.741-0.361
	l-0.042-0.102l-0.084-0.021l-0.102,0.043h-0.021l-0.348-0.102c-0.283-0.078-0.466-0.135-0.558-0.176
	c-0.014,0.014-0.035,0.02-0.06,0.02l-0.414-0.094c-0.116-0.027-0.187-0.057-0.211-0.088c-0.024-0.027-0.08-0.059-0.176-0.092
	c-0.091-0.031-0.15-0.059-0.179-0.088c-0.028-0.027-0.084-0.041-0.165-0.041l-0.256,0.063c0-0.021-0.099-0.057-0.288-0.102
	c-0.028-0.07-0.049-0.105-0.063-0.105l-0.298,0.043c-0.2-0.096-0.303-0.145-0.31-0.145c-0.035,0-0.154-0.018-0.361-0.057
	c-0.204-0.037-0.337-0.076-0.4-0.119c-0.06-0.039-0.154-0.08-0.276-0.123l-0.063-0.059c-0.015-0.014-0.05-0.029-0.113-0.043h-0.186
	c-0.038,0-0.095-0.035-0.169-0.102c-0.069-0.07-0.164-0.137-0.276-0.207c-0.112-0.066-0.214-0.176-0.299-0.322
	c-0.084-0.148-0.133-0.299-0.14-0.449c-0.011-0.012-0.018-0.025-0.018-0.039l0.06-0.33c0.063-0.418,0.256-0.803,0.586-1.162
	c0.056-0.186,0.168-0.318,0.34-0.398l0.043-0.145c0.196-0.172,0.34-0.309,0.425-0.41c0.087-0.105,0.182-0.189,0.294-0.254
	c0.109-0.066,0.193-0.125,0.257-0.178l0.186-0.086c-0.007-0.059,0.147-0.207,0.46-0.434c0.315-0.232,0.558-0.383,0.733-0.453
	c0.176-0.074,0.291-0.127,0.351-0.158c0.057-0.035,0.229-0.088,0.509-0.154c0.066-0.186,0.176-0.277,0.327-0.277h0.154l0.207-0.207
	l0.277,0.021c0.014-0.014,0.052-0.057,0.111-0.131c0.064-0.07,0.165-0.107,0.31-0.107l1.245-0.381h0.081l0.084,0.021
	c0.053,0,0.123-0.049,0.211-0.143c0.084-0.096,0.196-0.145,0.334-0.145c0.027,0,0.076,0.027,0.154,0.08
	c0,0.016,0.007,0.021,0.021,0.021l0.266-0.08l0.319,0.021l0.4-0.105c0.253,0,0.477,0.063,0.666,0.186l0.021-0.043v-0.059
	c0-0.115,0.067-0.176,0.196-0.176c0.053,0,0.089,0.014,0.103,0.041l0.122,0.07h0.074c0.015,0,0.102,0.043,0.267,0.123
	c0.102-0.066,0.169-0.102,0.196-0.102c0.131,0,0.231,0.057,0.31,0.166l0.172-0.021c0.056-0.057,0.091-0.08,0.105-0.08
	c0.038,0,0.095,0.053,0.165,0.16l0.059,0.021h0.257c0.014,0,0.042,0.021,0.085,0.063l0.111,0.092
	c0.057,0.057,0.092,0.098,0.112,0.133s0.045,0.066,0.074,0.092c0.179-0.074,0.273-0.113,0.288-0.113
	c0.065,0,0.118,0.061,0.153,0.176c0,0.096,0.061,0.189,0.18,0.281c0.119,0.096,0.179,0.193,0.179,0.295
	c0.15,0.066,0.229,0.176,0.229,0.326l0.192,0.506l-0.038,0.172c0.053,0.111,0.081,0.172,0.081,0.186l-0.043,0.379l0.043,0.4
	c0,0.215-0.099,0.393-0.299,0.545c-0.042,0-0.108,0.031-0.2,0.086c-0.091,0.061-0.147,0.088-0.158,0.088
	c-0.179,0-0.298-0.041-0.357-0.129c-0.057-0.084-0.112-0.148-0.169-0.189c-0.053-0.039-0.08-0.096-0.08-0.166
	c0-0.154,0.105-0.309,0.319-0.459c0.094,0,0.161-0.031,0.203-0.094c0-0.141-0.031-0.242-0.091-0.295
	c-0.063-0.057-0.13-0.131-0.2-0.229c-0.074-0.096-0.151-0.172-0.231-0.232c-0.084-0.055-0.151-0.129-0.2-0.217
	c-0.053-0.092-0.098-0.133-0.141-0.133l-0.144,0.018l-0.299-0.061c-0.315-0.043-0.604-0.111-0.863-0.217H76.46L76.46,78.928z
	 M94.079,86.332c0.066-0.043,0.104-0.113,0.109-0.211c0.015-0.158,0.13-0.295,0.341-0.41l0.123-0.176
	c0.104-0.102,0.386-0.234,0.845-0.4c0.117-0.07,0.197-0.129,0.235-0.186c0.015-0.014,0.028-0.021,0.043-0.021l0.164,0.043
	c0.089,0,0.204-0.025,0.344-0.074c0.142-0.045,0.278-0.07,0.407-0.07l0.432-0.021c0.028,0,0.085,0.021,0.172,0.064
	c0.085,0.037,0.189,0.059,0.313,0.059c0.15,0,0.291,0.07,0.417,0.207s0.189,0.264,0.189,0.379c0,0.215-0.108,0.428-0.33,0.65
	c-0.222,0.217-0.396,0.34-0.526,0.367c-0.115,0.117-0.207,0.189-0.271,0.223c-0.059,0.031-0.122,0.08-0.189,0.143
	c-0.066,0.066-0.118,0.1-0.161,0.1c-0.024,0-0.046-0.008-0.06-0.025c-0.015-0.018-0.035-0.027-0.063-0.027
	c-0.109,0-0.232,0.137-0.362,0.402l-0.186-0.021c-0.116,0.074-0.193,0.158-0.225,0.246c-0.035,0.092-0.109,0.135-0.218,0.135
	c-0.256,0.256-0.428,0.381-0.516,0.381c-0.015,0-0.063-0.014-0.145-0.041c-0.056,0.066-0.084,0.141-0.084,0.213
	c0,0.086-0.056,0.135-0.165,0.145l-0.133,0.127l-0.105-0.021l-0.204,0.215c-0.104,0-0.21,0.033-0.323,0.105
	c-0.014,0.08-0.031,0.186-0.06,0.311c-0.027,0.127-0.041,0.197-0.041,0.211c0,0.201,0.183,0.299,0.544,0.299l0.494-0.07
	c0.13,0,0.253-0.035,0.365-0.105c0.112-0.066,0.234-0.102,0.365-0.102c0.042,0,0.104-0.014,0.186-0.043l0.102,0.043
	c0.05-0.102,0.138-0.193,0.271-0.277c0.13-0.08,0.232-0.123,0.309-0.123l0.103-0.059c0.028-0.084,0.066-0.137,0.122-0.166
	l0.081-0.074c0.057-0.051,0.108-0.08,0.154-0.08h0.144l0.042-0.021c0.085-0.176,0.197-0.279,0.344-0.313
	c0.148-0.031,0.243-0.08,0.281-0.146c0.036-0.07,0.102-0.109,0.2-0.123c0.095-0.014,0.176-0.059,0.242-0.141
	c0.063-0.076,0.145-0.15,0.238-0.221c0.099-0.066,0.166-0.119,0.204-0.15c0.035-0.035,0.07-0.053,0.095-0.053
	c0.042,0,0.063,0.031,0.063,0.09c0,0.064,0.014,0.096,0.041,0.096c0.028,0,0.043-0.014,0.043-0.043c0-0.027-0.008-0.063-0.021-0.102
	v-0.072c0-0.104,0.053-0.17,0.165-0.205l0.46-0.297c0.014-0.145,0.057-0.229,0.119-0.25c0.066-0.023,0.116-0.053,0.151-0.084
	c0.032-0.031,0.069-0.045,0.111-0.045c0.089,0,0.134,0.053,0.134,0.154l-0.052,0.266L100,87.209c0,0.043-0.031,0.098-0.098,0.168
	c-0.063,0.074-0.112,0.184-0.147,0.33c-0.035,0.148-0.081,0.229-0.134,0.238h-0.063c-0.124,0.135-0.222,0.207-0.292,0.232
	c-0.073,0.025-0.13,0.066-0.172,0.131l-0.347,0.398c-0.067,0.068-0.127,0.131-0.176,0.188c-0.046,0.053-0.085,0.08-0.113,0.08
	l-0.08-0.08c0-0.016-0.014-0.021-0.042-0.021c-0.07,0-0.112,0.039-0.13,0.123c-0.018,0.08-0.053,0.154-0.105,0.213
	c-0.207,0.1-0.34,0.188-0.4,0.268l-0.063,0.021h-0.187c-0.087,0-0.151,0.066-0.183,0.199c-0.034,0.133-0.133,0.211-0.294,0.232
	c-0.161,0.02-0.274,0.063-0.344,0.123c-0.015,0.014-0.046,0.027-0.092,0.041c-0.05,0.014-0.144,0.066-0.288,0.166l-0.863,0.305
	c-0.066,0.035-0.112,0.053-0.133,0.053l-0.288,0.041c-0.042,0-0.081-0.027-0.122-0.084c-0.043-0.053-0.071-0.08-0.081-0.08
	l-0.187,0.059c-0.137,0.043-0.267,0.064-0.39,0.064c-0.07,0-0.144-0.025-0.228-0.074c-0.081-0.045-0.147-0.08-0.193-0.102
	c-0.2,0-0.34-0.154-0.422-0.463L93.224,90c-0.028,0-0.12-0.242-0.277-0.73c-0.042-0.057-0.108-0.096-0.196-0.119
	c-0.088-0.025-0.134-0.092-0.134-0.201c0-0.309,0.067-0.516,0.2-0.621s0.207-0.186,0.222-0.242l0.105-0.393
	c-0.023,0.018-0.047,0.027-0.071,0.031c-0.158,0.242-0.277,0.361-0.358,0.361c-0.041,0-0.087-0.018-0.14-0.053
	c-0.05-0.031-0.084-0.049-0.098-0.049c-0.039,0-0.074,0.082-0.103,0.246c-0.042,0.063-0.154,0.162-0.337,0.299
	c-0.028,0-0.077-0.039-0.147-0.123c0-0.014-0.003-0.021-0.017-0.021c-0.113,0-0.18,0.063-0.204,0.186
	c-0.021,0.123-0.099,0.193-0.229,0.207l-0.414,0.07l-0.235-0.018c-0.056,0-0.172,0.166-0.354,0.502
	c-0.183,0.338-0.296,0.512-0.334,0.527c-0.214,0.07-0.361,0.195-0.442,0.381l-0.123,0.061l-0.073,0.145
	c-0.028,0.076-0.095,0.115-0.207,0.115c-0.011,0-0.127,0.039-0.337,0.123c-0.214,0.08-0.39,0.123-0.526,0.123l-0.28,0.021
	c-0.169,0-0.33-0.047-0.492-0.141c-0.157-0.092-0.273-0.176-0.34-0.25c-0.07-0.076-0.165-0.301-0.285-0.68
	c-0.118-0.377-0.179-0.604-0.179-0.678c0-0.268,0.074-0.414,0.218-0.443c0-0.041-0.035-0.119-0.098-0.23
	c-0.067-0.113-0.099-0.176-0.099-0.189c0-0.426,0.092-0.756,0.277-0.99c-0.081-0.266-0.123-0.414-0.123-0.441
	c0-0.016,0.018-0.07,0.049-0.168c0.036-0.1,0.061-0.189,0.074-0.275c0.014-0.08,0.035-0.15,0.063-0.203l0.018-0.176
	c0.015-0.08,0.067-0.123,0.154-0.123c0.043,0,0.063-0.027,0.063-0.084v-0.08l-0.021-0.133c0-0.193,0.049-0.33,0.147-0.418
	c0.095-0.084,0.161-0.211,0.192-0.379c0.028-0.168,0.07-0.273,0.12-0.316c0.049-0.039,0.084-0.113,0.111-0.215l0.148-0.287
	l0.115-0.383c0.011-0.072,0.053-0.123,0.122-0.145c0.071-0.016,0.106-0.049,0.106-0.09l-0.021-0.123
	c0.057-0.145,0.092-0.246,0.112-0.309c0.021-0.064,0.084-0.113,0.186-0.154c0.096-0.232,0.18-0.396,0.253-0.496
	c0.07-0.094,0.127-0.203,0.168-0.326c0.043-0.125,0.145-0.244,0.31-0.361c0.015-0.027,0.042-0.098,0.088-0.211
	c0.046-0.111,0.102-0.174,0.168-0.189c0.07-0.014,0.105-0.041,0.105-0.084l-0.042-0.08c0-0.057,0.053-0.154,0.154-0.299l0.123-0.229
	c0.063-0.066,0.13-0.119,0.207-0.154c0.095-0.189,0.218-0.381,0.368-0.574c0.151-0.189,0.281-0.396,0.39-0.619
	c0.158-0.182,0.306-0.314,0.442-0.398l0.341-0.422c0.08-0.172,0.164-0.256,0.246-0.256c0.129-0.246,0.29-0.408,0.483-0.484
	c0.035-0.014,0.134-0.088,0.295-0.221c0.158-0.135,0.302-0.201,0.425-0.201c0.108,0,0.249,0.119,0.421,0.361
	c0.172,0.238,0.256,0.443,0.256,0.604c0,0.043-0.021,0.102-0.066,0.184c-0.042,0.076-0.07,0.16-0.077,0.246
	s-0.046,0.326-0.123,0.725c-0.073,0.398-0.141,0.625-0.192,0.678l-0.277,0.533c-0.028,0.084-0.061,0.135-0.096,0.148
	c-0.034,0.014-0.073,0.066-0.122,0.16l0.053,0.219h-0.021c-0.077,0.08-0.154,0.234-0.238,0.463c-0.108,0.166-0.204,0.32-0.281,0.467
	c-0.08,0.148-0.119,0.246-0.119,0.295l-0.06,0.145c-0.151,0.225-0.252,0.406-0.298,0.543c-0.071,0.057-0.123,0.131-0.161,0.229
	c-0.039,0.094-0.089,0.166-0.148,0.211c-0.063,0.041-0.102,0.119-0.119,0.23c-0.018,0.109-0.035,0.172-0.057,0.193l-0.207-0.021
	v0.021l0.021,0.299c0,0.027-0.031,0.059-0.098,0.096c-0.063,0.031-0.12,0.104-0.168,0.221c-0.05,0.111-0.135,0.176-0.257,0.189
	c-0.063,0.041-0.103,0.08-0.112,0.123l0.038,0.195c-0.014,0.014-0.066,0.084-0.157,0.215c-0.095,0.129-0.151,0.199-0.172,0.207
	l-0.215,0.021c-0.042,0.014-0.063,0.133-0.063,0.357c0,0.15-0.066,0.256-0.203,0.309c-0.358,0.551-0.565,0.854-0.621,0.916
	c-0.06,0.063-0.172,0.109-0.337,0.145c0,0.014-0.015,0.02-0.039,0.02c-0.069,0-0.217-0.098-0.441-0.297h-0.021
	c-0.091,0.396-0.161,0.625-0.214,0.678c-0.053,0.055-0.077,0.119-0.077,0.186l0.102,0.186v0.031c0,0.189-0.035,0.428-0.102,0.709
	v0.061l0.042,0.217v0.379l-0.021,0.229c0.053,0.094,0.081,0.182,0.081,0.256c0,0.221,0.056,0.33,0.169,0.33
	c0.056,0,0.14-0.07,0.256-0.207l0.123-0.061c0.122-0.055,0.242-0.178,0.354-0.371c0.116-0.193,0.172-0.357,0.172-0.494
	c0-0.145-0.141-0.219-0.422-0.219c-0.137-0.027-0.207-0.176-0.207-0.441c0-0.127,0.053-0.234,0.155-0.338
	c0.102-0.098,0.192-0.203,0.266-0.313c0.166-0.256,0.342-0.381,0.527-0.381l0.522-0.188c0.057,0,0.109,0.012,0.158,0.033
	c0.053,0.02,0.119,0.041,0.203,0.068c0.218-0.08,0.33-0.121,0.338-0.121c0.241,0,0.399,0.121,0.483,0.371
	c0,0.045,0.057,0.07,0.165,0.07c0.239,0,0.438-0.074,0.601-0.221c0.161-0.148,0.333-0.268,0.516-0.361
	c0.18-0.092,0.326-0.188,0.441-0.289c0.113-0.098,0.183-0.146,0.211-0.146h0.155c0.014,0,0.052-0.047,0.122-0.135
	c0.067-0.09,0.193-0.133,0.38-0.133c0.07,0,0.102,0.029,0.102,0.082L94.079,86.332L94.079,86.332z M95.866,85.936l-0.123,0.063
	c-0.028,0.014-0.108,0.074-0.242,0.18c-0.133,0.105-0.263,0.193-0.39,0.256c-0.129,0.066-0.259,0.234-0.393,0.512
	c-0.134,0.275-0.2,0.432-0.2,0.471c0,0.043,0.021,0.063,0.063,0.063l0.347-0.154c0.13-0.063,0.253-0.141,0.365-0.234
	c0.116-0.098,0.277-0.215,0.492-0.352l0.08-0.08c0.014-0.027,0.077-0.078,0.189-0.15c0.112-0.074,0.196-0.145,0.252-0.211
	l0.103-0.043c0.115-0.186,0.235-0.297,0.354-0.34c0.119-0.039,0.183-0.08,0.183-0.123c0-0.08-0.067-0.123-0.196-0.123
	c-0.057,0-0.137,0.035-0.246,0.102h-0.239c-0.027,0-0.102,0.043-0.224,0.123L95.866,85.936L95.866,85.936z M93.03,78.506v-0.123
	c-0.157,0.043-0.271,0.189-0.34,0.443l-0.081,0.08c-0.13,0.084-0.235,0.199-0.309,0.348c-0.077,0.146-0.2,0.326-0.372,0.539
	l-0.039,0.123l-0.238,0.299l-0.039,0.193c-0.014,0.027-0.066,0.074-0.154,0.133c-0.091,0.064-0.15,0.148-0.182,0.254
	c-0.028,0.107-0.106,0.234-0.225,0.381c-0.12,0.148-0.204,0.246-0.246,0.299c-0.046,0.049-0.126,0.234-0.242,0.551L90.5,82.127
	c0,0.061-0.035,0.113-0.102,0.154l-0.379,0.463c0,0.025-0.015,0.127-0.043,0.299c-0.101,0.016-0.168,0.053-0.196,0.123l-0.165,0.379
	c-0.014,0.043-0.045,0.092-0.102,0.145c-0.087,0.33-0.217,0.568-0.379,0.719l-0.238,0.484c-0.028,0.057-0.049,0.131-0.06,0.229
	l-0.021,0.061c-0.084,0.156-0.122,0.277-0.122,0.361c0,0.027-0.007,0.111-0.021,0.256h0.021c0.011,0,0.038-0.018,0.08-0.053
	c0.042-0.031,0.095-0.074,0.165-0.115c0.066-0.047,0.123-0.131,0.165-0.254c0.038-0.123,0.108-0.211,0.2-0.264
	c0.091-0.049,0.15-0.104,0.179-0.156l0.618-0.826c0.041-0.053,0.098-0.115,0.168-0.189c0.073-0.07,0.108-0.129,0.108-0.168
	l0.081-0.145c0.042-0.041,0.112-0.119,0.215-0.229c0.098-0.107,0.175-0.182,0.228-0.223c0.056-0.043,0.088-0.105,0.095-0.197
	c0.007-0.088,0.046-0.182,0.112-0.277l0.042-0.084c0.074-0.088,0.137-0.15,0.183-0.193c0.049-0.041,0.077-0.088,0.084-0.133
	c0.008-0.049,0.084-0.137,0.235-0.268c0.015-0.105,0.094-0.27,0.242-0.502c0.147-0.227,0.26-0.434,0.334-0.621
	c0.076-0.186,0.15-0.313,0.221-0.385c0.073-0.07,0.119-0.201,0.14-0.387l0.103-0.166l0.319-0.883l-0.053-0.215L93.03,78.506
	L93.03,78.506z M84.559,88.086l0.162-0.143c0.101,0,0.164-0.047,0.182-0.141c0.021-0.092,0.095-0.166,0.222-0.221
	c0.126-0.053,0.241-0.166,0.351-0.334c0.108-0.168,0.222-0.252,0.337-0.252c0.042,0,0.088,0.035,0.144,0.102
	c0.053,0.07,0.081,0.123,0.081,0.164c0,0.229-0.07,0.461-0.207,0.699l-0.039,0.287l-0.073,0.137c-0.102,0.053-0.168,0.113-0.2,0.172
	c-0.031,0.064-0.112,0.137-0.242,0.229l-0.102,0.145c-0.151,0.049-0.252,0.125-0.302,0.234c-0.053,0.111-0.123,0.172-0.218,0.186
	c-0.091,0.014-0.193,0.082-0.302,0.207c-0.07,0.031-0.151,0.064-0.246,0.092l-0.021,0.102c-0.07,0.07-0.179,0.123-0.326,0.166
	c-0.145,0.041-0.257,0.08-0.327,0.119c-0.073,0.037-0.122,0.055-0.15,0.055c-0.13,0-0.249-0.023-0.357-0.076
	c-0.109-0.053-0.226-0.084-0.341-0.098c-0.038-0.039-0.063-0.086-0.07-0.135c-0.007-0.045-0.042-0.107-0.105-0.189
	c-0.06-0.076-0.091-0.186-0.091-0.322l0.042-0.197c0-0.023-0.018-0.059-0.053-0.102c-0.035-0.039-0.053-0.072-0.053-0.102
	c0-0.027,0.007-0.049,0.021-0.063c0.014-0.012,0.021-0.031,0.021-0.061c0-0.035-0.007-0.074-0.021-0.111
	c-0.015-0.043-0.021-0.078-0.021-0.102l0.063-0.506c0-0.043-0.014-0.061-0.042-0.061c-0.025,0-0.077,0.033-0.147,0.102
	c-0.074,0.07-0.158,0.102-0.253,0.102c-0.057,0.043-0.098,0.131-0.133,0.262c-0.057,0.066-0.124,0.129-0.208,0.186l-0.042,0.059
	c-0.014,0.051-0.063,0.088-0.154,0.119c-0.088,0.033-0.15,0.07-0.183,0.121l-0.105,0.102l-0.196-0.021
	c-0.011,0.014-0.049,0.072-0.112,0.178c-0.06,0.109-0.14,0.197-0.235,0.264l-0.782,0.639c-0.085,0.057-0.204,0.123-0.361,0.207
	l-0.063,0.061c-0.547,0.365-0.937,0.547-1.161,0.547c-0.187,0-0.404-0.053-0.65-0.154c-0.245-0.102-0.378-0.225-0.399-0.373
	l-0.105-0.42c-0.06-0.096-0.091-0.229-0.091-0.4c0-0.084,0.007-0.137,0.021-0.164v-0.064l-0.021-0.336
	c0-0.084,0.066-0.127,0.196-0.127l-0.021-0.277c0-0.027,0.061-0.133,0.18-0.322s0.2-0.299,0.241-0.326l0.103-0.135
	c-0.007-0.08,0.042-0.168,0.144-0.262c0.105-0.092,0.187-0.186,0.25-0.281c0.063-0.098,0.179-0.203,0.351-0.318l0.309-0.311
	c0.242-0.242,0.506-0.432,0.786-0.574c0.042-0.016,0.127-0.084,0.253-0.207s0.273-0.215,0.436-0.275
	c0.161-0.055,0.318-0.129,0.474-0.221c0.154-0.088,0.276-0.133,0.364-0.133h0.084c0.028,0,0.211-0.084,0.548-0.256h0.06
	c0.028,0,0.096,0.027,0.196,0.08h0.021l0.165-0.08c0.028-0.014,0.063-0.021,0.105-0.021c0.425,0,0.659,0.295,0.701,0.881
	c0.015,0.123,0.05,0.186,0.103,0.186c0.069,0,0.168-0.125,0.294-0.375c0.127-0.25,0.397-0.375,0.808-0.375
	c0.295,0,0.442,0.189,0.442,0.564c0,0.445-0.196,0.871-0.593,1.268c-0.028,0.055-0.05,0.115-0.063,0.186l-0.144,0.42v0.021
	c0,0.039-0.028,0.1-0.088,0.168c-0.06,0.074-0.088,0.139-0.088,0.191l0.021,0.26l-0.043,0.287c0,0.129,0.025,0.215,0.074,0.256
	c0.218-0.057,0.376-0.146,0.474-0.273c0.099-0.127,0.168-0.197,0.207-0.211l0.103-0.041C84.404,88.24,84.475,88.156,84.559,88.086
	L84.559,88.086z M81.145,88.09c0.024-0.15,0.108-0.262,0.249-0.344c0.14-0.078,0.224-0.158,0.252-0.242
	c0.131-0.094,0.316-0.266,0.558-0.512c0.243-0.246,0.362-0.396,0.362-0.453c0-0.018-0.014-0.027-0.039-0.027h-0.021l-0.085,0.049
	l-0.183-0.021l-0.196,0.021l-0.14-0.07l-0.133,0.021l-0.208-0.043c-0.109,0-0.203,0.021-0.281,0.066
	c-0.077,0.045-0.228,0.096-0.449,0.148c-0.224,0.055-0.424,0.15-0.6,0.283c-0.18,0.133-0.309,0.201-0.39,0.201
	c-0.049,0.102-0.207,0.248-0.48,0.441c-0.165,0.053-0.271,0.172-0.32,0.357c-0.175,0.145-0.266,0.225-0.266,0.246l-0.07,0.176
	c-0.057,0.049-0.123,0.088-0.207,0.119c-0.081,0.027-0.13,0.102-0.145,0.215c-0.014,0.111-0.06,0.213-0.136,0.309
	c-0.081,0.09-0.12,0.164-0.12,0.221c0,0.334,0.066,0.502,0.196,0.502c0.053,0,0.169-0.035,0.344-0.109
	c0.176-0.07,0.274-0.119,0.303-0.146c0.027-0.029,0.08-0.057,0.165-0.084l0.192-0.104c0.028-0.027,0.06-0.041,0.092-0.049
	c0.034-0.006,0.069-0.031,0.104-0.066c0.032-0.039,0.096-0.08,0.183-0.127c0.092-0.041,0.158-0.102,0.207-0.178
	c0.116-0.066,0.303-0.172,0.562-0.316l0.214-0.164c0.151-0.07,0.242-0.127,0.278-0.176C80.973,88.186,81.038,88.139,81.145,88.09
	L81.145,88.09z M69.3,90.744l-0.148-0.021c-0.094,0.053-0.189,0.084-0.279,0.092c-0.096,0.006-0.239,0.068-0.436,0.189
	c-0.197,0.121-0.422,0.234-0.675,0.344c-0.255,0.111-0.382,0.182-0.382,0.217c0.337-0.043,0.688-0.133,1.053-0.277l0.74-0.207
	c0.099-0.027,0.165-0.053,0.204-0.08c0.035-0.029,0.109-0.066,0.221-0.113l0.165-0.125c0.035-0.012,0.109-0.039,0.225-0.082
	c0.12-0.041,0.176-0.08,0.176-0.123c0-0.027-0.015-0.041-0.039-0.041c-0.248,0-0.445,0.037-0.59,0.111
	C69.391,90.705,69.311,90.744,69.3,90.744L69.3,90.744z M52.749,86.553l0.214-0.176c0.165-0.01,0.257-0.098,0.267-0.256
	c0.015-0.158,0.13-0.295,0.341-0.41l0.122-0.176c0.106-0.102,0.387-0.234,0.847-0.4c0.116-0.07,0.196-0.129,0.235-0.186
	c0.014-0.014,0.027-0.021,0.042-0.021l0.165,0.043c0.087,0,0.203-0.025,0.344-0.074c0.14-0.045,0.277-0.07,0.406-0.07l0.433-0.021
	c0.028,0,0.084,0.021,0.172,0.064c0.084,0.037,0.189,0.059,0.313,0.059c0.15,0,0.291,0.07,0.417,0.207
	c0.127,0.137,0.189,0.264,0.189,0.379c0,0.215-0.108,0.428-0.33,0.65c-0.221,0.217-0.396,0.34-0.525,0.367
	c-0.117,0.117-0.207,0.189-0.271,0.223c-0.061,0.031-0.123,0.08-0.189,0.143c-0.067,0.066-0.119,0.1-0.162,0.1
	c-0.024,0-0.046-0.008-0.06-0.025s-0.035-0.027-0.063-0.027c-0.109,0-0.231,0.137-0.362,0.402l-0.186-0.021
	c-0.116,0.074-0.193,0.158-0.225,0.246c-0.035,0.092-0.108,0.135-0.218,0.135c-0.256,0.256-0.428,0.381-0.516,0.381
	c-0.015,0-0.063-0.014-0.144-0.041c-0.057,0.066-0.085,0.141-0.085,0.213c0,0.086-0.056,0.135-0.165,0.145l-0.133,0.127
	l-0.105-0.021l-0.204,0.215c-0.104,0-0.21,0.033-0.322,0.105c-0.014,0.08-0.032,0.186-0.06,0.311
	c-0.028,0.127-0.042,0.197-0.042,0.211c0,0.201,0.183,0.299,0.544,0.299l0.494-0.07c0.131,0,0.253-0.035,0.365-0.105
	c0.113-0.066,0.235-0.102,0.365-0.102c0.042,0,0.105-0.014,0.187-0.043l0.102,0.043c0.049-0.102,0.136-0.193,0.271-0.277
	c0.129-0.08,0.231-0.123,0.308-0.123l0.103-0.059c0.028-0.084,0.066-0.137,0.123-0.166l0.081-0.074
	c0.055-0.051,0.108-0.08,0.154-0.08h0.144l0.042-0.021c0.084-0.176,0.196-0.279,0.344-0.313c0.147-0.031,0.242-0.08,0.281-0.146
	c0.035-0.07,0.101-0.109,0.2-0.123c0.094-0.014,0.175-0.059,0.241-0.141c0.063-0.076,0.145-0.15,0.238-0.221
	c0.099-0.066,0.165-0.119,0.204-0.15c0.035-0.035,0.07-0.053,0.095-0.053c0.043,0,0.063,0.031,0.063,0.09
	c0,0.064,0.014,0.096,0.042,0.096c0.027,0,0.042-0.014,0.042-0.043c0-0.027-0.007-0.063-0.021-0.102v-0.072
	c0-0.104,0.054-0.17,0.165-0.205l0.46-0.297c0.014-0.145,0.057-0.229,0.119-0.25c0.066-0.023,0.116-0.053,0.151-0.084
	c0.031-0.031,0.07-0.045,0.112-0.045c0.088,0,0.133,0.053,0.133,0.154l-0.052,0.266l0.052,0.277c0,0.043-0.031,0.098-0.098,0.168
	c-0.063,0.074-0.112,0.184-0.147,0.33c-0.035,0.148-0.081,0.229-0.134,0.238H58.6c-0.123,0.135-0.221,0.207-0.292,0.232
	c-0.073,0.025-0.129,0.066-0.172,0.131l-0.347,0.398c-0.067,0.068-0.127,0.131-0.176,0.188c-0.046,0.053-0.084,0.08-0.112,0.08
	l-0.08-0.08c0-0.016-0.015-0.021-0.043-0.021c-0.07,0-0.112,0.039-0.13,0.123c-0.018,0.08-0.053,0.154-0.105,0.213
	c-0.207,0.1-0.34,0.188-0.4,0.268l-0.063,0.021h-0.187c-0.087,0-0.15,0.066-0.183,0.199c-0.035,0.133-0.133,0.211-0.294,0.232
	c-0.162,0.02-0.274,0.063-0.345,0.123c-0.014,0.014-0.045,0.027-0.091,0.041c-0.049,0.014-0.144,0.066-0.288,0.166l-0.862,0.305
	c-0.067,0.035-0.113,0.053-0.135,0.053l-0.287,0.041c-0.042,0-0.081-0.027-0.123-0.084c-0.041-0.053-0.069-0.08-0.08-0.08
	l-0.187,0.059c-0.137,0.043-0.267,0.064-0.39,0.064c-0.07,0-0.144-0.025-0.228-0.074c-0.081-0.045-0.147-0.08-0.193-0.102
	c-0.2,0-0.34-0.154-0.421-0.463L52.265,90c-0.028,0-0.119-0.242-0.277-0.73c-0.042-0.057-0.108-0.096-0.196-0.119
	c-0.088-0.025-0.133-0.092-0.133-0.201c0-0.309,0.065-0.516,0.2-0.621c0.133-0.105,0.206-0.186,0.221-0.242l0.144-0.533
	c0.028-0.02,0.063-0.092,0.102-0.207l0.239-0.432C52.591,86.865,52.651,86.746,52.749,86.553L52.749,86.553z M54.907,85.936
	l-0.123,0.063c-0.028,0.014-0.108,0.074-0.242,0.18c-0.133,0.105-0.263,0.193-0.39,0.256c-0.129,0.066-0.26,0.234-0.393,0.512
	c-0.133,0.275-0.2,0.432-0.2,0.471c0,0.043,0.021,0.063,0.063,0.063l0.348-0.154c0.129-0.063,0.252-0.141,0.364-0.234
	c0.116-0.098,0.277-0.215,0.492-0.352l0.08-0.08c0.014-0.027,0.077-0.078,0.189-0.15c0.113-0.074,0.196-0.145,0.253-0.211
	l0.102-0.043c0.116-0.186,0.235-0.297,0.354-0.34c0.119-0.039,0.183-0.08,0.183-0.123c0-0.08-0.067-0.123-0.196-0.123
	c-0.057,0-0.137,0.035-0.246,0.102h-0.238c-0.028,0-0.102,0.043-0.226,0.123L54.907,85.936L54.907,85.936z M41.821,86.584
	l0.144,0.064c0.014-0.119,0.078-0.219,0.193-0.299h0.084c0.067,0,0.158-0.096,0.267-0.281l0.176-0.102
	c0.028,0.014,0.066,0.021,0.123,0.021c0.042,0,0.081-0.027,0.119-0.08c0.035-0.057,0.13-0.162,0.281-0.32h0.042
	c0.042,0,0.091-0.031,0.148-0.096c0.06-0.059,0.137-0.09,0.231-0.09l0.351-0.092c0.108-0.027,0.172-0.041,0.186-0.041
	c0.06-0.021,0.21,0.104,0.453,0.375c0.239,0.27,0.358,0.529,0.358,0.783c0,0.143-0.074,0.23-0.225,0.256l-0.053,0.041v0.207
	l-0.175,0.379c-0.046,0.102-0.105,0.166-0.176,0.193c-0.06,0.109-0.105,0.186-0.133,0.229L44.07,87.75l-0.06,0.063v0.256
	c-0.063,0.082-0.151,0.264-0.267,0.541c-0.119,0.273-0.175,0.453-0.175,0.527c0,0.129,0.028,0.195,0.081,0.195
	c0.042,0,0.084-0.018,0.123-0.053c0.042-0.035,0.098-0.072,0.172-0.119c0.07-0.041,0.123-0.092,0.158-0.137
	c0.035-0.049,0.105-0.092,0.217-0.129c0.109-0.039,0.21-0.109,0.309-0.211c0.095-0.102,0.165-0.172,0.203-0.207
	c0.042-0.031,0.088-0.078,0.137-0.137c0.045-0.061,0.077-0.088,0.091-0.088c0.042,0,0.105-0.014,0.196-0.043
	c0.014-0.072,0.028-0.129,0.039-0.164l0.25-0.123l0.596-0.533l0.084-0.102c0.108-0.029,0.175-0.049,0.203-0.064
	c0.057-0.186,0.148-0.318,0.277-0.398c0-0.029,0.035-0.051,0.105-0.064c0.053-0.107,0.127-0.195,0.211-0.26
	c0.084-0.066,0.154-0.146,0.211-0.242l0.238-0.195c0.066-0.029,0.116-0.07,0.145-0.123c0.354-0.316,0.575-0.496,0.663-0.541
	c0.084-0.045,0.224-0.066,0.417-0.066s0.348,0.072,0.467,0.221c0.123,0.146,0.253,0.26,0.394,0.334
	c0.14,0.076,0.21,0.221,0.21,0.432c0,0.199-0.154,0.578-0.463,1.141c-0.2,0.59-0.302,0.951-0.309,1.084
	c-0.008,0.133-0.039,0.211-0.092,0.232c-0.057,0.02-0.084,0.045-0.084,0.068v0.043c0,0.164,0.027,0.246,0.084,0.246
	c0.039,0,0.099-0.031,0.169-0.102c0.073-0.066,0.218-0.145,0.435-0.225l0.092,0.018c0.199-0.303,0.333-0.465,0.4-0.488
	c0.066-0.025,0.137-0.084,0.203-0.184c0.07-0.102,0.15-0.152,0.253-0.16c0.098-0.008,0.161-0.025,0.186-0.049
	c0.008-0.166,0.144-0.352,0.404-0.559c0.263-0.203,0.414-0.309,0.456-0.309c0.066,0,0.122,0.053,0.165,0.154
	c0.038,0.105,0.08,0.176,0.126,0.211c0.046,0.037,0.067,0.07,0.067,0.098v0.186c0,0.088-0.047,0.148-0.135,0.176
	c-0.065,0.15-0.129,0.238-0.186,0.268l-0.183-0.021c-0.035,0.041-0.063,0.08-0.087,0.111c-0.025,0.035-0.039,0.051-0.046,0.043
	c-0.057,0.014-0.154,0.105-0.292,0.273c-0.14,0.168-0.266,0.305-0.375,0.414l-0.042,0.063c-0.053,0.043-0.105,0.068-0.154,0.082
	l-0.183,0.154c-0.07-0.039-0.108-0.061-0.123-0.061s-0.042,0.029-0.088,0.082c-0.046,0.055-0.134,0.125-0.267,0.211
	s-0.234,0.186-0.302,0.295l-0.165,0.164l-0.214,0.027c-0.021,0-0.056,0.031-0.105,0.096l-0.183,0.234
	c-0.091,0.115-0.229,0.176-0.421,0.176c-0.042,0-0.095-0.035-0.157-0.109c-0.067-0.07-0.127-0.133-0.188-0.182
	c-0.055-0.053-0.186-0.207-0.389-0.463s-0.302-0.395-0.302-0.408l0.06-0.357l-0.021-0.25c0-0.045,0.035-0.119,0.099-0.221
	c0.067-0.098,0.099-0.15,0.099-0.158l-0.021-0.4c0.014-0.014,0.027-0.033,0.043-0.063l0.143-0.234
	c-0.014-0.07-0.021-0.145-0.021-0.225l0.042-0.342c-0.123,0.057-0.231,0.166-0.326,0.334c-0.092,0.168-0.215,0.252-0.365,0.252
	c-0.13,0.232-0.229,0.348-0.299,0.342c-0.023,0.023-0.045,0.053-0.059,0.08l-0.145,0.08l-0.175-0.018l-0.063,0.258
	c-0.147,0.08-0.246,0.154-0.291,0.221c-0.045,0.063-0.116,0.129-0.21,0.199l-0.176,0.166h-0.165
	c-0.028,0.186-0.133,0.336-0.319,0.463l-0.081,0.102l-0.186-0.021c-0.066,0.221-0.154,0.355-0.256,0.4
	c-0.116,0-0.277,0.109-0.477,0.32c-0.204,0.213-0.344,0.318-0.428,0.318c-0.597,0-1.078-0.371-1.45-1.119
	c-0.014-0.025-0.045-0.078-0.098-0.15c-0.049-0.078-0.077-0.193-0.077-0.352c0-0.268,0.039-0.445,0.108-0.543
	c0.074-0.096,0.165-0.275,0.277-0.537c0.112-0.264,0.197-0.381,0.253-0.346c0.014-0.027,0.021-0.066,0.021-0.121
	c0.109-0.131,0.165-0.229,0.165-0.299c0-0.029-0.014-0.039-0.042-0.039c-0.014,0-0.056,0.018-0.123,0.061l-0.144,0.063
	c-0.063,0.014-0.109,0.039-0.133,0.08c-0.028,0.043-0.077,0.08-0.147,0.119c-0.067,0.039-0.123,0.07-0.165,0.1h-0.028
	c-0.042-0.043-0.07-0.064-0.084-0.064c-0.042,0.109-0.077,0.18-0.102,0.207l-0.126,0.018c-0.15,0.158-0.245,0.238-0.288,0.238
	c-0.028,0-0.088-0.023-0.186-0.072c-0.095-0.047-0.144-0.096-0.144-0.145l0.074-0.4v-0.186c0-0.014,0.024-0.039,0.081-0.08
	c0.014,0,0.067-0.074,0.165-0.221C41.575,86.658,41.688,86.584,41.821,86.584L41.821,86.584z M32.236,89.586h0.042l0.298-0.084
	c0.011,0,0.039,0.006,0.081,0.02c0.095-0.053,0.208-0.094,0.333-0.123c0.126-0.027,0.246-0.076,0.351-0.15
	c0.105-0.07,0.263-0.16,0.478-0.27c0.144-0.035,0.273-0.1,0.382-0.186c0.112-0.092,0.172-0.139,0.186-0.139
	c0.021-0.018,0.074-0.041,0.158-0.066c0.081-0.021,0.175-0.08,0.281-0.176c0.102-0.09,0.207-0.156,0.309-0.199l0.509-0.309h0.063
	c0.035,0,0.123-0.096,0.26-0.277l0.123-0.127l0.189-0.039l0.113,0.018c0.028,0,0.066-0.072,0.116-0.221
	c0.049-0.146,0.151-0.221,0.312-0.221c0.039-0.07,0.088-0.127,0.144-0.168c0.056-0.045,0.084-0.088,0.084-0.131
	c0-0.027-0.014-0.041-0.042-0.041l-0.147,0.063h-0.039c-0.105,0-0.242-0.084-0.407-0.252c-0.115-0.053-0.21-0.08-0.28-0.08
	c-0.028,0-0.218,0.027-0.569,0.08c-0.133,0.063-0.267,0.094-0.407,0.094c-0.144,0-0.274,0.074-0.383,0.225
	c-0.084,0.008-0.217,0.049-0.407,0.127l-0.123,0.172c-0.049,0-0.147,0.035-0.302,0.105c-0.151,0.158-0.271,0.238-0.365,0.246
	c-0.091,0.006-0.298,0.172-0.621,0.494l-0.196,0.166c-0.123,0.014-0.183,0.076-0.183,0.191c0,0.084-0.028,0.148-0.084,0.197
	c-0.056,0.049-0.105,0.129-0.154,0.246l-0.204,0.309l-0.063,0.318C32.071,89.521,32.127,89.586,32.236,89.586L32.236,89.586z
	 M34.04,96.365l-0.021,0.277c0,0.057-0.014,0.129-0.039,0.229c-0.028,0.094-0.042,0.168-0.042,0.213
	c0,0.139,0.028,0.207,0.081,0.207c0.014,0,0.028-0.006,0.042-0.02c0.186,0,0.453-0.373,0.804-1.119
	c0.109-0.18,0.207-0.293,0.298-0.33c0.014-0.057,0.066-0.205,0.158-0.449c0.091-0.242,0.151-0.414,0.179-0.51l0.123-0.432
	c0.042-0.145,0.119-0.365,0.228-0.66l0.204-0.965c0.077-0.33,0.116-0.59,0.116-0.783c0-0.242-0.07-0.48-0.207-0.719
	c-0.035,0.014-0.053,0.035-0.053,0.07l0.053,0.309c0,0.115-0.063,0.225-0.197,0.32c-0.011,0-0.021,0.014-0.028,0.041
	c-0.007,0.029-0.074,0.211-0.2,0.551c-0.13,0.338-0.267,0.51-0.417,0.51l0.021,0.287c0,0.027-0.06,0.084-0.175,0.176l0.042,0.184
	c-0.119,0.256-0.189,0.447-0.211,0.582c-0.024,0.133-0.073,0.248-0.144,0.344c-0.074,0.098-0.13,0.234-0.172,0.414
	c-0.042,0.176-0.13,0.414-0.267,0.709l-0.052,0.207C34.096,96.08,34.054,96.201,34.04,96.365L34.04,96.365z"/>
<g>
	<path fill="#2B2A2A" d="M28.889,52.787c0.254,0,0.608,0.107,1.062,0.321c0.453,0.215,0.898,0.585,1.336,1.109
		c0.437,0.525,0.815,1.229,1.133,2.111c0.318,0.883,0.477,1.984,0.477,3.305c0,1.145-0.199,2.373-0.597,3.686
		c-0.397,1.312-0.942,2.651-1.634,4.02s-1.503,2.731-2.434,4.091c-0.93,1.36-1.928,2.664-2.994,3.913
		c-1.066,1.248-2.179,2.413-3.34,3.494c-1.161,1.082-2.314,2.024-3.459,2.827s-2.259,1.436-3.34,1.896
		c-1.082,0.461-2.076,0.7-2.982,0.716h-0.096c-0.271,0-0.577-0.092-0.918-0.274c-0.342-0.183-0.668-0.461-0.978-0.835
		s-0.572-0.847-0.787-1.419c-0.215-0.573-0.322-1.257-0.322-2.052c0-0.445,0.1-0.994,0.298-1.646
		c0.199-0.651,0.465-1.371,0.799-2.159c0.334-0.787,0.715-1.626,1.145-2.517c0.429-0.891,0.875-1.797,1.336-2.72
		c0.461-0.954,0.918-1.899,1.372-2.839c0.453-0.938,0.859-1.828,1.217-2.672c0.358-0.843,0.647-1.613,0.871-2.313
		c0.223-0.7,0.334-1.288,0.334-1.766c0-0.604-0.247-0.906-0.74-0.906c-0.763,0-1.578,0.23-2.445,0.691
		c-0.867,0.462-1.722,1.074-2.564,1.837c-0.843,0.764-1.658,1.631-2.445,2.601c-0.788,0.971-1.475,1.965-2.063,2.982
		s-1.062,2.016-1.419,2.993c-0.358,0.979-0.537,1.857-0.537,2.637c0,0.763,0.036,1.403,0.107,1.92
		c0.072,0.518,0.159,0.946,0.263,1.288c0.104,0.343,0.214,0.617,0.334,0.823c0.119,0.207,0.227,0.366,0.322,0.478
		c0.08,0.127,0.151,0.25,0.215,0.369s0.095,0.251,0.095,0.394c0,0.191-0.099,0.354-0.298,0.489
		c-0.199,0.136-0.473,0.203-0.823,0.203c-0.35,0-0.775-0.092-1.276-0.274s-0.981-0.521-1.443-1.014
		c-0.461-0.493-0.854-1.169-1.181-2.028C0.163,75.688,0,74.583,0,73.231c0-1.129,0.219-2.274,0.656-3.436
		c0.438-1.161,1.038-2.282,1.801-3.363c0.763-1.082,1.666-2.092,2.708-3.03c1.042-0.938,2.163-1.757,3.364-2.457
		c1.201-0.699,2.461-1.252,3.781-1.658c1.32-0.405,2.64-0.608,3.96-0.608c0.588,0,1.085,0.092,1.491,0.274
		c0.406,0.184,0.735,0.422,0.99,0.716c0.254,0.295,0.449,0.616,0.584,0.967c0.135,0.35,0.23,0.695,0.286,1.037
		c0.056,0.343,0.087,0.656,0.095,0.942c0.008,0.286,0.012,0.501,0.012,0.645c0,0.604-0.116,1.292-0.346,2.063
		s-0.529,1.578-0.895,2.421c-0.366,0.844-0.775,1.706-1.229,2.589c-0.453,0.882-0.903,1.737-1.348,2.564
		c-0.414,0.747-0.819,1.507-1.217,2.278s-0.76,1.515-1.085,2.23c-0.326,0.715-0.588,1.383-0.787,2.004
		c-0.199,0.62-0.298,1.153-0.298,1.598c0,0.461,0.024,0.791,0.072,0.99c0.047,0.199,0.095,0.361,0.143,0.489
		c0.477-0.08,1.069-0.354,1.777-0.823c0.708-0.469,1.479-1.081,2.314-1.837c0.835-0.755,1.709-1.638,2.624-2.647
		s1.809-2.092,2.684-3.245c0.875-1.152,1.709-2.354,2.505-3.602c0.795-1.249,1.491-2.497,2.087-3.746
		c0.597-1.248,1.069-2.469,1.419-3.661c0.35-1.193,0.525-2.307,0.525-3.34c0-1.399-0.08-2.529-0.238-3.388
		c-0.159-0.859-0.303-1.495-0.43-1.908c-0.048-0.159-0.087-0.307-0.119-0.441c-0.032-0.136-0.048-0.242-0.048-0.322
		c0-0.286,0.08-0.481,0.239-0.585C28.237,52.839,28.507,52.787,28.889,52.787z"/>
</g>
<path fill-rule="evenodd" clip-rule="evenodd" fill="#BF000A" d="M80.908,0.67c2.612,0,4.731,2.119,4.731,4.732
	s-2.119,4.732-4.731,4.732c-2.613,0-4.732-2.119-4.732-4.732S78.295,0.67,80.908,0.67L80.908,0.67z"/>
<path fill-rule="evenodd" clip-rule="evenodd" fill="#BF000A" d="M50.872,13.951C74.861,3.332,73.896,32.95,54.931,45.524
	c-0.773,0.513-1.422,0.813-1.943,0.9c-0.053-0.14-0.104-0.318-0.156-0.535c-0.053-0.218-0.079-0.578-0.079-1.083
	c0-0.486,0.109-1.069,0.327-1.748c0.217-0.678,0.503-1.409,0.86-2.191c0.764-1.676,1.626-3.32,2.518-4.932
	c0.487-0.904,0.979-1.839,1.474-2.805c0.497-0.965,0.917-1.921,1.345-2.83c4.073-8.677,1.078-11.658-6.758-9.25
	c5.976-1.278,4.656,2.842,3.145,6.406c-0.392,0.921-0.835,1.895-1.331,2.922c-2.124,4.396-7.534,12.772-4.2,16.789
	c0.338,0.409,0.695,0.713,1.068,0.913c0.375,0.2,0.71,0.3,1.005,0.3h0.104c0.991-0.017,2.112-0.205,3.262-0.782
	C82.663,33.992,80.994-3.178,50.872,13.951L50.872,13.951z"/>
<path fill-rule="evenodd" clip-rule="evenodd" fill="#BF000A" d="M54.869,19.41C34.493,2.978,25.278,28.501,48.311,46.13
	C13.051,22.555,32.514-4.054,54.869,19.41L54.869,19.41z"/>
</svg>
