<svg xmlns="http://www.w3.org/2000/svg" width="16" height="16" viewBox="0 0 16 16"><path d="M15.5 8.9l-2.6 1-.6-.3.8-.3-.5-1.2-1.7.7L9.5 8l1.4-.8 1.7.7.5-1.2-.8-.3.6-.3 2.6 1 .5-1.2-1.6-.6 1.1-.7-.7-1.2-1.2.6.2-1.7-1.3-.2-.3 2.7-.6.4.1-.9-1.3-.1-.3 1.8-1.4.8V5.2l1.5-1.1-.8-1-.7.5v-.7l2.2-1.7-.7-1-1.5 1.1V0H7.3v1.3L5.8.2l-.8 1 2.3 1.7v.7l-.7-.5-.8 1 1.5 1.1v1.6L5.9 6l-.3-1.8-1.3.2.1.8-.6-.4-.4-2.6-1.3.1.3 1.7-1.2-.6-.7 1.2 1.2.7L0 6l.5 1.1 2.6-1 .6.3-.8.4.5 1.1 1.7-.7 1.4.8-1.4.8-1.7-.7-.5 1.2.8.3-.6.3-2.6-1-.5 1.2 1.7.6-1.2.7.7 1.2 1.2-.6-.2 1.7 1.3.1.3-2.6.6-.4-.1.9 1.3.1.3-1.8 1.4-.8v1.6l-1.5 1.1.8 1 .7-.5v.7L5 14.7l.8 1 1.5-1V16h1.4v-1.3l1.5 1 .7-1-2.2-1.6v-.7l.7.5.8-1-1.5-1.1V9.2l1.4.8.3 1.8 1.3-.1-.1-.9.6.4.3 2.7 1.3-.2-.2-1.7 1.2.6.7-1.2-1.1-.7 1.6-.6z"/></svg>