<svg xmlns="http://www.w3.org/2000/svg" width="16" height="16" viewBox="0 0 16 16"><path d="M15.5 8.9l-2.6 1-.6-.3.8-.3-.5-1.2-1.7.7L9.5 8l1.4-.8 1.7.7.5-1.2-.8-.3.6-.3 2.6 1 .5-1.2-1.6-.6 1.1-.7-.7-1.2-1.2.6.2-1.7-1.3-.2-.3 2.7-.6.4.1-.9-1.3-.1-.3 1.8-1.4.8V5.2l1.5-1.1-.8-1-.7.5v-.7l2.2-1.7-.7-1-1.5 1.1V0H7.3v1.3L5.8.2l-.8 1 2.3 1.7v.7l-.7-.5-.8 1 1.5 1.1v1.6L5.9 6l-.3-1.8-1.3.2.1.8-.6-.4-.4-2.6-1.3.1.3 1.7-1.2-.6-.7 1.2 1.2.7L0 6l.5 1.1 2.6-1 .6.3-.8.4.5 1.1 1.7-.7 1.4.8-1.4.8-1.7-.7-.5 1.2.8.3-.6.3-2.6-1-.5 1.2 1.7.6-1.2.7.7 1.2 1.2-.6-.2 1.7 1.3.1.3-2.6.6-.4-.1.9 1.3.1.3-1.8 1.4-.8v1.6l-1.5 1.1.8 1 .7-.5v.7L5 14.7l.8 1 1.5-1V16h1.4v-1.3l1.5 1 .7-1-2.2-1.6v-.7l.7.5.8-1-1.5-1.1V9.2l1.4.8.3 1.8 1.3-.1-.1-.9.6.4.3 2.7 1.3-.2-.2-1.7 1.2.6.7-1.2-1.1-.7 1.6-.6z"/></svg>7,1.3 8.7,0 7.3,0 7.3,1.3 5.8,0.2 5,1.2 7.3,2.9 7.3,3.6 6.6,3.1 5.8,4.1 
	7.3,5.2 7.3,6.8 5.9,6 5.6,4.2 4.3,4.4 4.4,5.2 3.8,4.8 3.4,2.2 2.1,2.3 2.4,4 1.2,3.4 0.5,4.6 1.7,5.3 0,6 0.5,7.1 3.1,6.1 
	3.7,6.4 2.9,6.8 3.4,7.9 5.1,7.2 6.5,8 5.1,8.8 3.4,8.1 2.9,9.3 3.7,9.6 3.1,9.9 0.5,8.9 0,10.1 1.7,10.7 0.5,11.4 1.2,12.6 2.4,12 
	2.2,13.7 3.5,13.8 3.8,11.2 4.4,10.8 4.3,11.7 5.6,11.8 5.9,10 7.3,9.2 7.3,10.8 5.8,11.9 6.6,12.9 7.3,12.4 7.3,13.1 5,14.7 
	5.8,15.7 7.3,14.7 7.3,16 8.7,16 8.7,14.7 10.2,15.7 10.9,14.7 8.7,13.1 8.7,12.4 9.4,12.9 10.2,11.9 8.7,10.8 8.7,9.2 10.1,10 
	10.4,11.8 11.7,11.7 11.6,10.8 12.2,11.2 12.5,13.9 13.8,13.7 13.6,12 14.8,12.6 15.5,11.4 14.4,10.7 16,10.1 "/>
</svg>
