<?xml version="1.0" encoding="utf-8"?>
<!-- Generator: Adobe Illustrator 16.0.0, SVG Export Plug-In . SVG Version: 6.00 Build 0)  -->
<!DOCTYPE svg PUBLIC "-//W3C//DTD SVG 1.1//EN" "http://www.w3.org/Graphics/SVG/1.1/DTD/svg11.dtd">
<svg version="1.1" id="Layer_1" xmlns="http://www.w3.org/2000/svg" xmlns:xlink="http://www.w3.org/1999/xlink" x="0px" y="0px"
	 width="16px" height="16px" viewBox="0 0 16 16" enable-background="new 0 0 16 16" xml:space="preserve">
<polygon points="15.5,8.9 12.9,9.9 12.3,9.6 13.1,9.3 12.6,8.1 10.9,8.8 9.5,8 10.9,7.2 12.6,7.9 13.1,6.7 12.3,6.4 12.9,6.1 
	15.5,7.1 16,5.9 14.4,5.3 15.5,4.6 14.8,3.4 13.6,4 13.8,2.3 12.5,2.1 12.2,4.8 11.6,5.2 11.7,4.3 10.4,4.2 10.1,6 8.7,6.8 8.7,5.2 
	10.2,4.1 9.4,3.1 8.7,3.6 8.7,2.9 10.9,1.2 10.2,0.2 8.7,1.3 8.7,0 7.3,0 7.3,1.3 5.8,0.2 5,1.2 7.3,2.9 7.3,3.6 6.6,3.1 5.8,4.1 
	7.3,5.2 7.3,6.8 5.9,6 5.6,4.2 4.3,4.4 4.4,5.2 3.8,4.8 3.4,2.2 2.1,2.3 2.4,4 1.2,3.4 0.5,4.6 1.7,5.3 0,6 0.5,7.1 3.1,6.1 
	3.7,6.4 2.9,6.8 3.4,7.9 5.1,7.2 6.5,8 5.1,8.8 3.4,8.1 2.9,9.3 3.7,9.6 3.1,9.9 0.5,8.9 0,10.1 1.7,10.7 0.5,11.4 1.2,12.6 2.4,12 
	2.2,13.7 3.5,13.8 3.8,11.2 4.4,10.8 4.3,11.7 5.6,11.8 5.9,10 7.3,9.2 7.3,10.8 5.8,11.9 6.6,12.9 7.3,12.4 7.3,13.1 5,14.7 
	5.8,15.7 7.3,14.7 7.3,16 8.7,16 8.7,14.7 10.2,15.7 10.9,14.7 8.7,13.1 8.7,12.4 9.4,12.9 10.2,11.9 8.7,10.8 8.7,9.2 10.1,10 
	10.4,11.8 11.7,11.7 11.6,10.8 12.2,11.2 12.5,13.9 13.8,13.7 13.6,12 14.8,12.6 15.5,11.4 14.4,10.7 16,10.1 "/>
</svg>
