<svg xmlns="http://www.w3.org/2000/svg" width="16" height="16" viewBox="0 0 16 16"><path fill-rule="evenodd" clip-rule="evenodd" d="M12.373.652A38.726 38.726 0 0 0 8 .408c-1.46 0-2.922.08-4.374.244a7.175 7.175 0 0 0 .07 2.427c.04.194.088.386.145.576l.011.003c.537 1.738 1.549 2.882 3.037 3.43-1.306-.713-2.173-1.829-2.6-3.347.448.045.872-.043 1.271-.265.52-.233 1.104-.192 1.752.12.043.02.086.037.127.054.663.218 1.276.171 1.84-.142.521-.233 1.104-.192 1.753.12.431.195.8.227 1.106.095a7.03 7.03 0 0 0 .235-3.071zm.352-.369c.084.444.129.907.129 1.384 0 2.958-1.715 5.418-3.976 5.931l-.449 7.028c1.858.039 3.3.331 3.3.685 0 .38-1.669.689-3.729.689s-3.729-.309-3.729-.689c0-.354 1.443-.646 3.3-.685l-.449-7.028c-2.261-.513-3.976-2.973-3.976-5.931 0-.477.044-.939.128-1.384C4.789.099 6.371 0 8 0s3.211.099 4.725.283z"/></svg>