<svg xmlns="http://www.w3.org/2000/svg" width="16" height="16" viewBox="0 0 16 16"><path fill-rule="evenodd" clip-rule="evenodd" d="M14.158 11.5c-.541.312-1.125.425-1.641.359-.08.168-.164.332-.252.492 1.121.387 1.807.905 1.807 1.475 0 1.201-3.043 2.174-6.793 2.174-3.752 0-6.794-.973-6.794-2.174 0-.563.668-1.074 1.764-1.461-.866-1.58-1.4-3.579-1.443-5.761h.009c-.002-.006-.002-.013-.002-.019 0-.536 1.773-.992 4.255-1.164.072.104.215.222.253.253-2.205.145-3.789.545-3.789 1.017 0 .594 2.512 1.076 5.609 1.076 3.099 0 5.611-.482 5.611-1.076 0-.479-1.637-.885-3.897-1.024.039-.091.089-.19.134-.274 2.722.145 4.72.624 4.72 1.192a.193.193 0 0 1-.008.058c-.008.391-.033.776-.072 1.154.732-.035 1.389.265 1.703.856.488.919-.037 2.195-1.174 2.847zM3.098 8.269c-.65 0-1.307-.271-1.307-.271.261 4.347 2.09 3.803 2.09 3.803-.522-.272-.783-3.532-.783-3.532zm8.304 5.274l-.027.011c-.432.61-2.139 1.065-4.176 1.065-2.12 0-3.88-.492-4.223-1.14a.51.51 0 0 0-.088.278c0 .756 1.918 1.37 4.283 1.37 2.366 0 4.282-.614 4.282-1.37a.487.487 0 0 0-.051-.214zm1.227-2.433l-.002.005c.027.003.057.004.084.005l-.082-.01zm1.892-1.995c-.193-.322-.57-.505-1.004-.531-.02.108-.328 1.816-.689 2.535.285-.012.586-.088.873-.233.795-.407 1.162-1.199.82-1.771zM8.874 5.229c-.134.201-.29.658-.29.658l.006.001c-.3 1.013.344 1.3.527 1.36-.279-.083-1.719-.55-1.705-1.456l.003.003-.001-.022a.776.776 0 0 1 .02-.156h-.01a.914.914 0 0 1 .104-.268h.002l.018-.034a1 1 0 0 1 .087-.126l.006-.006-.01-.008c.089-.134.209-.276.366-.424 1.808-1.725 1.056-2.038.603-2.509 0 0 2.036.313.565 2.509a6.42 6.42 0 0 0-.291.478zm.243 2.019l.047.013-.047-.013zM7.279 5.616h-.138c-.171 0-.34.001-.508.005a2.098 2.098 0 0 1-.029-.267c.216-.004.436-.007.657-.007h.075c-.072.183-.057.268-.057.269zm.273-2.235c-.75.73-1.047 1.328-1.098 1.805l-.01-.003s-.004.233.017.378v.001l.001.009a.398.398 0 0 0 .034.118c.214.749 1.056 1.073 1.056 1.073S6.276 6.36 5.565 5.659h-.007a2.868 2.868 0 0 1-.267-.339h-.003c-.333-.529-.288-1.185.689-1.939C8.619 1.344 7.271.673 6.79 0c0 0 3.306.903.762 3.381z"/></svg>