<svg xmlns="http://www.w3.org/2000/svg" width="16" height="16" viewBox="0 0 16 16"><path fill="#010101" d="M11.2 9.9v-.6c-.1-.1-.3-.2-.4-.2v.9h.4zm-1.2 0V8.8c-.1 0-.3-.1-.4-.1v1.2h.4zm.6 0V9c-.1-.1-.3-.1-.4-.1V10h.4zm.8 0h.5c-.1-.1-.1-.2-.2-.3l-.3-.3v.6zm3.9 1.3h-3.7v-.6c0-.1-.1-.2-.2-.2h-.6c-.1 0-.2.1-.2.2v.6H9.5v-.4h-3v.4H5.4v-.6c0-.1-.1-.2-.2-.2h-.6c-.1 0-.2.1-.2.2v.6H.7c-.4 0-.7.3-.7.7s.3.7.7.7H1v.7c0 .3.2.5.5.5h1c.3 0 .5-.2.5-.5v-.7h1.5v.3c-.1.1 0 .1.1.1h.6c.1 0 .2-.1.2-.2v-.3h5.3v.3c0 .1.1.2.2.2h.6c.1 0 .2-.1.2-.2v-.3h1.5v.7c0 .3.2.5.5.5h1c.3 0 .5-.2.5-.5v-.7h.3c.4 0 .7-.3.7-.7s-.5-.6-.9-.6zm-6.1 1H6.8V11h2.5v1.2zM8 8.1c4.8 0 4.6 2.6 4.6 2.6h3V8.4c0-1.8-1.4-2.1-2.7-2.1v-.5c0 .2.1.2.3.2.4 0 .7-.3.7-.7s-.3-.7-.7-.7c-.2 0-.4.1-.5.2-.2-.9-.4-1.7-.7-2-.6-.5-2.7-.6-4-.6s-3.4 0-3.9.7c-.3.3-.6 1.1-.8 2-.1-.1-.3-.2-.5-.2-.3 0-.6.3-.6.7s.3.6.6.6c.2 0 .3 0 .4-.1v.5C1.9 6.4.5 6.7.5 8.5v2.3h3c-.1 0-.3-2.7 4.5-2.7zm5.9-.6c.5 0 .9.4.9.9s-.4.9-.9.9-1-.3-1-.8.4-1 1-1zM4.4 3.2c.2-.2 1-.5 3.6-.5s3.4.3 3.6.5c.3.3.6 1.4.7 2.2-1.3-.6-3-.6-4.3-.6-1.3 0-3 0-4.3.6.1-.8.5-1.9.7-2.2zM2.1 9.4c-.5 0-.9-.4-.9-.9s.4-.9.9-.9.9.4.9.9-.3.9-.9.9zm3.1.5V9c-.1.1-.3.2-.4.3v.7h.4zm-.6 0v-.5c-.1.1-.2.1-.2.2l-.3.3h.5zm2.4 0V8.6c-.1 0-.3 0-.4.1V10H7zm-.6 0V8.7c-.1 0-.3.1-.4.1V10h.4zm-.6 0V8.8c-.1.1-.3.1-.4.2v1h.4zm1.8 0V8.6h-.4v1.3h.4zm1.2 0V8.6h-.4V10h.4zm.6 0V8.7c-.1 0-.3 0-.4-.1v1.3h.4zM7.8 8.6V10h.4V8.6h-.4z"/></svg>