<?xml version="1.0" encoding="utf-8"?>
<!-- Generator: Adobe Illustrator 16.0.0, SVG Export Plug-In . SVG Version: 6.00 Build 0)  -->
<!DOCTYPE svg PUBLIC "-//W3C//DTD SVG 1.1//EN" "http://www.w3.org/Graphics/SVG/1.1/DTD/svg11.dtd">
<svg version="1.1" id="Layer_1" xmlns="http://www.w3.org/2000/svg" xmlns:xlink="http://www.w3.org/1999/xlink" x="0px" y="0px"
	 width="16px" height="16px" viewBox="0 0 16 16" enable-background="new 0 0 16 16" xml:space="preserve">
<path fill="#010101" d="M11.2,9.9V9.3c-0.1-0.1-0.3-0.2-0.4-0.2v0.9H11.2z M10,9.9V8.8c-0.1,0-0.3-0.1-0.4-0.1v1.2H10z M10.6,9.9V9
	c-0.1-0.1-0.3-0.1-0.4-0.1v1.1H10.6z M11.4,9.9h0.5c-0.1-0.1-0.1-0.2-0.2-0.3c-0.1-0.1-0.2-0.2-0.3-0.3V9.9z M15.3,11.2h-3.7v-0.6
	c0-0.1-0.1-0.2-0.2-0.2h-0.6c-0.1,0-0.2,0.1-0.2,0.2v0.6H9.5v-0.4h-3v0.4H5.4v-0.6c0-0.1-0.1-0.2-0.2-0.2H4.6
	c-0.1,0-0.2,0.1-0.2,0.2v0.6H0.7c-0.4,0-0.7,0.3-0.7,0.7s0.3,0.7,0.7,0.7H1v0.7c0,0.3,0.2,0.5,0.5,0.5h1c0.3,0,0.5-0.2,0.5-0.5v-0.7
	h1.5v0.3C4.4,13,4.5,13,4.6,13h0.6c0.1,0,0.2-0.1,0.2-0.2v-0.3h5.3v0.3c0,0.1,0.1,0.2,0.2,0.2h0.6c0.1,0,0.2-0.1,0.2-0.2v-0.3h1.5
	v0.7c0,0.3,0.2,0.5,0.5,0.5h1c0.3,0,0.5-0.2,0.5-0.5v-0.7h0.3c0.4,0,0.7-0.3,0.7-0.7S15.7,11.2,15.3,11.2z M9.2,12.2H6.8V11h2.5
	V12.2z M8,8.1c4.8,0,4.6,2.6,4.6,2.6h3c0,0,0-0.5,0-2.3c0-1.8-1.4-2.1-2.7-2.1c0-0.2,0-0.3,0-0.5C12.9,6,13,6,13.2,6
	c0.4,0,0.7-0.3,0.7-0.7s-0.3-0.7-0.7-0.7c-0.2,0-0.4,0.1-0.5,0.2c-0.2-0.9-0.4-1.7-0.7-2C11.4,2.3,9.3,2.2,8,2.2s-3.4,0-3.9,0.7
	C3.8,3.2,3.5,4,3.3,4.9C3.2,4.8,3,4.7,2.8,4.7C2.5,4.7,2.2,5,2.2,5.4S2.5,6,2.8,6C3,6,3.1,6,3.2,5.9c0,0.2,0,0.3,0,0.5
	c-1.3,0-2.7,0.3-2.7,2.1c0,1.8,0,2.3,0,2.3h3C3.4,10.8,3.2,8.1,8,8.1z M13.9,7.5c0.5,0,0.9,0.4,0.9,0.9s-0.4,0.9-0.9,0.9
	S12.9,9,12.9,8.5S13.3,7.5,13.9,7.5z M4.4,3.2c0.2-0.2,1-0.5,3.6-0.5s3.4,0.3,3.6,0.5c0.3,0.3,0.6,1.4,0.7,2.2C11,4.8,9.3,4.8,8,4.8
	h0c-1.3,0-3,0-4.3,0.6C3.8,4.6,4.2,3.5,4.4,3.2z M2.1,9.4C1.6,9.4,1.2,9,1.2,8.5s0.4-0.9,0.9-0.9c0.5,0,0.9,0.4,0.9,0.9
	S2.7,9.4,2.1,9.4z M5.2,9.9V9C5.1,9.1,4.9,9.2,4.8,9.3v0.7H5.2z M4.6,9.9V9.4C4.5,9.5,4.4,9.5,4.4,9.6C4.3,9.7,4.2,9.8,4.1,9.9H4.6z
	 M7,9.9V8.6c-0.1,0-0.3,0-0.4,0.1v1.3H7z M6.4,9.9V8.7C6.3,8.7,6.1,8.8,6,8.8v1.2H6.4z M5.8,9.9V8.8C5.7,8.9,5.5,8.9,5.4,9v1H5.8z
	 M7.6,9.9V8.6c-0.1,0-0.3,0-0.4,0v1.3H7.6z M8.8,9.9V8.6c-0.1,0-0.3,0-0.4,0v1.4H8.8z M9.4,9.9V8.7c-0.1,0-0.3,0-0.4-0.1v1.3H9.4z
	 M7.8,8.6v1.4h0.4V8.6c-0.1,0-0.1,0-0.2,0S7.9,8.6,7.8,8.6z"/>
</svg>
