<svg xmlns="http://www.w3.org/2000/svg" width="16" height="16" viewBox="0 0 16 16"><path fill="#010101" d="M6.2 3.2s.4.8.7.8c0 0 1.6-1.2 1.5-2.4 0 0 1.1 1.6 1 2.2 0 0 .7-.6.8-.8 0 0 .2.7.2 1.4h.5c.2-1.1-.5-2.5-.5-2.5l-.7 1C9.2.3 7.1 0 7.1 0c1.1 1-.1 3.1-.2 3-.2-.1-.3-1.2-.3-1.2-1 .5-1.3 1.9-1.4 2.6h.7c0-.5.1-1.1.3-1.2zm6.9 1.6H2.9v.1c0 1.4.6 2.6 1.7 3.4v.1l-1.5 6.7c0 .1 0 .2.1.3.1.1.2.2.3.2l.5.1h.1c.2 0 .4-.1.4-.3l.7-3h1.9v3.1c0 .3.2.5.5.5h.6c.3 0 .5-.2.5-.5v-3h1.9l.7 3c0 .2.2.3.4.3h.1l.6-.1c.1 0 .2-.1.3-.2.1-.1.1-.2.1-.3l-1.5-6.7v-.1c1.1-1 1.8-2.2 1.8-3.6zm-8.3 6.9l-.1.4-.7 3h-.2l1.4-6.4.4.1v.1l-.8 2.8zm.6 0L6 9.1c.3.1.7.2 1 .3v2.3H5.4zm2.8-2.3v5.9h-.4V8.7h.5l-.1.7zm.6 2.3V9.4c.4-.1.8-.2 1.1-.3l.6 2.6H8.8zm3.5 3.3h-.2l-.8-3-.1-.3-.7-2.8v-.1l.4-.1 1.4 6.3z"/></svg>