<?xml version="1.0" encoding="utf-8"?>
<!-- Generator: Adobe Illustrator 16.0.0, SVG Export Plug-In . SVG Version: 6.00 Build 0)  -->
<!DOCTYPE svg PUBLIC "-//W3C//DTD SVG 1.1//EN" "http://www.w3.org/Graphics/SVG/1.1/DTD/svg11.dtd">
<svg version="1.1" id="Layer_1" xmlns="http://www.w3.org/2000/svg" xmlns:xlink="http://www.w3.org/1999/xlink" x="0px" y="0px"
	 width="16px" height="16px" viewBox="0 0 16 16" enable-background="new 0 0 16 16" xml:space="preserve">
<g>
	<g>
		<path fill="#010101" d="M6.2,3.2c0,0,0.4,0.8,0.7,0.8c0,0,1.6-1.2,1.5-2.4c0,0,1.1,1.6,1,2.2c0,0,0.7-0.6,0.8-0.8
			c0,0,0.2,0.7,0.2,1.4h0.5c0.2-1.1-0.5-2.5-0.5-2.5l-0.7,1C9.2,0.3,7.1,0,7.1,0C8.2,1,7,3.1,6.9,3C6.7,2.9,6.6,1.8,6.6,1.8
			C5.6,2.3,5.3,3.7,5.2,4.4h0.7C5.9,3.9,6,3.3,6.2,3.2z M13.1,4.8C13.1,4.8,13.1,4.8,13.1,4.8L2.9,4.8c0,0,0,0,0,0.1
			c0,1.4,0.6,2.6,1.7,3.4c0,0,0,0.1,0,0.1l-1.5,6.7c0,0.1,0,0.2,0.1,0.3c0.1,0.1,0.2,0.2,0.3,0.2L4,15.7c0,0,0.1,0,0.1,0
			c0.2,0,0.4-0.1,0.4-0.3l0.7-3h1.9l0,3.1c0,0.3,0.2,0.5,0.5,0.5h0.6c0.3,0,0.5-0.2,0.5-0.5l0-3h1.9l0.7,3c0,0.2,0.2,0.3,0.4,0.3
			c0,0,0.1,0,0.1,0l0.6-0.1c0.1,0,0.2-0.1,0.3-0.2c0.1-0.1,0.1-0.2,0.1-0.3l-1.5-6.7c0,0,0-0.1,0-0.1C12.4,7.4,13.1,6.2,13.1,4.8z
			 M4.8,11.7l-0.1,0.4l-0.7,3l-0.2,0l1.4-6.4l0,0l0.4,0.1l0,0.1L4.8,11.7z M5.4,11.7l0.6-2.6c0.3,0.1,0.7,0.2,1,0.3l0,2.3H5.4z
			 M8.2,9.4l0,2.2l0,0.8l0,2.9H7.8l0-2.9l0-0.8l0-2.2l0-0.7h0.5L8.2,9.4z M8.8,11.7l0-2.3c0.4-0.1,0.8-0.2,1.1-0.3l0.6,2.6H8.8z
			 M12.3,15l-0.2,0L11.3,12l-0.1-0.3l-0.7-2.8l0-0.1l0.4-0.1l0,0L12.3,15z"/>
	</g>
</g>
</svg>
