<svg xmlns="http://www.w3.org/2000/svg" width="16" height="16" viewBox="0 0 16 16"><path d="M15.342 11.956H.658c-.362 0-.658.325-.658.722v.057c0 .397.296.723.658.723h14.684c.362 0 .658-.325.658-.723v-.057c0-.397-.296-.722-.658-.722zM8.29 4.051a.784.784 0 0 0 .484-.726c0-.432-.347-.782-.774-.782s-.774.35-.774.782c0 .329.201.609.484.726-3.509.173-6.309 3.485-6.309 7.545h13.197c.001-4.059-2.799-7.371-6.308-7.545zm-.503.94c.146-.013.295-.02.445-.02 3.034 0 5.464 2.617 5.464 5.988h-.892c.001-3.205-2.193-5.716-5.017-5.968z"/></svg>