<svg xmlns="http://www.w3.org/2000/svg" width="16" height="16" viewBox="0 0 16 16"><path d="M10.8 11.5c-.3 0-.5.1-.7.1L7.3 8.9c.1-.3.2-.6.2-.9 0-.3-.1-.5-.2-.8l2.8-2.8c.2.1.4.1.6.1 1.2 0 2.2-1 2.2-2.2S12 0 10.8 0C9.5 0 8.5 1 8.5 2.2c0 .3.1.5.1.7L5.8 5.8c-.2 0-.4-.1-.6-.1C4 5.8 3 6.8 3 8s1 2.2 2.2 2.2c.2 0 .3 0 .5-.1L8.6 13c-.1.2-.1.4-.1.6 0 1.2 1 2.2 2.2 2.2 1.2 0 2.2-1 2.2-2.2s-.9-2.1-2.1-2.1z"/></svg>6 16" enable-background="new 0 0 16 16" xml:space="preserve">
<path d="M10.8,11.5c-0.3,0-0.5,0.1-0.7,0.1L7.3,8.9C7.4,8.6,7.5,8.3,7.5,8c0-0.3-0.1-0.5-0.2-0.8l2.8-2.8c0.2,0.1,0.4,0.1,0.6,0.1
	c1.2,0,2.2-1,2.2-2.2S12,0,10.8,0C9.5,0,8.5,1,8.5,2.2c0,0.3,0.1,0.5,0.1,0.7L5.8,5.8c-0.2,0-0.4-0.1-0.6-0.1C4,5.8,3,6.8,3,8
	s1,2.2,2.2,2.2c0.2,0,0.3,0,0.5-0.1l2.9,2.9c-0.1,0.2-0.1,0.4-0.1,0.6c0,1.2,1,2.2,2.2,2.2c1.2,0,2.2-1,2.2-2.2S12,11.5,10.8,11.5z"
	/>
</svg>
