<svg xmlns="http://www.w3.org/2000/svg" width="16" height="16" viewBox="0 0 16 16"><path fill="#010101" d="M14.2 0H1.8C.8 0 0 .8 0 1.8v12.5c0 1 .8 1.8 1.8 1.8h7v-6H6.7V7.4h2.1V5.6c0-.7-.1-1.1.2-1.6s1.2-1.3 2.7-1.3c1.5 0 2.2.2 2.2.2L13.6 5s-1-.3-1.4-.2c-.5.1-.8.4-.8 1.1v1.6h2.2l-.3 2.5h-2v6h2.8c1 0 1.8-.8 1.8-1.8V1.8c.1-1-.7-1.8-1.7-1.8z"/></svg>="0px" y="0px"
	 width="16px" height="16px" viewBox="0 0 16 16" enable-background="new 0 0 16 16" xml:space="preserve">
<path fill="#010101" d="M14.2,0H1.8C0.8,0,0,0.8,0,1.8v12.5c0,1,0.8,1.8,1.8,1.8h7c0,0,0-3,0-6H6.7V7.4h2.1c0-0.8,0-1.7,0-1.8
	C8.8,4.9,8.7,4.5,9,4s1.2-1.3,2.7-1.3c1.5,0,2.2,0.2,2.2,0.2l-0.3,2.1c0,0-1-0.3-1.4-0.2c-0.5,0.1-0.8,0.4-0.8,1.1
	c0,0.1,0,0.9,0,1.6h2.2L13.3,10h-2c0,3,0,6,0,6h2.8c1,0,1.8-0.8,1.8-1.8V1.8C16,0.8,15.2,0,14.2,0z"/>
</svg>
