<svg xmlns="http://www.w3.org/2000/svg" width="16" height="16" viewBox="0 0 16 16"><path d="M15.8 3.4c0 1.4-2.1 2.1-4.4 2.1S8 7.2 8 7.2 6.8 5.5 4.5 5.5.2 4.9.2 3.4c0 0-1.2 9.1 2.5 9.1S8 12.8 8 11c0 1.8 1.6 1.6 5.3 1.6s2.5-9.2 2.5-9.2zM7 9.9c-.3.6-1.1.7-3.1.7S1.8 7 1.8 7c0 .6 2.2.6 3.8.6S7.3 9.3 7 9.9zm5.2.7c-2 0-2.9-.1-3.1-.7-.3-.6-.3-2.4 1.4-2.4s3.8 0 3.8-.6c-.1 0-.1 3.7-2.1 3.7z"/></svg>viewBox="0 0 16 16" enable-background="new 0 0 16 16" xml:space="preserve">
<path d="M15.8,3.4c0,1.4-2.1,2.1-4.4,2.1S8,7.2,8,7.2S6.8,5.5,4.5,5.5S0.2,4.9,0.2,3.4c0,0-1.2,9.1,2.5,9.1C6.4,12.5,8,12.8,8,11
	c0,1.8,1.6,1.6,5.3,1.6S15.8,3.4,15.8,3.4z M7,9.9c-0.3,0.6-1.1,0.7-3.1,0.7c-2,0-2.1-3.6-2.1-3.6c0,0.6,2.2,0.6,3.8,0.6
	S7.3,9.3,7,9.9z M12.2,10.6c-2,0-2.9-0.1-3.1-0.7c-0.3-0.6-0.3-2.4,1.4-2.4s3.8,0,3.8-0.6C14.2,6.9,14.2,10.6,12.2,10.6z"/>
</svg>
