<?xml version="1.0" encoding="utf-8"?>
<!-- Generator: Adobe Illustrator 16.0.0, SVG Export Plug-In . SVG Version: 6.00 Build 0)  -->
<!DOCTYPE svg PUBLIC "-//W3C//DTD SVG 1.1//EN" "http://www.w3.org/Graphics/SVG/1.1/DTD/svg11.dtd">
<svg version="1.1" id="Layer_1" xmlns="http://www.w3.org/2000/svg" xmlns:xlink="http://www.w3.org/1999/xlink" x="0px" y="0px"
	 width="16px" height="16px" viewBox="0 0 16 16" enable-background="new 0 0 16 16" xml:space="preserve">
<path d="M15.8,3.4c0,1.4-2.1,2.1-4.4,2.1S8,7.2,8,7.2S6.8,5.5,4.5,5.5S0.2,4.9,0.2,3.4c0,0-1.2,9.1,2.5,9.1C6.4,12.5,8,12.8,8,11
	c0,1.8,1.6,1.6,5.3,1.6S15.8,3.4,15.8,3.4z M7,9.9c-0.3,0.6-1.1,0.7-3.1,0.7c-2,0-2.1-3.6-2.1-3.6c0,0.6,2.2,0.6,3.8,0.6
	S7.3,9.3,7,9.9z M12.2,10.6c-2,0-2.9-0.1-3.1-0.7c-0.3-0.6-0.3-2.4,1.4-2.4s3.8,0,3.8-0.6C14.2,6.9,14.2,10.6,12.2,10.6z"/>
</svg>
