<svg xmlns="http://www.w3.org/2000/svg" width="16" height="16" viewBox="0 0 16 16"><circle cx="6.319" cy="8.282" r="2.053"/><path d="M13.58 2.517H5.703v-.181a.415.415 0 0 0-.415-.415H3.005a.415.415 0 0 0-.415.415v.181h-.17A2.42 2.42 0 0 0 0 4.937v6.723a2.42 2.42 0 0 0 2.42 2.42h11.16A2.42 2.42 0 0 0 16 11.66V4.937a2.42 2.42 0 0 0-2.42-2.42zm-7.261 9.404a3.638 3.638 0 1 1 .001-7.277 3.638 3.638 0 0 1-.001 7.277zm8.375-6.358a.74.74 0 0 1-.741.741h-2.758a.741.741 0 0 1-.74-.741V4.534c0-.409.332-.741.74-.741h2.758a.74.74 0 0 1 .741.741v1.029z"/></svg>0-0.229-0.186-0.415-0.415-0.415H3.005c-0.229,0-0.415,0.186-0.415,0.415v0.181H2.42
		C1.083,2.517,0,3.6,0,4.937v6.723c0,1.337,1.083,2.42,2.42,2.42h11.16c1.337,0,2.42-1.083,2.42-2.42V4.937
		C16,3.6,14.917,2.517,13.58,2.517z M6.319,11.921c-2.009,0-3.638-1.629-3.638-3.639S4.31,4.645,6.319,4.645
		c2.01,0,3.639,1.628,3.639,3.638S8.329,11.921,6.319,11.921z M14.694,5.563c0,0.409-0.331,0.741-0.741,0.741h-2.758
		c-0.408,0-0.74-0.332-0.74-0.741V4.534c0-0.409,0.332-0.741,0.74-0.741h2.758c0.41,0,0.741,0.332,0.741,0.741V5.563z"/>
</g>
</svg>
