<svg xmlns="http://www.w3.org/2000/svg" width="16" height="16" viewBox="0 0 16 16"><circle cx="6.319" cy="8.282" r="2.053"/><path d="M13.58 2.517H5.703v-.181a.415.415 0 0 0-.415-.415H3.005a.415.415 0 0 0-.415.415v.181h-.17A2.42 2.42 0 0 0 0 4.937v6.723a2.42 2.42 0 0 0 2.42 2.42h11.16A2.42 2.42 0 0 0 16 11.66V4.937a2.42 2.42 0 0 0-2.42-2.42zm-7.261 9.404a3.638 3.638 0 1 1 .001-7.277 3.638 3.638 0 0 1-.001 7.277zm8.375-6.358a.74.74 0 0 1-.741.741h-2.758a.741.741 0 0 1-.74-.741V4.534c0-.409.332-.741.74-.741h2.758a.74.74 0 0 1 .741.741v1.029z"/></svg>