<svg xmlns="http://www.w3.org/2000/svg" width="16" height="16" viewBox="0 0 16 16"><path fill="#010101" d="M1.2 4.4h13.6c.7 0 1.2-.5 1.2-1.2S15.5 2 14.8 2H1.2C.5 2 0 2.5 0 3.2s.5 1.2 1.2 1.2zm13.6 7.2H1.2c-.7 0-1.2.5-1.2 1.2S.5 14 1.2 14h13.6c.7 0 1.2-.5 1.2-1.2s-.5-1.2-1.2-1.2zm0-4.8H1.2C.5 6.8 0 7.3 0 8s.5 1.2 1.2 1.2h13.6c.7 0 1.2-.5 1.2-1.2s-.5-1.2-1.2-1.2z"/></svg>16px" height="16px" viewBox="0 0 16 16" enable-background="new 0 0 16 16" xml:space="preserve">
<g>
	<g>
		<path fill="#010101" d="M1.2,4.4h13.6c0.7,0,1.2-0.5,1.2-1.2C16,2.5,15.5,2,14.8,2H1.2C0.5,2,0,2.5,0,3.2C0,3.9,0.5,4.4,1.2,4.4z
			 M14.8,11.6H1.2c-0.7,0-1.2,0.5-1.2,1.2C0,13.5,0.5,14,1.2,14h13.6c0.7,0,1.2-0.5,1.2-1.2C16,12.1,15.5,11.6,14.8,11.6z M14.8,6.8
			H1.2C0.5,6.8,0,7.3,0,8s0.5,1.2,1.2,1.2h13.6C15.5,9.2,16,8.7,16,8S15.5,6.8,14.8,6.8z"/>
	</g>
</g>
</svg>
