<?xml version="1.0" encoding="utf-8"?>
<!-- Generator: Adobe Illustrator 16.0.0, SVG Export Plug-In . SVG Version: 6.00 Build 0)  -->
<!DOCTYPE svg PUBLIC "-//W3C//DTD SVG 1.1//EN" "http://www.w3.org/Graphics/SVG/1.1/DTD/svg11.dtd">
<svg version="1.1" id="Layer_1" xmlns="http://www.w3.org/2000/svg" xmlns:xlink="http://www.w3.org/1999/xlink" x="0px" y="0px"
	 width="16px" height="16px" viewBox="0 0 16 16" enable-background="new 0 0 16 16" xml:space="preserve">
<g>
	<g>
		<path fill="#010101" d="M1.2,4.4h13.6c0.7,0,1.2-0.5,1.2-1.2C16,2.5,15.5,2,14.8,2H1.2C0.5,2,0,2.5,0,3.2C0,3.9,0.5,4.4,1.2,4.4z
			 M14.8,11.6H1.2c-0.7,0-1.2,0.5-1.2,1.2C0,13.5,0.5,14,1.2,14h13.6c0.7,0,1.2-0.5,1.2-1.2C16,12.1,15.5,11.6,14.8,11.6z M14.8,6.8
			H1.2C0.5,6.8,0,7.3,0,8s0.5,1.2,1.2,1.2h13.6C15.5,9.2,16,8.7,16,8S15.5,6.8,14.8,6.8z"/>
	</g>
</g>
</svg>
