<svg xmlns="http://www.w3.org/2000/svg" width="16" height="16" viewBox="0 0 16 16"><path d="M11.128 2.906v-1.33S7.445.123 5.952.023 3.712.1 3.633 1.395l.648 1.512h6.847zm.304-1.33V3.27h.936V1.576h-.936zM6.019 3.727v.896c0 .166.134.299.299.299h.229V3.428h-.23a.299.299 0 0 0-.298.299zm4.208.179H9.211s.067.426.677 1.002c.538.506 1.544.877 1.544.877l.318-.515s-.704-.318-1.195-.73c-.309-.261-.328-.634-.328-.634zm.214 8.276c-.285-1.684-.579-3.633-.691-5.354-.067-.917-.717-1.825-1.501-1.906h.2a.299.299 0 0 0 .299-.299v-.896a.3.3 0 0 0-.299-.299H8.22v1.49c-.028-.002-.054-.012-.082-.012H7.96V3.428h-.447v1.479h-.26V3.428h-.447v1.481c-.825.017-1.521.967-1.59 1.921-.113 1.719-.407 3.564-.691 5.248-.103.609-.209 1.289-.305 1.908-.061.375.054.793.324 1.125.4.494 1.091.824 1.848.859a24.783 24.783 0 0 0 2.183.01c.756-.035 1.446-.35 1.847-.844.27-.334.385-.725.324-1.098-.096-.62-.203-1.247-.305-1.856zm-.437 2.619c-.305.375-.85.617-1.453.646-.708.029-1.429.029-2.135 0-.605-.029-1.149-.271-1.454-.648-.122-.15-.258-.389-.211-.676.096-.617.202-1.244.304-1.852.287-1.697.583-3.43.698-5.174.049-.682.521-1.191 1.075-1.191h1.311c.553 0 1.026.51 1.075 1.189.114 1.746.411 3.49.697 5.188.104.607.209 1.229.305 1.846.046.287-.09.519-.212.672zm-.986-4.895h-3.07c-.15 1-.445 2.785-.676 4.27-.095.586.541 1.072 1.415 1.113.53.023 1.062-.023 1.592-.047.874-.041 1.51-.457 1.415-1.043-.231-1.484-.526-3.293-.676-4.293z"/></svg>