<svg xmlns="http://www.w3.org/2000/svg" width="16" height="16" viewBox="0 0 16 16"><path d="M2.5 8.7v6.5c0 .2.2.4.3.5.1.1.3.1.4.1h2.9c.1 0 .2 0 .3-.1.1-.1.1-.2.1-.3v-3.1h2.9v3.1c0 .1 0 .2.1.3.1.1.2.1.3.1h2.9c.2 0 .3 0 .4-.1.1-.1.3-.2.3-.5V8.7L8 3.6 2.5 8.7zm13.2-1.8l-2.6-2.3V.9c0-.2-.2-.4-.4-.4h-1c-.2 0-.4.2-.4.4v2L8.7.5c-.4-.4-1-.4-1.4 0l-7 6.4c-.4.4-.5 1-.1 1.5.3.2.6.3.8.3.3 0 .5-.1.7-.3L8 2.7l6.3 5.7c.4.4 1.1.4 1.5-.1.3-.4.3-1-.1-1.4z"/></svg>space="preserve">
<g>
	<g>
		<path d="M2.5,8.7v6.5c0,0.2,0.2,0.4,0.3,0.5c0.1,0.1,0.3,0.1,0.4,0.1h2.9c0.1,0,0.2,0,0.3-0.1c0.1-0.1,0.1-0.2,0.1-0.3v-3.1h2.9
			v3.1c0,0.1,0,0.2,0.1,0.3c0.1,0.1,0.2,0.1,0.3,0.1h2.9c0.2,0,0.3,0,0.4-0.1c0.1-0.1,0.3-0.2,0.3-0.5V8.7L8,3.6L2.5,8.7z M15.7,6.9
			l-2.6-2.3V0.9c0-0.2-0.2-0.4-0.4-0.4h-1c-0.2,0-0.4,0.2-0.4,0.4v2L8.7,0.5c-0.4-0.4-1-0.4-1.4,0l-7,6.4c-0.4,0.4-0.5,1-0.1,1.5v0
			C0.5,8.6,0.8,8.7,1,8.7c0.3,0,0.5-0.1,0.7-0.3L8,2.7l6.3,5.7c0.4,0.4,1.1,0.4,1.5-0.1C16.1,7.9,16.1,7.3,15.7,6.9z"/>
	</g>
</g>
</svg>
