<svg xmlns="http://www.w3.org/2000/svg" width="16" height="16" viewBox="0 0 16 16"><path fill-rule="evenodd" clip-rule="evenodd" d="M13.657 2.343A7.975 7.975 0 0 0 8 0a7.975 7.975 0 0 0-5.657 2.343A7.977 7.977 0 0 0 0 8a7.98 7.98 0 0 0 2.342 5.657A7.983 7.983 0 0 0 8 16a7.982 7.982 0 0 0 5.657-2.343A7.98 7.98 0 0 0 16 8c0-2.21-.896-4.209-2.343-5.657zm-.384 10.931A7.432 7.432 0 0 1 8 15.459a7.437 7.437 0 0 1-5.275-2.185A7.436 7.436 0 0 1 .541 8c0-2.061.835-3.926 2.184-5.274A7.435 7.435 0 0 1 8 .54c2.059 0 3.924.835 5.273 2.186A7.426 7.426 0 0 1 15.459 8a7.43 7.43 0 0 1-2.186 5.274zM8.3 12.472c-.139 0-.207-.12-.207-.24 0-1.222 1.973-4.248 1.973-6.053 0-.652-.43-.945-1.049-.945-1.962-.018-3.119 1.396-3.735 3.044.922-1.172 1.556-1.714 1.898-1.618.138 0 .206.119.206.24 0 1.221-1.972 4.247-1.972 6.053 0 .652.429.944 1.048.944 1.963.019 3.122-1.396 3.737-3.044-.924 1.171-1.558 1.714-1.899 1.619zm1.065-10.37a1.353 1.353 0 1 0-.002 2.706 1.353 1.353 0 0 0 .002-2.706z"/></svg>