<?xml version="1.0" encoding="utf-8"?>
<!-- Generator: Adobe Illustrator 16.0.0, SVG Export Plug-In . SVG Version: 6.00 Build 0)  -->
<!DOCTYPE svg PUBLIC "-//W3C//DTD SVG 1.1//EN" "http://www.w3.org/Graphics/SVG/1.1/DTD/svg11.dtd">
<svg version="1.1" id="Layer_1" xmlns="http://www.w3.org/2000/svg" xmlns:xlink="http://www.w3.org/1999/xlink" x="0px" y="0px"
	 width="16px" height="16px" viewBox="0 0 16 16" enable-background="new 0 0 16 16" xml:space="preserve">
<g>
	<path d="M11.863,5.452h-1.225V4.229c0-0.311-0.252-0.563-0.563-0.563S9.514,3.918,9.514,4.229v1.224H8.29
		c-0.311,0-0.563,0.252-0.563,0.563c0,0.31,0.252,0.562,0.563,0.562h1.224v1.225c0,0.311,0.252,0.563,0.563,0.563
		s0.563-0.252,0.563-0.563V6.577h1.225c0.311,0,0.563-0.252,0.563-0.562C12.426,5.704,12.174,5.452,11.863,5.452z"/>
	<path d="M14.256,1.745c-2.327-2.326-6.098-2.326-8.425,0c-1.87,1.87-2.235,4.676-1.098,6.912l-4.392,4.392
		c-0.455,0.456-0.455,1.193,0,1.648l0.961,0.962c0.455,0.455,1.193,0.455,1.648,0l4.392-4.393c2.236,1.139,5.042,0.773,6.913-1.098
		C16.582,7.843,16.582,4.071,14.256,1.745z M3.196,13.422l-1.155,1.155c-0.171,0.171-0.447,0.171-0.618,0
		c-0.17-0.171-0.17-0.447,0-0.618l1.156-1.155c0.17-0.17,0.447-0.17,0.617,0C3.367,12.975,3.367,13.251,3.196,13.422z M12.73,8.645
		c-1.484,1.484-3.891,1.484-5.375,0s-1.484-3.891,0-5.375s3.891-1.484,5.375,0S14.215,7.16,12.73,8.645z"/>
</g>
</svg>
