<svg xmlns="http://www.w3.org/2000/svg" width="16" height="16" viewBox="0 0 16 16"><path d="M11.863 5.452h-1.225V4.229a.563.563 0 1 0-1.124 0v1.224H8.29a.563.563 0 1 0 0 1.125h1.224v1.225a.563.563 0 1 0 1.126 0V6.577h1.225a.563.563 0 1 0-.002-1.125z"/><path d="M14.256 1.745a5.958 5.958 0 0 0-9.523 6.912L.341 13.049a1.165 1.165 0 0 0 0 1.648l.961.962a1.165 1.165 0 0 0 1.648 0l4.392-4.393a5.958 5.958 0 0 0 6.914-9.521zM3.196 13.422l-1.155 1.155a.436.436 0 1 1-.618-.618l1.156-1.155a.437.437 0 0 1 .617.618zm9.534-4.777a3.801 3.801 0 1 1-5.375-5.376 3.801 3.801 0 0 1 5.375 5.376z"/></svg>