<svg xmlns="http://www.w3.org/2000/svg" width="16" height="16" viewBox="0 0 16 16"><path d="M14.311 3.733h-1.879a.586.586 0 0 0 .013-.119.653.653 0 0 0-.651-.65h-.06v-.178c0-1.076-.88-1.957-1.956-1.957H6.459a1.962 1.962 0 0 0-1.956 1.957v.189a.656.656 0 0 0-.521.758H1.689C.76 3.733 0 4.493 0 5.423v7.525c0 .842.624 1.543 1.432 1.668a.651.651 0 0 0 .642.555h2.252a.655.655 0 0 0 .64-.533h6.128a.655.655 0 0 0 .64.533h2.252a.654.654 0 0 0 .643-.564A1.697 1.697 0 0 0 16 12.948V5.423c0-.93-.76-1.69-1.689-1.69zM6.896 1.956h2.446c.676 0 1.237.506 1.327 1.158a.65.65 0 0 0-.227.619H5.973a.652.652 0 0 0-.388-.719 1.346 1.346 0 0 1 1.311-1.058z"/></svg>7v0.189C4.202,3.032,3.97,3.298,3.97,3.614
	c0,0.041,0.005,0.08,0.012,0.119H1.689C0.76,3.733,0,4.493,0,5.423v7.525c0,0.842,0.624,1.543,1.432,1.668
	c0.047,0.313,0.316,0.555,0.642,0.555h2.252c0.318,0,0.583-0.232,0.64-0.533h6.128c0.057,0.301,0.322,0.533,0.64,0.533h2.252
	c0.328,0,0.599-0.248,0.643-0.564C15.406,14.456,16,13.769,16,12.948V5.423C16,4.493,15.24,3.733,14.311,3.733z M6.896,1.956h2.446
	c0.676,0,1.237,0.506,1.327,1.158c-0.145,0.121-0.239,0.299-0.239,0.5c0,0.041,0.005,0.08,0.012,0.119H5.973
	C5.98,3.694,5.985,3.655,5.985,3.614c0-0.27-0.166-0.502-0.4-0.6C5.716,2.411,6.255,1.956,6.896,1.956z"/>
</svg>
