<svg xmlns="http://www.w3.org/2000/svg" width="16" height="16" viewBox="0 0 16 16"><path fill="#010101" d="M8 0C6.2 0 4.5.7 3.3 1.9 2.1 3.1 1.4 4.8 1.4 6.6c0 1.7.7 3.3 1.8 4.5l.2.2L8 16l4.7-4.7.2-.2c1.1-1.2 1.8-2.8 1.8-4.5C14.6 3 11.7 0 8 0zm3.8 6.6c0 1-.4 2-1.1 2.7C10 10 9 10.4 8 10.4c-2.1 0-3.8-1.7-3.8-3.8 0-1 .4-2 1.1-2.7.7-.7 1.7-1 2.7-1 2.1 0 3.8 1.6 3.8 3.7z"/></svg>x" height="16px" viewBox="0 0 16 16" enable-background="new 0 0 16 16" xml:space="preserve">
<g>
	<g>
		<path fill="#010101" d="M8,0C6.2,0,4.5,0.7,3.3,1.9C2.1,3.1,1.4,4.8,1.4,6.6c0,1.7,0.7,3.3,1.8,4.5l0,0l0.2,0.2c0,0,0,0,0,0L8,16
			l4.7-4.7c0,0,0,0,0,0c0,0,0,0,0,0l0.2-0.2l0,0c1.1-1.2,1.8-2.8,1.8-4.5C14.6,3,11.7,0,8,0z M11.8,6.6c0,1-0.4,2-1.1,2.7
			C10,10,9,10.4,8,10.4c-2.1,0-3.8-1.7-3.8-3.8c0-1,0.4-2,1.1-2.7C6,3.2,7,2.9,8,2.9C10.1,2.9,11.8,4.5,11.8,6.6z"/>
	</g>
</g>
</svg>
