<?xml version="1.0" encoding="utf-8"?>
<!-- Generator: Adobe Illustrator 16.0.0, SVG Export Plug-In . SVG Version: 6.00 Build 0)  -->
<!DOCTYPE svg PUBLIC "-//W3C//DTD SVG 1.1//EN" "http://www.w3.org/Graphics/SVG/1.1/DTD/svg11.dtd">
<svg version="1.1" id="Layer_1" xmlns="http://www.w3.org/2000/svg" xmlns:xlink="http://www.w3.org/1999/xlink" x="0px" y="0px"
	 width="16px" height="16px" viewBox="0 0 16 16" enable-background="new 0 0 16 16" xml:space="preserve">
<g>
	<g>
		<path fill="#010101" d="M8,0C6.2,0,4.5,0.7,3.3,1.9C2.1,3.1,1.4,4.8,1.4,6.6c0,1.7,0.7,3.3,1.8,4.5l0,0l0.2,0.2c0,0,0,0,0,0L8,16
			l4.7-4.7c0,0,0,0,0,0c0,0,0,0,0,0l0.2-0.2l0,0c1.1-1.2,1.8-2.8,1.8-4.5C14.6,3,11.7,0,8,0z M11.8,6.6c0,1-0.4,2-1.1,2.7
			C10,10,9,10.4,8,10.4c-2.1,0-3.8-1.7-3.8-3.8c0-1,0.4-2,1.1-2.7C6,3.2,7,2.9,8,2.9C10.1,2.9,11.8,4.5,11.8,6.6z"/>
	</g>
</g>
</svg>
