<svg xmlns="http://www.w3.org/2000/svg" width="16" height="16" viewBox="0 0 16 16"><path fill="#010101" d="M3.9 3.8c0 1 .9 1.8 1.9 1.8s1.9-.8 1.9-1.8S6.8 2 5.8 2s-1.9.8-1.9 1.8zm8.4 8.7c1.1 0 1.9-.8 1.9-1.8s-.9-1.8-1.9-1.8c-1.1 0-1.9.8-1.9 1.8s.9 1.8 1.9 1.8zM3.7 3.1c.2-.7.8-1.2 1.5-1.4-.3-.3-.6-.5-1-.5-.6 0-1 .5-1 1 0 .4.2.7.5.9zm1.7 6c.6-.4.4-1 .4-1l1 .9s2 .8 2.3.9c.3.1.8.2 1.1-.3.2-.6-.6-.9-.6-.9L7.5 8S5.8 6.3 5.4 6c-.3-.3-1.6-.3-1.9-.3-.3 0-.5.4-.5.4l-1.8 4.2h3.3s.3-.8.9-1.2zm9.4 4.1l-3.5.1S9.2 11.1 9 10.9c-.2-.2-.5-.2-.5-.2h-8v3s7.7.1 9 .1c.7.9 1.4 1.1 1.4 1.1h3.9c.4 0 .7-.4.7-.9 0-.7-.7-.8-.7-.8z"/></svg>