<?xml version="1.0" encoding="utf-8"?>
<!-- Generator: Adobe Illustrator 16.0.0, SVG Export Plug-In . SVG Version: 6.00 Build 0)  -->
<!DOCTYPE svg PUBLIC "-//W3C//DTD SVG 1.1//EN" "http://www.w3.org/Graphics/SVG/1.1/DTD/svg11.dtd">
<svg version="1.1" id="Layer_1" xmlns="http://www.w3.org/2000/svg" xmlns:xlink="http://www.w3.org/1999/xlink" x="0px" y="0px"
	 width="16px" height="16px" viewBox="0 0 16 16" enable-background="new 0 0 16 16" xml:space="preserve">
<path d="M8.045,1.02V1.014H7.959C1.78,1.014,0.156,0,0.156,0l0.468,1.596c0,0,0.097,0.029,0.378,0.076v0.629
	c0,0,0.451,0.215,2.249,0.367v0.42h0.25L3.489,3.961H3.053V4.27H1.157v1.322h2.305l-0.183,8.859
	c-0.284,0.088-0.494,0.467-0.494,0.914v0.023H1.309V16h5.533v-0.611H5.44v-0.023c0-0.447-0.214-0.826-0.494-0.914L4.759,5.592h3.2
	v0.006h3.287l-0.188,8.854c-0.28,0.088-0.494,0.467-0.494,0.914v0.023H9.162V16h5.533v-0.611h-1.477v-0.023
	c0-0.447-0.213-0.82-0.494-0.914l-0.186-8.854h2.309V4.275h-1.896V3.961h-0.437L12.5,3.088h0.253v-0.42
	C14.548,2.516,15,2.301,15,2.301V1.672c0.279-0.047,0.377-0.076,0.377-0.076L15.844,0C15.838,0.006,14.206,1.014,8.045,1.02z
	 M7.434,4.27H5.171V3.961H4.731L4.716,3.088h0.257V2.76c0.783,0.043,1.328,0.07,2.461,0.076V4.27z M11.272,3.961h-0.439v0.314H8.57
	V2.836c1.129-0.006,1.679-0.033,2.457-0.076v0.328h0.258L11.272,3.961z"/>
<path d="M16.344-0.002"/>
</svg>
