<?xml version="1.0" encoding="utf-8"?>
<!-- Generator: Adobe Illustrator 16.0.0, SVG Export Plug-In . SVG Version: 6.00 Build 0)  -->
<!DOCTYPE svg PUBLIC "-//W3C//DTD SVG 1.1//EN" "http://www.w3.org/Graphics/SVG/1.1/DTD/svg11.dtd">
<svg version="1.1" id="Layer_1" xmlns="http://www.w3.org/2000/svg" xmlns:xlink="http://www.w3.org/1999/xlink" x="0px" y="0px"
	 width="16px" height="16px" viewBox="0 0 16 16" enable-background="new 0 0 16 16" xml:space="preserve">
<g>
	<defs>
		<path id="SVGID_1_" d="M4.7,3.1H5V2.8c0.8,0,1.3,0.1,2.5,0.1v1.4H5.2V4H4.7L4.7,3.1z M8.6,2.8c1.1,0,1.7,0,2.5-0.1v0.3h0.3l0,0.9
			h-0.4v0.3H8.6V2.8z M0.6,1.6c0,0,0.1,0,0.4,0.1v0.6c0,0,0.5,0.2,2.2,0.4v0.4h0.2l0,0.9H3.1v0.3H1.2v1.3h2.3l-0.2,8.9
			c-0.3,0.1-0.5,0.5-0.5,0.9v0H1.3V16h5.5v-0.6H5.4v0c0-0.4-0.2-0.8-0.5-0.9L4.8,5.6H8v0h3.3l-0.2,8.9c-0.3,0.1-0.5,0.5-0.5,0.9v0
			H9.2V16h5.5v-0.6h-1.5v0c0-0.4-0.2-0.8-0.5-0.9l-0.2-8.9h2.3V4.3H13V4h-0.4l0-0.9h0.3V2.7C14.5,2.5,15,2.3,15,2.3V1.7
			c0.3,0,0.4-0.1,0.4-0.1L15.8,0c0,0-1.6,1-7.8,1v0H8C1.8,1,0.2,0,0.2,0L0.6,1.6z M15.8,0L15.8,0z"/>
	</defs>
	<use xlink:href="#SVGID_1_"  overflow="visible"/>
	<clipPath id="SVGID_2_">
		<use xlink:href="#SVGID_1_"  overflow="visible"/>
	</clipPath>
	<rect x="0.2" clip-path="url(#SVGID_2_)" width="15.7" height="16"/>
</g>
</svg>
