<svg xmlns="http://www.w3.org/2000/svg" width="16" height="16" viewBox="0 0 16 16"><path d="M8.045 1.02v-.006h-.086C1.78 1.014.156 0 .156 0l.468 1.596s.097.029.378.076v.629s.451.215 2.249.367v.42h.25l-.012.873h-.436v.309H1.157v1.322h2.305l-.183 8.859c-.284.088-.494.467-.494.914v.023H1.309V16h5.533v-.611H5.44v-.023c0-.447-.214-.826-.494-.914l-.187-8.86h3.2v.006h3.287l-.188 8.854c-.28.088-.494.467-.494.914v.023H9.162V16h5.533v-.611h-1.477v-.023c0-.447-.213-.82-.494-.914l-.186-8.854h2.309V4.275h-1.896v-.314h-.437l-.014-.873h.253v-.42C14.548 2.516 15 2.301 15 2.301v-.629c.279-.047.377-.076.377-.076L15.844 0c-.006.006-1.638 1.014-7.799 1.02zm-.611 3.25H5.171v-.309h-.44l-.015-.873h.257V2.76c.783.043 1.328.07 2.461.076V4.27zm3.838-.309h-.439v.314H8.57V2.836a41.638 41.638 0 0 0 2.457-.076v.328h.258l-.013.873z"/></svg>.854c-0.28,0.088-0.494,0.467-0.494,0.914v0.023H9.162V16h5.533v-0.611h-1.477v-0.023
	c0-0.447-0.213-0.82-0.494-0.914l-0.186-8.854h2.309V4.275h-1.896V3.961h-0.437L12.5,3.088h0.253v-0.42
	C14.548,2.516,15,2.301,15,2.301V1.672c0.279-0.047,0.377-0.076,0.377-0.076L15.844,0C15.838,0.006,14.206,1.014,8.045,1.02z
	 M7.434,4.27H5.171V3.961H4.731L4.716,3.088h0.257V2.76c0.783,0.043,1.328,0.07,2.461,0.076V4.27z M11.272,3.961h-0.439v0.314H8.57
	V2.836c1.129-0.006,1.679-0.033,2.457-0.076v0.328h0.258L11.272,3.961z"/>
<path d="M16.344-0.002"/>
</svg>
