<svg xmlns="http://www.w3.org/2000/svg" width="16" height="16" viewBox="0 0 16 16"><path d="M8.045 1.02v-.006h-.086C1.78 1.014.156 0 .156 0l.468 1.596s.097.029.378.076v.629s.451.215 2.249.367v.42h.25l-.012.873h-.436v.309H1.157v1.322h2.305l-.183 8.859c-.284.088-.494.467-.494.914v.023H1.309V16h5.533v-.611H5.44v-.023c0-.447-.214-.826-.494-.914l-.187-8.86h3.2v.006h3.287l-.188 8.854c-.28.088-.494.467-.494.914v.023H9.162V16h5.533v-.611h-1.477v-.023c0-.447-.213-.82-.494-.914l-.186-8.854h2.309V4.275h-1.896v-.314h-.437l-.014-.873h.253v-.42C14.548 2.516 15 2.301 15 2.301v-.629c.279-.047.377-.076.377-.076L15.844 0c-.006.006-1.638 1.014-7.799 1.02zm-.611 3.25H5.171v-.309h-.44l-.015-.873h.257V2.76c.783.043 1.328.07 2.461.076V4.27zm3.838-.309h-.439v.314H8.57V2.836a41.638 41.638 0 0 0 2.457-.076v.328h.258l-.013.873z"/></svg>