<?xml version="1.0" encoding="utf-8"?>
<!-- Generator: Adobe Illustrator 16.0.0, SVG Export Plug-In . SVG Version: 6.00 Build 0)  -->
<!DOCTYPE svg PUBLIC "-//W3C//DTD SVG 1.1//EN" "http://www.w3.org/Graphics/SVG/1.1/DTD/svg11.dtd">
<svg version="1.1" id="Layer_1" xmlns="http://www.w3.org/2000/svg" xmlns:xlink="http://www.w3.org/1999/xlink" x="0px" y="0px"
	 width="16px" height="16px" viewBox="0 0 16 16" enable-background="new 0 0 16 16" xml:space="preserve">
<path d="M14.312,3.733h-1.879c0.007-0.039,0.012-0.078,0.012-0.119c0-0.357-0.293-0.65-0.652-0.65h-0.059V2.786
	c0-1.076-0.88-1.957-1.955-1.957H6.459c-1.076,0-1.956,0.881-1.956,1.957v0.189C4.202,3.032,3.97,3.298,3.97,3.614
	c0,0.041,0.005,0.08,0.012,0.119H1.689C0.76,3.733,0,4.493,0,5.423v7.525c0,0.842,0.624,1.543,1.432,1.668
	c0.047,0.313,0.316,0.555,0.642,0.555h2.252c0.318,0,0.583-0.232,0.64-0.533h6.127c0.057,0.301,0.322,0.533,0.641,0.533h2.252
	c0.328,0,0.6-0.248,0.643-0.564C15.407,14.456,16,13.769,16,12.948V5.423C16,4.493,15.239,3.733,14.312,3.733z M6.896,1.956h2.445
	c0.677,0,1.238,0.506,1.328,1.158c-0.145,0.121-0.239,0.299-0.239,0.5c0,0.041,0.005,0.08,0.012,0.119H5.973
	C5.98,3.694,5.985,3.655,5.985,3.614c0-0.27-0.166-0.502-0.4-0.6C5.716,2.411,6.255,1.956,6.896,1.956z"/>
</svg>
