<svg xmlns="http://www.w3.org/2000/svg" width="16" height="16" viewBox="0 0 16 16"><path d="M14.312 3.733h-1.879a.653.653 0 0 0-.64-.769h-.059v-.178c0-1.076-.88-1.957-1.955-1.957h-3.32a1.962 1.962 0 0 0-1.956 1.957v.189a.656.656 0 0 0-.521.758H1.689C.76 3.733 0 4.493 0 5.423v7.525c0 .842.624 1.543 1.432 1.668a.651.651 0 0 0 .642.555h2.252a.655.655 0 0 0 .64-.533h6.127a.655.655 0 0 0 .641.533h2.252c.328 0 .6-.248.643-.564A1.696 1.696 0 0 0 16 12.948V5.423c0-.93-.761-1.69-1.688-1.69zM6.896 1.956h2.445c.677 0 1.238.506 1.328 1.158a.65.65 0 0 0-.227.619H5.973a.652.652 0 0 0-.388-.719 1.346 1.346 0 0 1 1.311-1.058z"/></svg>