<?xml version="1.0" encoding="utf-8"?>
<!-- Generator: Adobe Illustrator 16.0.0, SVG Export Plug-In . SVG Version: 6.00 Build 0)  -->
<!DOCTYPE svg PUBLIC "-//W3C//DTD SVG 1.1//EN" "http://www.w3.org/Graphics/SVG/1.1/DTD/svg11.dtd">
<svg version="1.1" id="Layer_1" xmlns="http://www.w3.org/2000/svg" xmlns:xlink="http://www.w3.org/1999/xlink" x="0px" y="0px"
	 width="16px" height="16px" viewBox="0 0 16 16" enable-background="new 0 0 16 16" xml:space="preserve">
<g>
	<g>
		<path d="M15.5,8.35H1v-5.6c0-0.301-0.2-0.5-0.5-0.5S0,2.449,0,2.75v10.5c0,0.299,0.2,0.5,0.5,0.5S1,13.449,1,13.15v-1.602h14
			v1.602c0,0.299,0.2,0.5,0.5,0.5s0.5-0.201,0.5-0.5V8.85C16,8.549,15.8,8.35,15.5,8.35z M2.1,7.85h2.8c0.3,0,0.5-0.199,0.5-0.5
			s-0.2-0.5-0.5-0.5H2.1c-0.3,0-0.5,0.199-0.5,0.5S1.8,7.85,2.1,7.85z"/>
	</g>
</g>
</svg>
