<svg xmlns="http://www.w3.org/2000/svg" width="16" height="16" viewBox="0 0 16 16"><path d="M15.5 8.35H1v-5.6c0-.301-.2-.5-.5-.5s-.5.199-.5.5v10.5c0 .299.2.5.5.5s.5-.301.5-.6v-1.602h14v1.602c0 .299.2.5.5.5s.5-.201.5-.5v-4.3c0-.301-.2-.5-.5-.5zm-13.4-.5h2.8c.3 0 .5-.199.5-.5s-.2-.5-.5-.5H2.1c-.3 0-.5.199-.5.5s.2.5.5.5z"/></svg>3.org/1999/xlink" x="0px" y="0px"
	 width="16px" height="16px" viewBox="0 0 16 16" enable-background="new 0 0 16 16" xml:space="preserve">
<g>
	<g>
		<path d="M15.5,8.35H1v-5.6c0-0.301-0.2-0.5-0.5-0.5S0,2.449,0,2.75v10.5c0,0.299,0.2,0.5,0.5,0.5S1,13.449,1,13.15v-1.602h14
			v1.602c0,0.299,0.2,0.5,0.5,0.5s0.5-0.201,0.5-0.5V8.85C16,8.549,15.8,8.35,15.5,8.35z M2.1,7.85h2.8c0.3,0,0.5-0.199,0.5-0.5
			s-0.2-0.5-0.5-0.5H2.1c-0.3,0-0.5,0.199-0.5,0.5S1.8,7.85,2.1,7.85z"/>
	</g>
</g>
</svg>
