<svg xmlns="http://www.w3.org/2000/svg" width="16" height="16" viewBox="0 0 16 16"><path d="M6.6 2.8c-.7 0-1.2 0-1.2-.8 0-1 .5-1.3 1.3-.9 1 .5 1 .3.3-.2-1.7-1.1-3-1.6-2.9 1 .1 1.9 1.1 1.9 2.6 1.2.7-.3.6-.4-.1-.3zm2 1.4H7.5c-.3 0-.4 0-.4.4v11c0 .4.1.4.4.4h1.1c.3 0 .4 0 .4-.4v-11c-.1-.4-.1-.4-.4-.4zm-2.5 0H1.9c-.4 0-.4.1-.4.4v1.3c0 .3 0 .4.4.4H6c.3 0 .4 0 .4-.4V4.6c.1-.4 0-.4-.3-.4zm5.8-2.3C12-.7 10.7-.3 9 .9c-.8.5-.7.7.2.2.9-.4 1.3-.1 1.3.9 0 .8-.5.8-1.2.8-.7-.1-.8 0-.1.3 1.6.8 2.6.7 2.7-1.2zM6.1 7H2.6c-.4 0-.4 0-.4.4v8.3c0 .4 0 .4.4.4h3.5c.3 0 .4 0 .4-.4V7.4c0-.3 0-.4-.4-.4zm7.3 0H9.9c-.4 0-.4.1-.4.4v8.2c0 .3 0 .4.4.4h3.5c.3 0 .4-.1.4-.4V7.4c0-.4 0-.4-.4-.4zm.7-2.8H9.9c-.4 0-.4.1-.4.4v1.3c0 .3 0 .4.4.4h4.2c.4 0 .4-.1.4-.4V4.6c-.1-.4-.1-.4-.4-.4z"/></svg>.1,4.2H1.9c-0.4,0-0.4,0.1-0.4,0.4v1.3c0,0.3,0,0.4,0.4,0.4h4.1c0.3,0,0.4,0,0.4-0.4V4.6
			C6.5,4.2,6.4,4.2,6.1,4.2z M11.9,1.9c0.1-2.6-1.2-2.2-2.9-1C8.2,1.4,8.3,1.6,9.2,1.1C10.1,0.7,10.5,1,10.5,2
			c0,0.8-0.5,0.8-1.2,0.8c-0.7-0.1-0.8,0-0.1,0.3C10.8,3.9,11.8,3.8,11.9,1.9z M6.1,7H2.6C2.2,7,2.2,7,2.2,7.4v7.9v0.4
			c0,0.4,0,0.4,0.4,0.4h3.5c0.3,0,0.4,0,0.4-0.4v-4.7V7.4C6.5,7.1,6.5,7,6.1,7z M13.4,7h-3H9.9C9.5,7,9.5,7.1,9.5,7.4v0.5v7.7
			c0,0.3,0,0.4,0.4,0.4h3.5c0.3,0,0.4-0.1,0.4-0.4V7.4C13.8,7,13.8,7,13.4,7z M14.1,4.2h-0.9H9.9c-0.4,0-0.4,0.1-0.4,0.4v1.3
			c0,0.3,0,0.4,0.4,0.4h1.3h2.9c0.4,0,0.4-0.1,0.4-0.4V4.6C14.4,4.2,14.4,4.2,14.1,4.2z"/>
	</g>
</g>
</svg>
