<svg xmlns="http://www.w3.org/2000/svg" width="16" height="16" viewBox="0 0 16 16"><path d="M6.6 2.8c-.7 0-1.2 0-1.2-.8 0-1 .5-1.3 1.3-.9 1 .5 1 .3.3-.2-1.7-1.1-3-1.6-2.9 1 .1 1.9 1.1 1.9 2.6 1.2.7-.3.6-.4-.1-.3zm2 1.4H7.5c-.3 0-.4 0-.4.4v11c0 .4.1.4.4.4h1.1c.3 0 .4 0 .4-.4v-11c-.1-.4-.1-.4-.4-.4zm-2.5 0H1.9c-.4 0-.4.1-.4.4v1.3c0 .3 0 .4.4.4H6c.3 0 .4 0 .4-.4V4.6c.1-.4 0-.4-.3-.4zm5.8-2.3C12-.7 10.7-.3 9 .9c-.8.5-.7.7.2.2.9-.4 1.3-.1 1.3.9 0 .8-.5.8-1.2.8-.7-.1-.8 0-.1.3 1.6.8 2.6.7 2.7-1.2zM6.1 7H2.6c-.4 0-.4 0-.4.4v8.3c0 .4 0 .4.4.4h3.5c.3 0 .4 0 .4-.4V7.4c0-.3 0-.4-.4-.4zm7.3 0H9.9c-.4 0-.4.1-.4.4v8.2c0 .3 0 .4.4.4h3.5c.3 0 .4-.1.4-.4V7.4c0-.4 0-.4-.4-.4zm.7-2.8H9.9c-.4 0-.4.1-.4.4v1.3c0 .3 0 .4.4.4h4.2c.4 0 .4-.1.4-.4V4.6c-.1-.4-.1-.4-.4-.4z"/></svg>