<svg xmlns="http://www.w3.org/2000/svg" width="16" height="16" viewBox="0 0 16 16"><path fill="#010101" d="M1.7.6C.3 1.7 0 3.7 1 5.1l5.1-3.8c-1-1.4-3-1.7-4.4-.7zm12.6 0c-1.4-1.1-3.4-.8-4.5.6L15 5.1c1-1.4.7-3.4-.7-4.5zM8 2.2C4.5 2.2 1.7 5 1.7 8.5c0 1.7.7 3.2 1.8 4.4l-.7 2.5c-.1.2 0 .4.2.5l.2.1c.2.1.4 0 .5-.2L4.9 14c.9.5 2 .8 3.1.8s2.2-.3 3.1-.8l1.1 1.8c.1.2.3.2.5.2l.2-.1c.2-.1.3-.3.2-.5l-.7-2.5c1.1-1.1 1.8-2.7 1.8-4.4.1-3.4-2.7-6.3-6.2-6.3zm0 11.3c-2.7 0-5-2.2-5-5s2.2-5 5-5c2.7 0 5 2.2 5 5s-2.3 5-5 5zm.9-4.9c0-.4-.3-.8-.7-.8v-3h-.4v3c-.4 0-.7.3-.7.8 0 .4.4.8.9.8.3 0 .5-.1.6-.3l2.3.7.1-.5-2.1-.7z"/></svg>