<?xml version="1.0" encoding="utf-8"?>
<!-- Generator: Adobe Illustrator 16.0.0, SVG Export Plug-In . SVG Version: 6.00 Build 0)  -->
<!DOCTYPE svg PUBLIC "-//W3C//DTD SVG 1.1//EN" "http://www.w3.org/Graphics/SVG/1.1/DTD/svg11.dtd">
<svg version="1.1" id="Layer_1" xmlns="http://www.w3.org/2000/svg" xmlns:xlink="http://www.w3.org/1999/xlink" x="0px" y="0px"
	 width="16px" height="16px" viewBox="0 0 16 16" enable-background="new 0 0 16 16" xml:space="preserve">
<g>
	<path d="M10.6,7.9L1.2,5.7l0.4,1.5l3.9,1C5.4,8.3,5.4,8.5,5.4,8.7c0,0.4,0.2,0.8,0.5,1.1L5,12.2H1.9c-0.2-0.8-0.8-1.4-1.5-1.7v4.8
		c0.8-0.4,1.4-1.1,1.5-2h3.7L7,10c0.6-0.1,1.1-0.6,1.2-1.2l3.4,0.9l0.7-2.9l-0.6-0.1L10.6,7.9z"/>
	<polygon points="13.2,6.8 12.6,10 14.9,12.2 16,5.9 	"/>
	<polygon points="11.3,5.5 12.6,5.9 14.5,3.9 1,0.7 0,4.5 10.2,6.8 	"/>
</g>
</svg>
