<svg xmlns="http://www.w3.org/2000/svg" width="16" height="16" viewBox="0 0 16 16"><path d="M10.6 7.9L1.2 5.7l.4 1.5 3.9 1c-.1.1-.1.3-.1.5 0 .4.2.8.5 1.1L5 12.2H1.9c-.2-.8-.8-1.4-1.5-1.7v4.8c.8-.4 1.4-1.1 1.5-2h3.7L7 10c.6-.1 1.1-.6 1.2-1.2l3.4.9.7-2.9-.6-.1-1.1 1.2zm2.6-1.1l-.6 3.2 2.3 2.2L16 5.9z"/><path d="M11.3 5.5l1.3.4 1.9-2L1 .7 0 4.5l10.2 2.3z"/></svg>
	 width="16px" height="16px" viewBox="0 0 16 16" enable-background="new 0 0 16 16" xml:space="preserve">
<g>
	<path d="M10.6,7.9L1.2,5.7l0.4,1.5l3.9,1C5.4,8.3,5.4,8.5,5.4,8.7c0,0.4,0.2,0.8,0.5,1.1L5,12.2H1.9c-0.2-0.8-0.8-1.4-1.5-1.7v4.8
		c0.8-0.4,1.4-1.1,1.5-2h3.7L7,10c0.6-0.1,1.1-0.6,1.2-1.2l3.4,0.9l0.7-2.9l-0.6-0.1L10.6,7.9z"/>
	<polygon points="13.2,6.8 12.6,10 14.9,12.2 16,5.9 	"/>
	<polygon points="11.3,5.5 12.6,5.9 14.5,3.9 1,0.7 0,4.5 10.2,6.8 	"/>
</g>
</svg>
