<svg xmlns="http://www.w3.org/2000/svg" width="16" height="16" viewBox="0 0 16 16"><g fill="#010101"><path d="M8 8c-.5 0-.9.2-1.2.5-.4.3-.5.8-.5 1.2 0 .3.1.6.2.9.1.3.4.5.6.6.3.2.6.2.9.2.5 0 .9-.2 1.2-.5.3-.3.5-.7.5-1.2s-.2-.9-.5-1.2C8.9 8.2 8.5 8 8 8zm0-.8c.4 0 .7-.1 1-.4.3-.3.4-.6.4-.9 0-.4-.1-.7-.4-1-.3-.2-.6-.4-1-.4s-.7.1-1 .4c-.3.3-.4.6-.4.9 0 .4.1.7.4 1 .3.3.6.4 1 .4z"/><path d="M8 0C3.6 0 0 3.6 0 8s3.6 8 8 8 8-3.6 8-8-3.6-8-8-8zm2 11.6c-.5.5-1.2.7-2 .7s-1.5-.2-2-.7c-.5-.5-.8-1.1-.8-1.9 0-.6.1-1 .4-1.4.3-.3.7-.6 1.2-.7-.4-.2-.8-.4-1-.7-.1-.3-.3-.6-.3-1 0-.6.2-1.1.7-1.6.4-.4 1-.6 1.8-.6.7 0 1.3.2 1.8.6.5.4.7 1 .7 1.6 0 .4-.1.7-.3 1-.3.3-.6.5-1 .7.5.2.9.4 1.2.8.3.4.4.8.4 1.4 0 .7-.3 1.3-.8 1.8z"/></g></svg>