<svg xmlns="http://www.w3.org/2000/svg" width="16" height="16" viewBox="0 0 16 16"><path d="M15.5 8.4H1V2.8c0-.3-.2-.5-.5-.5s-.5.2-.5.5v10.5c0 .3.2.5.5.5s.5-.3.5-.6v-1.6h14v1.6c0 .3.2.5.5.5s.5-.2.5-.5V8.9c0-.3-.2-.5-.5-.5zM2.1 7.9h2.8c.3 0 .5-.2.5-.5s-.2-.5-.5-.5H2.1c-.3 0-.5.2-.5.5s.2.5.5.5z"/></svg> xmlns:xlink="http://www.w3.org/1999/xlink" x="0px" y="0px"
	 width="16px" height="16px" viewBox="0 0 16 16" enable-background="new 0 0 16 16" xml:space="preserve">
<g>
	<g>
		<path d="M15.5,8.4H1V2.8c0-0.3-0.2-0.5-0.5-0.5S0,2.5,0,2.8v10.5c0,0.3,0.2,0.5,0.5,0.5S1,13.5,1,13.2v-1.6h14v1.6
			c0,0.3,0.2,0.5,0.5,0.5c0.3,0,0.5-0.2,0.5-0.5V8.9C16,8.6,15.8,8.4,15.5,8.4z M2.1,7.9h2.8c0.3,0,0.5-0.2,0.5-0.5S5.2,6.9,4.9,6.9
			H2.1c-0.3,0-0.5,0.2-0.5,0.5S1.8,7.9,2.1,7.9z"/>
	</g>
</g>
</svg>
