<?xml version="1.0" encoding="utf-8"?>
<!-- Generator: Adobe Illustrator 16.0.0, SVG Export Plug-In . SVG Version: 6.00 Build 0)  -->
<!DOCTYPE svg PUBLIC "-//W3C//DTD SVG 1.1//EN" "http://www.w3.org/Graphics/SVG/1.1/DTD/svg11.dtd">
<svg version="1.1" id="Layer_1" xmlns="http://www.w3.org/2000/svg" xmlns:xlink="http://www.w3.org/1999/xlink" x="0px" y="0px"
	 width="16px" height="16px" viewBox="0 0 16 16" enable-background="new 0 0 16 16" xml:space="preserve">
<g>
	<g>
		<path d="M15.5,8.4H1V2.8c0-0.3-0.2-0.5-0.5-0.5S0,2.5,0,2.8v10.5c0,0.3,0.2,0.5,0.5,0.5S1,13.5,1,13.2v-1.6h14v1.6
			c0,0.3,0.2,0.5,0.5,0.5c0.3,0,0.5-0.2,0.5-0.5V8.9C16,8.6,15.8,8.4,15.5,8.4z M2.1,7.9h2.8c0.3,0,0.5-0.2,0.5-0.5S5.2,6.9,4.9,6.9
			H2.1c-0.3,0-0.5,0.2-0.5,0.5S1.8,7.9,2.1,7.9z"/>
	</g>
</g>
</svg>
