<?xml version="1.0" encoding="utf-8"?>
<!-- Generator: Adobe Illustrator 16.0.0, SVG Export Plug-In . SVG Version: 6.00 Build 0)  -->
<!DOCTYPE svg PUBLIC "-//W3C//DTD SVG 1.1//EN" "http://www.w3.org/Graphics/SVG/1.1/DTD/svg11.dtd">
<svg version="1.1" id="Layer_1" xmlns="http://www.w3.org/2000/svg" xmlns:xlink="http://www.w3.org/1999/xlink" x="0px" y="0px"
	 width="16px" height="16px" viewBox="0 0 16 16" enable-background="new 0 0 16 16" xml:space="preserve">
<path d="M13.8,3.7H9.6C9.4,3.5,9.1,3.3,8.8,3.3l1.6-1.6c0.3,0.1,0.7,0.1,1-0.2c0.3-0.3,0.3-0.9,0-1.2s-0.9-0.3-1.2,0
	c-0.3,0.3-0.3,0.7-0.2,1L8.1,3.1c0,0,0,0-0.1,0s0,0-0.1,0L6,1.2c0.1-0.3,0.1-0.7-0.2-1C5.5-0.1,5-0.1,4.6,0.3s-0.3,0.9,0,1.2
	c0.3,0.3,0.7,0.3,1,0.2l1.6,1.6C6.9,3.3,6.6,3.5,6.4,3.7H2.2c-0.9,0-1.6,0.7-1.6,1.6v7.2c0,0.9,0.7,1.6,1.6,1.6h4.4
	c-0.9,0.2-1.6,0.7-2.3,1.3c-0.1,0.1-0.1,0.3-0.1,0.4C4.3,15.9,4.4,16,4.5,16h1.1c0.1,0,0.1,0,0.2-0.1c0.3-0.2,0.5-0.3,0.8-0.4
	c0.4-0.2,0.9-0.2,1.3-0.2c0.8,0,1.6,0.2,2.2,0.7c0.1,0,0.1,0.1,0.2,0.1h1.1c0.1,0,0.3-0.1,0.3-0.2c0.1-0.1,0-0.3-0.1-0.4
	c-0.6-0.6-1.4-1.1-2.3-1.3h4.4c0.9,0,1.6-0.7,1.6-1.6V5.3C15.4,4.4,14.7,3.7,13.8,3.7z M13.9,11.8c0,0.7-0.6,1.3-1.3,1.3H3.4
	c-0.7,0-1.3-0.6-1.3-1.3V6c0-0.7,0.6-1.3,1.3-1.3h9.3c0.7,0,1.3,0.6,1.3,1.3V11.8z"/>
</svg>
