<svg xmlns="http://www.w3.org/2000/svg" width="16" height="16" viewBox="0 0 16 16"><path d="M13.8 3.7H9.6c-.2-.2-.5-.4-.8-.4l1.6-1.6c.3.1.7.1 1-.2.3-.3.3-.9 0-1.2s-.9-.3-1.2 0c-.3.3-.3.7-.2 1L8.1 3.1h-.2L6 1.2c.1-.3.1-.7-.2-1-.3-.3-.8-.3-1.2.1s-.3.9 0 1.2c.3.3.7.3 1 .2l1.6 1.6c-.3 0-.6.2-.8.4H2.2c-.9 0-1.6.7-1.6 1.6v7.2c0 .9.7 1.6 1.6 1.6h4.4c-.9.2-1.6.7-2.3 1.3-.1.1-.1.3-.1.4.1.1.2.2.3.2h1.1c.1 0 .1 0 .2-.1.3-.2.5-.3.8-.4.4-.2.9-.2 1.3-.2.8 0 1.6.2 2.2.7.1 0 .1.1.2.1h1.1c.1 0 .3-.1.3-.2.1-.1 0-.3-.1-.4-.6-.6-1.4-1.1-2.3-1.3h4.4c.9 0 1.6-.7 1.6-1.6V5.3c.1-.9-.6-1.6-1.5-1.6zm.1 8.1c0 .7-.6 1.3-1.3 1.3H3.4c-.7 0-1.3-.6-1.3-1.3V6c0-.7.6-1.3 1.3-1.3h9.3c.7 0 1.3.6 1.3 1.3v5.8z"/></svg>s-0.3,0.9,0,1.2
	c0.3,0.3,0.7,0.3,1,0.2l1.6,1.6C6.9,3.3,6.6,3.5,6.4,3.7H2.2c-0.9,0-1.6,0.7-1.6,1.6v7.2c0,0.9,0.7,1.6,1.6,1.6h4.4
	c-0.9,0.2-1.6,0.7-2.3,1.3c-0.1,0.1-0.1,0.3-0.1,0.4C4.3,15.9,4.4,16,4.5,16h1.1c0.1,0,0.1,0,0.2-0.1c0.3-0.2,0.5-0.3,0.8-0.4
	c0.4-0.2,0.9-0.2,1.3-0.2c0.8,0,1.6,0.2,2.2,0.7c0.1,0,0.1,0.1,0.2,0.1h1.1c0.1,0,0.3-0.1,0.3-0.2c0.1-0.1,0-0.3-0.1-0.4
	c-0.6-0.6-1.4-1.1-2.3-1.3h4.4c0.9,0,1.6-0.7,1.6-1.6V5.3C15.4,4.4,14.7,3.7,13.8,3.7z M13.9,11.8c0,0.7-0.6,1.3-1.3,1.3H3.4
	c-0.7,0-1.3-0.6-1.3-1.3V6c0-0.7,0.6-1.3,1.3-1.3h9.3c0.7,0,1.3,0.6,1.3,1.3V11.8z"/>
</svg>
