<?xml version="1.0" encoding="utf-8"?>
<!-- Generator: Adobe Illustrator 16.0.0, SVG Export Plug-In . SVG Version: 6.00 Build 0)  -->
<!DOCTYPE svg PUBLIC "-//W3C//DTD SVG 1.1//EN" "http://www.w3.org/Graphics/SVG/1.1/DTD/svg11.dtd">
<svg version="1.1" id="Layer_1" xmlns="http://www.w3.org/2000/svg" xmlns:xlink="http://www.w3.org/1999/xlink" x="0px" y="0px"
	 width="16px" height="16px" viewBox="0 0 16 16" enable-background="new 0 0 16 16" xml:space="preserve">
<g>
	<g>
		<path fill="#010101" d="M15.7,2.6H0.3C0.1,2.6,0,2.8,0,2.9v10.2c0,0.2,0.1,0.3,0.3,0.3h15.4c0.2,0,0.3-0.1,0.3-0.3V2.9
			C16,2.8,15.9,2.6,15.7,2.6z M13,3.2l-0.8,2.4H4L3,3.2H13z M14.3,6.1v5.5H1.5V6.1H14.3z M15.4,12.8H0.6V3.2h1.8l1,2.4H1.3
			C1.1,5.6,1,5.7,1,5.9v6c0,0.2,0.1,0.3,0.3,0.3h13.3c0.2,0,0.3-0.1,0.3-0.3v-6c0-0.2-0.1-0.3-0.3-0.3h-1.8l0.8-2.4h1.9V12.8z
			 M4.4,10.5h7.4c1,0,1.8-0.8,1.8-1.8V8.3c0-1-0.8-1.8-1.8-1.8H4.4c-1,0-1.8,0.8-1.8,1.8v0.5C2.6,9.8,3.4,10.5,4.4,10.5z M3.2,8.3
			c0-0.7,0.5-1.2,1.2-1.2h7.4c0.7,0,1.2,0.5,1.2,1.2v0.5c0,0.7-0.5,1.2-1.2,1.2H4.4c-0.7,0-1.2-0.5-1.2-1.2V8.3z M4.7,9.9
			c0.8,0,1.4-0.6,1.4-1.4c0-0.8-0.6-1.4-1.4-1.4S3.3,7.8,3.3,8.6C3.3,9.3,3.9,9.9,4.7,9.9z M4.7,7.7c0.5,0,0.8,0.4,0.8,0.8
			c0,0.5-0.4,0.8-0.8,0.8S3.9,9,3.9,8.6C3.9,8.1,4.2,7.7,4.7,7.7z M11.4,9.9c0.8,0,1.4-0.6,1.4-1.4c0-0.8-0.6-1.4-1.4-1.4
			S10,7.8,10,8.6C10,9.3,10.7,9.9,11.4,9.9z M11.4,7.7c0.5,0,0.8,0.4,0.8,0.8c0,0.5-0.4,0.8-0.8,0.8S10.6,9,10.6,8.6
			C10.6,8.1,11,7.7,11.4,7.7z M6.6,9.4h2.5c0.2,0,0.3-0.1,0.3-0.3S9.3,8.9,9.1,8.9H6.6C6.5,8.9,6.4,9,6.4,9.2S6.5,9.4,6.6,9.4z"/>
	</g>
</g>
</svg>
