<svg xmlns="http://www.w3.org/2000/svg" width="16" height="16" viewBox="0 0 16 16"><path fill="#010101" d="M15.7 2.6H.3c-.2 0-.3.2-.3.3v10.2c0 .2.1.3.3.3h15.4c.2 0 .3-.1.3-.3V2.9c0-.1-.1-.3-.3-.3zm-2.7.6l-.8 2.4H4L3 3.2h10zm1.3 2.9v5.5H1.5V6.1h12.8zm1.1 6.7H.6V3.2h1.8l1 2.4H1.3c-.2 0-.3.1-.3.3v6c0 .2.1.3.3.3h13.3c.2 0 .3-.1.3-.3v-6c0-.2-.1-.3-.3-.3h-1.8l.8-2.4h1.9v9.6zm-11-2.3h7.4c1 0 1.8-.8 1.8-1.8v-.4c0-1-.8-1.8-1.8-1.8H4.4c-1 0-1.8.8-1.8 1.8v.5c0 1 .8 1.7 1.8 1.7zM3.2 8.3c0-.7.5-1.2 1.2-1.2h7.4c.7 0 1.2.5 1.2 1.2v.5c0 .7-.5 1.2-1.2 1.2H4.4c-.7 0-1.2-.5-1.2-1.2v-.5zm1.5 1.6c.8 0 1.4-.6 1.4-1.4 0-.8-.6-1.4-1.4-1.4s-1.4.7-1.4 1.5c0 .7.6 1.3 1.4 1.3zm0-2.2c.5 0 .8.4.8.8 0 .5-.4.8-.8.8s-.8-.3-.8-.7c0-.5.3-.9.8-.9zm6.7 2.2c.8 0 1.4-.6 1.4-1.4 0-.8-.6-1.4-1.4-1.4S10 7.8 10 8.6c0 .7.7 1.3 1.4 1.3zm0-2.2c.5 0 .8.4.8.8 0 .5-.4.8-.8.8s-.8-.3-.8-.7c0-.5.4-.9.8-.9zM6.6 9.4h2.5c.2 0 .3-.1.3-.3s-.1-.2-.3-.2H6.6c-.1 0-.2.1-.2.3s.1.2.2.2z"/></svg>