<svg xmlns="http://www.w3.org/2000/svg" width="16" height="16" viewBox="0 0 16 16"><path d="M8 0C3.6 0 0 3.6 0 8s3.6 8 8 8 8-3.6 8-8-3.6-8-8-8zm0 2c3.3 0 6 2.7 6 6v.1l-.1-.1c-.4-.3-.8-.6-1.7-.6-.9 0-1.3.3-1.7.6-.3.2-.5.4-1 .4s-.7-.2-1-.4c-.5-.3-1-.6-1.9-.6-.9 0-1.3.3-1.7.6-.3.2-.5.4-1 .4s-.7-.2-1-.4c-.3-.1-.6-.3-.9-.4C2.2 4.5 4.8 2 8 2zm5.4 8.6c-.3-.2-.7-.3-1.3-.3-.9 0-1.3.3-1.7.6-.3.2-.5.4-1 .4s-.7-.2-1-.4c-.4-.3-.8-.6-1.7-.6-.9 0-1.3.3-1.7.6-.3.2-.5.4-1 .4s-.7-.2-1-.4l-.1-.1c-.5-.5-.7-1.2-.8-1.8h.1c.3.3.8.6 1.7.6.9 0 1.3-.3 1.7-.6.3-.2.5-.4 1-.4s.7.2 1 .4c.4.3.9.6 1.8.6s1.3-.3 1.7-.6c.3-.2.5-.4 1-.4s.7.2 1 .4c.2.1.4.3.7.4-.1.4-.2.8-.4 1.2zM8 14c-1.5 0-2.9-.6-4-1.5.8 0 1.2-.3 1.6-.6.3-.2.5-.4 1-.4s.7.2 1 .4c.4.3.8.6 1.7.6.9 0 1.3-.3 1.7-.6.3-.2.5-.4 1-.4.3 0 .5 0 .6.1C11.7 13.1 9.9 14 8 14z"/></svg>