<svg xmlns="http://www.w3.org/2000/svg" width="16" height="16" viewBox="0 0 16 16"><path d="M14.8 3.3c-.4-.3-1-.7-2-.7s-1.6.4-2 .7c-.4.2-.6.4-1.2.4s-.8-.2-1.2-.4c-.4-.3-1-.7-2-.7s-1.6.4-2 .7c-.4.2-.6.4-1.2.4s-.8-.2-1.2-.4c-.4-.3-1-.7-2-.7V4c.6 0 .8.2 1.2.4.4.3 1 .7 2 .7s1.6-.4 2-.7c.4-.2.6-.4 1.2-.4s.8.2 1.2.4c.4.3 1 .7 2 .7s1.6-.4 2-.7c.4-.2.6-.4 1.2-.4s.8.2 1.2.4c.4.3 1 .7 2 .7V3.7c-.6 0-.8-.2-1.2-.4zm-2 3.5c-1 0-1.6.4-2 .7-.4.2-.6.4-1.2.4-.6-.1-.8-.2-1.2-.5-.4-.3-1-.7-2-.7s-1.6.4-2 .7c-.4.3-.6.4-1.2.4s-.8-.1-1.2-.4c-.4-.3-1-.6-2-.6v1.4c.6 0 .8.2 1.2.4.4.3 1 .7 2 .7s1.6-.4 2-.7c.4-.2.6-.4 1.2-.4s.8.2 1.2.4c.4.3 1 .7 2 .7s1.6-.4 2-.7c.4-.2.6-.4 1.2-.4s.8.2 1.2.4c.4.3 1 .7 2 .7V7.8c-.6 0-.8-.2-1.2-.4-.4-.3-1-.6-2-.6zm0 4.1c-1 0-1.6.4-2 .7-.4.2-.6.4-1.2.4s-.8-.2-1.2-.4c-.4-.3-1-.7-2-.7s-1.6.4-2 .7c-.4.2-.6.4-1.2.4s-.8-.2-1.2-.4c-.4-.3-1-.7-2-.7v1.4c.6 0 .8.2 1.2.4.4.3 1 .7 2 .7s1.6-.4 2-.7c.4-.2.6-.4 1.2-.4s.8.2 1.2.4c.4.3 1 .7 2 .7s1.6-.4 2-.7c.4-.2.6-.4 1.2-.4s.8.2 1.2.4c.4.3 1 .7 2 .7V12c-.6 0-.8-.2-1.2-.4-.4-.3-1-.7-2-.7z"/></svg>.7,3.8,7.8,3.2,7.8C2.6,7.8,2.4,7.7,2,7.4
			C1.6,7.1,1,6.8,0,6.8v1.4c0.6,0,0.8,0.2,1.2,0.4c0.4,0.3,1,0.7,2,0.7s1.6-0.4,2-0.7c0.4-0.2,0.6-0.4,1.2-0.4
			c0.6,0,0.8,0.2,1.2,0.4c0.4,0.3,1,0.7,2,0.7c1,0,1.6-0.4,2-0.7c0.4-0.2,0.6-0.4,1.2-0.4s0.8,0.2,1.2,0.4c0.4,0.3,1,0.7,2,0.7V7.8
			c-0.6,0-0.8-0.2-1.2-0.4C14.4,7.1,13.8,6.8,12.8,6.8z M12.8,10.9c-1,0-1.6,0.4-2,0.7c-0.4,0.2-0.6,0.4-1.2,0.4
			c-0.6,0-0.8-0.2-1.2-0.4c-0.4-0.3-1-0.7-2-0.7c-1,0-1.6,0.4-2,0.7C4,11.8,3.8,12,3.2,12c-0.6,0-0.8-0.2-1.2-0.4
			c-0.4-0.3-1-0.7-2-0.7v1.4c0.6,0,0.8,0.2,1.2,0.4c0.4,0.3,1,0.7,2,0.7s1.6-0.4,2-0.7c0.4-0.2,0.6-0.4,1.2-0.4
			c0.6,0,0.8,0.2,1.2,0.4c0.4,0.3,1,0.7,2,0.7c1,0,1.6-0.4,2-0.7c0.4-0.2,0.6-0.4,1.2-0.4s0.8,0.2,1.2,0.4c0.4,0.3,1,0.7,2,0.7V12
			c-0.6,0-0.8-0.2-1.2-0.4C14.4,11.3,13.8,10.9,12.8,10.9z"/>
	</g>
</g>
</svg>
