<svg xmlns="http://www.w3.org/2000/svg" width="16" height="16" viewBox="0 0 16 16"><g fill="#010101"><path d="M7.1 6.6c.5 0 .9-.3.9-.8 0-.4-.4-.8-.9-.8s-.8.4-.8.8c0 .5.4.8.8.8zm3.8 0c.4 0 .8-.4.8-.8 0-.5-.4-.8-.8-.8s-.8.4-.8.8c0 .5.4.8.8.8zm.7 1c-.2-.1-.5.1-.5.3-.1.7-.9 1.4-2 1.4s-2-.7-2.1-1.4c0-.2-.3-.4-.5-.3-.2 0-.4.3-.3.5.2 1.2 1.5 2.1 2.8 2.1h.1c.7 0 1.3-.2 1.9-.6.5-.4.9-.9 1-1.4 0-.3-.2-.5-.4-.6z"/><path d="M15.9 6.3c-.2-.9-.5-1.8-1.1-2.6-.6-.9-1.5-1.6-2.5-2.1S10.1.8 9 .8c-.3 0-.6 0-1 .1-1.2.1-2.6.7-3.6 1.5-1.2.9-1.9 2.1-2.2 3.5 0 .3-.1.8-.1 1.2-.1.7-.1 1.3-.3 1.8-.2.3-.4.5-1 .5-.3 0-.6.2-.8.5-.1.3-.1.6.1.9.9 1.2 2 1.9 3.2 2.3-.1.2-.1.3-.1.5 0 .9.7 1.7 1.7 1.7.9 0 1.6-.7 1.7-1.6H9c0 .9.8 1.6 1.7 1.6.9 0 1.7-.7 1.7-1.7 0-.2 0-.4-.1-.6.7-.3 1.3-.7 1.8-1.3.8-.7 1.3-1.6 1.6-2.5.3-1 .4-2 .2-2.9zm-11 7.8c-.3 0-.5-.2-.5-.5s.2-.6.5-.6.6.2.6.5-.2.6-.6.6zm5.8 0c-.3 0-.5-.2-.5-.5s.2-.5.5-.5.5.2.5.5-.2.5-.5.5zM14.9 9c-.5 1.5-1.7 2.7-3.1 3.3-.3-.2-.7-.4-1.1-.4-.6 0-1.2.4-1.5.9H6.4c-.3-.5-.8-.9-1.5-.9-.4 0-.8.2-1.1.4-1.1-.4-2.2-1-3-2.1C3.2 10.2 2.7 7.6 3 6c.5-2.4 2.8-4 5.1-4.3.3 0 .6-.1.8-.1 3.9 0 7.3 3.4 6 7.4z"/></g></svg>6,4.4,2.4C3.2,3.3,2.5,4.5,2.2,5.9C2.2,6.2,2.1,6.7,2.1,7.1C2,7.8,2,8.4,1.8,8.9C1.6,9.2,1.4,9.4,0.8,9.4
		c-0.3,0-0.6,0.2-0.8,0.5c-0.1,0.3-0.1,0.6,0.1,0.9c0.9,1.2,2,1.9,3.2,2.3c-0.1,0.2-0.1,0.3-0.1,0.5c0,0.9,0.7,1.7,1.7,1.7
		c0.9,0,1.6-0.7,1.7-1.6c0.4,0,0.8,0,1.1,0c0.1,0,0.1,0,0.2,0c0,0,0.1,0,0.1,0c0.1,0,0.1,0,0.2,0c0.1,0,0.2,0,0.2,0
		c0.2,0,0.4,0,0.6,0c0,0.9,0.8,1.6,1.7,1.6c0.9,0,1.7-0.7,1.7-1.7c0-0.2,0-0.4-0.1-0.6c0.7-0.3,1.3-0.7,1.8-1.3
		c0.8-0.7,1.3-1.6,1.6-2.5C16,8.2,16.1,7.2,15.9,6.3z M4.9,14.1c-0.3,0-0.5-0.2-0.5-0.5S4.6,13,4.9,13c0.3,0,0.6,0.2,0.6,0.5
		S5.3,14.1,4.9,14.1z M10.7,14.1c-0.3,0-0.5-0.2-0.5-0.5s0.2-0.5,0.5-0.5c0.3,0,0.5,0.2,0.5,0.5S11,14.1,10.7,14.1z M14.9,9
		c-0.5,1.5-1.7,2.7-3.1,3.3c-0.3-0.2-0.7-0.4-1.1-0.4c-0.6,0-1.2,0.4-1.5,0.9c-0.3,0-0.6,0-0.8,0c-0.2,0-0.3,0-0.4,0
		c0,0-0.1,0-0.1,0c-0.1,0-0.1,0-0.2,0c-0.4,0-0.9,0-1.3,0c-0.3-0.5-0.8-0.9-1.5-0.9c-0.4,0-0.8,0.2-1.1,0.4c-1.1-0.4-2.2-1-3-2.1
		c2.4,0,1.9-2.6,2.2-4.2c0.5-2.4,2.8-4,5.1-4.3c0.3,0,0.6-0.1,0.8-0.1C12.8,1.6,16.2,5,14.9,9z"/>
</g>
</svg>
