<svg xmlns="http://www.w3.org/2000/svg" width="16" height="16" viewBox="0 0 16 16"><path d="M8 0C3.6 0 0 3.6 0 8c0 2.6 1.6 4.7 1.6 4.7l-1 2.9 3-1s2 1.3 4.4 1.3c4.4 0 8-3.6 8-8C16 3.6 12.4 0 8 0zm4.5 11.7c-.6.6-1.8.9-2.3.7-.6-.2-2.5-.7-3.7-1.8-1.3-1.1-2.3-2.3-2.7-3.2-.4-.9-.4-1.4-.4-1.7 0-.2.2-1.4.9-1.9 0 0 .3-.2.4-.2h.8s.2 0 .3.2c.1.2.7 1.7.8 1.8 0 .1.2.4 0 .7-.2.4-.7.8-.7.8s-.2.1 0 .4c.1.2.6 1 1.3 1.6.7.6 1.4 1 1.8 1.1.4.1.5 0 .6-.2.1-.2.6-.8.6-.8s.2-.2.5-.1 1.9.9 1.9.9.2 0 .2.2c.1.3.2.9-.3 1.5z"/></svg>.7,1.6,4.7l-1,2.9l3-1c0,0,2,1.3,4.4,1.3c4.4,0,8-3.6,8-8C16,3.6,12.4,0,8,0z M12.5,11.7
	c-0.6,0.6-1.8,0.9-2.3,0.7c-0.6-0.2-2.5-0.7-3.7-1.8C5.2,9.5,4.2,8.3,3.8,7.4C3.4,6.5,3.4,6,3.4,5.7c0-0.2,0.2-1.4,0.9-1.9
	c0,0,0.3-0.2,0.4-0.2c0.1,0,0.8,0,0.8,0s0.2,0,0.3,0.2c0.1,0.2,0.7,1.7,0.8,1.8c0,0.1,0.2,0.4,0,0.7C6.4,6.7,5.9,7.1,5.9,7.1
	s-0.2,0.1,0,0.4c0.1,0.2,0.6,1,1.3,1.6c0.7,0.6,1.4,1,1.8,1.1c0.4,0.1,0.5,0,0.6-0.2c0.1-0.2,0.6-0.8,0.6-0.8s0.2-0.2,0.5-0.1
	c0.3,0.1,1.9,0.9,1.9,0.9s0.2,0,0.2,0.2C12.9,10.5,13,11.1,12.5,11.7z"/>
</svg>
