<svg xmlns="http://www.w3.org/2000/svg" width="16" height="16" viewBox="0 0 16 16"><g fill-rule="evenodd" clip-rule="evenodd"><path d="M16 5.5c-.4.4-.7.8-1.1 1.1C13 4.7 10.7 3.8 8 3.8s-5 1-6.9 2.9C.7 6.2.4 5.9 0 5.5l.1-.1c.6-.6 1.3-1.1 2-1.5C3.5 3 5 2.4 6.7 2.2c.3 0 .5-.1.8-.1h1.2c.6.1 1.2.1 1.8.2 1.8.4 3.5 1.2 4.9 2.4.1.4.4.6.6.8z"/><path d="M13.7 7.7l-1.1 1.1C11.3 7.6 9.8 6.9 8 6.9c-1.8 0-3.3.7-4.6 1.9-.4-.3-.8-.7-1.1-1.1 3-3.1 8.2-3.2 11.4 0z"/><path d="M4.5 10c1.9-1.9 5.1-1.9 6.9 0l-1.1 1.1c-.7-.6-1.4-1-2.4-1-.9 0-1.7.3-2.4 1-.2-.4-.6-.8-1-1.1zm4.8 2.6c0 .7-.6 1.3-1.3 1.3-.7 0-1.3-.6-1.3-1.3 0-.7.6-1.3 1.3-1.3.7 0 1.3.6 1.3 1.3z"/></g></svg>