<?xml version="1.0" encoding="utf-8"?>
<!-- Generator: Adobe Illustrator 16.0.0, SVG Export Plug-In . SVG Version: 6.00 Build 0)  -->
<!DOCTYPE svg PUBLIC "-//W3C//DTD SVG 1.1//EN" "http://www.w3.org/Graphics/SVG/1.1/DTD/svg11.dtd">
<svg version="1.1" id="Layer_1" xmlns="http://www.w3.org/2000/svg" xmlns:xlink="http://www.w3.org/1999/xlink" x="0px" y="0px"
	 width="16px" height="16px" viewBox="0 0 16 16" enable-background="new 0 0 16 16" xml:space="preserve">
<g>
	<g>
		<path fill-rule="evenodd" clip-rule="evenodd" d="M16,5.5c-0.4,0.4-0.7,0.8-1.1,1.1C13,4.7,10.7,3.8,8,3.8c-2.7,0-5,1-6.9,2.9
			C0.7,6.2,0.4,5.9,0,5.5c0,0,0,0,0,0c0,0,0.1-0.1,0.1-0.1c0.6-0.6,1.3-1.1,2-1.5C3.5,3,5,2.4,6.7,2.2c0.3,0,0.5-0.1,0.8-0.1
			c0.3,0,0.7,0,1,0c0.1,0,0.1,0,0.2,0c0.6,0.1,1.2,0.1,1.8,0.2c1.8,0.4,3.5,1.2,4.9,2.4C15.5,5.1,15.8,5.3,16,5.5
			C16,5.5,16,5.5,16,5.5z"/>
		<path fill-rule="evenodd" clip-rule="evenodd" d="M13.7,7.7c-0.4,0.4-0.7,0.7-1.1,1.1C11.3,7.6,9.8,6.9,8,6.9
			c-1.8,0-3.3,0.7-4.6,1.9C3,8.5,2.6,8.1,2.3,7.7C5.3,4.6,10.5,4.5,13.7,7.7z"/>
		<path fill-rule="evenodd" clip-rule="evenodd" d="M4.5,10c1.9-1.9,5.1-1.9,6.9,0c-0.4,0.4-0.7,0.7-1.1,1.1c-0.7-0.6-1.4-1-2.4-1
			c-0.9,0-1.7,0.3-2.4,1C5.3,10.7,4.9,10.3,4.5,10z"/>
	</g>
	<path fill-rule="evenodd" clip-rule="evenodd" d="M9.3,12.6c0,0.7-0.6,1.3-1.3,1.3c-0.7,0-1.3-0.6-1.3-1.3c0-0.7,0.6-1.3,1.3-1.3
		C8.7,11.3,9.3,11.9,9.3,12.6z"/>
</g>
</svg>
