<?xml version="1.0" encoding="utf-8"?>
<!-- Generator: Adobe Illustrator 16.0.0, SVG Export Plug-In . SVG Version: 6.00 Build 0)  -->
<!DOCTYPE svg PUBLIC "-//W3C//DTD SVG 1.1//EN" "http://www.w3.org/Graphics/SVG/1.1/DTD/svg11.dtd">
<svg version="1.1" id="Layer_1" xmlns="http://www.w3.org/2000/svg" xmlns:xlink="http://www.w3.org/1999/xlink" x="0px" y="0px"
	 width="16px" height="16px" viewBox="0 0 16 16" enable-background="new 0 0 16 16" xml:space="preserve">
<path fill-rule="evenodd" clip-rule="evenodd" d="M12.373,0.652C10.922,0.487,9.46,0.408,8,0.408c-1.46,0-2.922,0.08-4.374,0.244
	C3.578,0.988,3.554,1.327,3.554,1.667c0,0.473,0.046,0.947,0.142,1.412l0,0l0,0c0.04,0.194,0.088,0.386,0.145,0.576l0.011,0.003
	c0.537,1.738,1.549,2.882,3.037,3.43c-1.306-0.713-2.173-1.829-2.6-3.347C4.737,3.786,5.161,3.698,5.56,3.476
	c0.52-0.233,1.104-0.192,1.752,0.12c0.043,0.02,0.086,0.037,0.127,0.054c0.663,0.218,1.276,0.171,1.84-0.142
	c0.521-0.233,1.104-0.192,1.753,0.12c0.431,0.195,0.8,0.227,1.106,0.095c0.207-0.664,0.308-1.362,0.308-2.056
	C12.446,1.327,12.422,0.988,12.373,0.652L12.373,0.652z M12.725,0.283c0.084,0.444,0.129,0.907,0.129,1.384
	c0,2.958-1.715,5.418-3.976,5.931l-0.449,7.028c1.858,0.039,3.3,0.331,3.3,0.685C11.729,15.691,10.06,16,8,16
	s-3.729-0.309-3.729-0.689c0-0.354,1.443-0.646,3.3-0.685L7.122,7.598C4.861,7.085,3.146,4.625,3.146,1.667
	c0-0.477,0.044-0.939,0.128-1.384C4.789,0.099,6.371,0,8,0S11.211,0.099,12.725,0.283z"/>
</svg>
