<?xml version="1.0" encoding="utf-8"?>
<!-- Generator: Adobe Illustrator 16.0.0, SVG Export Plug-In . SVG Version: 6.00 Build 0)  -->
<!DOCTYPE svg PUBLIC "-//W3C//DTD SVG 1.1//EN" "http://www.w3.org/Graphics/SVG/1.1/DTD/svg11.dtd">
<svg version="1.1" id="Layer_1" xmlns="http://www.w3.org/2000/svg" xmlns:xlink="http://www.w3.org/1999/xlink" x="0px" y="0px"
	 width="16px" height="16px" viewBox="0 0 16 16" enable-background="new 0 0 16 16" xml:space="preserve">
<g>
	<g>
		<path d="M15.342,11.956H0.658C0.296,11.956,0,12.281,0,12.678v0.057c0,0.397,0.296,0.723,0.658,0.723h14.684
			c0.362,0,0.658-0.325,0.658-0.723v-0.057C16,12.281,15.704,11.956,15.342,11.956z M8.29,4.051
			c0.283-0.116,0.484-0.397,0.484-0.726c0-0.432-0.347-0.782-0.774-0.782s-0.774,0.35-0.774,0.782c0,0.329,0.201,0.609,0.484,0.726
			c-3.509,0.173-6.309,3.485-6.309,7.545h13.197C14.599,7.537,11.799,4.225,8.29,4.051z M7.787,4.991
			c0.146-0.013,0.295-0.02,0.445-0.02c3.034,0,5.464,2.617,5.464,5.988h-0.892C12.805,7.754,10.611,5.243,7.787,4.991z"/>
	</g>
</g>
</svg>
