<?xml version="1.0" encoding="utf-8"?>
<!-- Generator: Adobe Illustrator 16.0.0, SVG Export Plug-In . SVG Version: 6.00 Build 0)  -->
<!DOCTYPE svg PUBLIC "-//W3C//DTD SVG 1.1//EN" "http://www.w3.org/Graphics/SVG/1.1/DTD/svg11.dtd">
<svg version="1.1" id="Layer_1" xmlns="http://www.w3.org/2000/svg" xmlns:xlink="http://www.w3.org/1999/xlink" x="0px" y="0px"
	 width="16px" height="16px" viewBox="0 0 16 16" enable-background="new 0 0 16 16" xml:space="preserve">
<g>
	<g>
		<path d="M6.6,2.8C5.9,2.8,5.4,2.8,5.4,2c0-1,0.5-1.3,1.3-0.9c1,0.5,1,0.3,0.3-0.2c-1.7-1.1-3-1.6-2.9,1c0.1,1.9,1.1,1.9,2.6,1.2
			C7.4,2.8,7.3,2.7,6.6,2.8z M8.6,4.2H7.5c-0.3,0-0.4,0-0.4,0.4v5.7v5.3C7.1,16,7.2,16,7.5,16h1.1c0.3,0,0.4,0,0.4-0.4V8.5V4.6
			C8.9,4.2,8.9,4.2,8.6,4.2z M6.1,4.2H1.9c-0.4,0-0.4,0.1-0.4,0.4v1.3c0,0.3,0,0.4,0.4,0.4h4.1c0.3,0,0.4,0,0.4-0.4V4.6
			C6.5,4.2,6.4,4.2,6.1,4.2z M11.9,1.9c0.1-2.6-1.2-2.2-2.9-1C8.2,1.4,8.3,1.6,9.2,1.1C10.1,0.7,10.5,1,10.5,2
			c0,0.8-0.5,0.8-1.2,0.8c-0.7-0.1-0.8,0-0.1,0.3C10.8,3.9,11.8,3.8,11.9,1.9z M6.1,7H2.6C2.2,7,2.2,7,2.2,7.4v7.9v0.4
			c0,0.4,0,0.4,0.4,0.4h3.5c0.3,0,0.4,0,0.4-0.4v-4.7V7.4C6.5,7.1,6.5,7,6.1,7z M13.4,7h-3H9.9C9.5,7,9.5,7.1,9.5,7.4v0.5v7.7
			c0,0.3,0,0.4,0.4,0.4h3.5c0.3,0,0.4-0.1,0.4-0.4V7.4C13.8,7,13.8,7,13.4,7z M14.1,4.2h-0.9H9.9c-0.4,0-0.4,0.1-0.4,0.4v1.3
			c0,0.3,0,0.4,0.4,0.4h1.3h2.9c0.4,0,0.4-0.1,0.4-0.4V4.6C14.4,4.2,14.4,4.2,14.1,4.2z"/>
	</g>
</g>
</svg>
