<?xml version="1.0" encoding="utf-8"?>
<!-- Generator: Adobe Illustrator 16.0.0, SVG Export Plug-In . SVG Version: 6.00 Build 0)  -->
<!DOCTYPE svg PUBLIC "-//W3C//DTD SVG 1.1//EN" "http://www.w3.org/Graphics/SVG/1.1/DTD/svg11.dtd">
<svg version="1.1" id="Layer_1" xmlns="http://www.w3.org/2000/svg" xmlns:xlink="http://www.w3.org/1999/xlink" x="0px" y="0px"
	 width="16px" height="16px" viewBox="0 0 16 16" enable-background="new 0 0 16 16" xml:space="preserve">
<g>
	<path fill="#010101" d="M8,8C7.5,8,7.1,8.2,6.8,8.5C6.4,8.8,6.3,9.3,6.3,9.7c0,0.3,0.1,0.6,0.2,0.9c0.1,0.3,0.4,0.5,0.6,0.6
		c0.3,0.2,0.6,0.2,0.9,0.2c0.5,0,0.9-0.2,1.2-0.5c0.3-0.3,0.5-0.7,0.5-1.2c0-0.5-0.2-0.9-0.5-1.2C8.9,8.2,8.5,8,8,8z"/>
	<path fill="#010101" d="M8,7.2c0.4,0,0.7-0.1,1-0.4c0.3-0.3,0.4-0.6,0.4-0.9c0-0.4-0.1-0.7-0.4-1C8.7,4.7,8.4,4.5,8,4.5
		c-0.4,0-0.7,0.1-1,0.4C6.7,5.2,6.6,5.5,6.6,5.8c0,0.4,0.1,0.7,0.4,1C7.3,7.1,7.6,7.2,8,7.2z"/>
	<path fill="#010101" d="M8,0C3.6,0,0,3.6,0,8s3.6,8,8,8c4.4,0,8-3.6,8-8S12.4,0,8,0z M10,11.6c-0.5,0.5-1.2,0.7-2,0.7
		s-1.5-0.2-2-0.7c-0.5-0.5-0.8-1.1-0.8-1.9c0-0.6,0.1-1,0.4-1.4C5.9,8,6.3,7.7,6.8,7.6c-0.4-0.2-0.8-0.4-1-0.7
		C5.7,6.6,5.5,6.3,5.5,5.9c0-0.6,0.2-1.1,0.7-1.6c0.4-0.4,1-0.6,1.8-0.6c0.7,0,1.3,0.2,1.8,0.6c0.5,0.4,0.7,1,0.7,1.6
		c0,0.4-0.1,0.7-0.3,1C9.9,7.2,9.6,7.4,9.2,7.6c0.5,0.2,0.9,0.4,1.2,0.8c0.3,0.4,0.4,0.8,0.4,1.4C10.8,10.5,10.5,11.1,10,11.6z"/>
</g>
</svg>
