<?xml version="1.0" encoding="utf-8"?>
<!-- Generator: Adobe Illustrator 16.0.0, SVG Export Plug-In . SVG Version: 6.00 Build 0)  -->
<!DOCTYPE svg PUBLIC "-//W3C//DTD SVG 1.1//EN" "http://www.w3.org/Graphics/SVG/1.1/DTD/svg11.dtd">
<svg version="1.1" id="Layer_1" xmlns="http://www.w3.org/2000/svg" xmlns:xlink="http://www.w3.org/1999/xlink" x="0px" y="0px"
	 width="16px" height="16px" viewBox="0 0 16 16" enable-background="new 0 0 16 16" xml:space="preserve">
<path d="M8,0C3.6,0,0,3.6,0,8s3.6,8,8,8c4.4,0,8-3.6,8-8S12.4,0,8,0z M8,2c3.3,0,6,2.7,6,6l0,0.1L13.9,8c-0.4-0.3-0.8-0.6-1.7-0.6
	c-0.9,0-1.3,0.3-1.7,0.6c-0.3,0.2-0.5,0.4-1,0.4c-0.5,0-0.7-0.2-1-0.4C8,7.7,7.5,7.4,6.6,7.4C5.7,7.4,5.3,7.7,4.9,8
	c-0.3,0.2-0.5,0.4-1,0.4c-0.5,0-0.7-0.2-1-0.4C2.6,7.9,2.3,7.7,2,7.6C2.2,4.5,4.8,2,8,2z M13.4,10.6c-0.3-0.2-0.7-0.3-1.3-0.3
	c-0.9,0-1.3,0.3-1.7,0.6c-0.3,0.2-0.5,0.4-1,0.4c-0.5,0-0.7-0.2-1-0.4c-0.4-0.3-0.8-0.6-1.7-0.6c-0.9,0-1.3,0.3-1.7,0.6
	c-0.3,0.2-0.5,0.4-1,0.4c-0.5,0-0.7-0.2-1-0.4l-0.1-0.1C2.4,10.3,2.2,9.6,2.1,9l0.1,0C2.5,9.3,3,9.6,3.9,9.6c0.9,0,1.3-0.3,1.7-0.6
	c0.3-0.2,0.5-0.4,1-0.4c0.5,0,0.7,0.2,1,0.4C8,9.3,8.5,9.6,9.4,9.6c0.9,0,1.3-0.3,1.7-0.6c0.3-0.2,0.5-0.4,1-0.4
	c0.5,0,0.7,0.2,1,0.4c0.2,0.1,0.4,0.3,0.7,0.4C13.7,9.8,13.6,10.2,13.4,10.6z M8,14c-1.5,0-2.9-0.6-4-1.5c0.8,0,1.2-0.3,1.6-0.6
	c0.3-0.2,0.5-0.4,1-0.4c0.5,0,0.7,0.2,1,0.4c0.4,0.3,0.8,0.6,1.7,0.6c0.9,0,1.3-0.3,1.7-0.6c0.3-0.2,0.5-0.4,1-0.4
	c0.3,0,0.5,0,0.6,0.1C11.7,13.1,9.9,14,8,14z"/>
</svg>
